<?xml version="1.0" standalone="no"?>
<!DOCTYPE svg PUBLIC "-//W3C//DTD SVG 1.1//EN" "http://www.w3.org/Graphics/SVG/1.1/DTD/svg11.dtd" >
<svg>
<metadata>
Created by FontForge 20090914 at Thu Jul 14 19:57:28 2022
 By www-data
Copyright 2019 The Manrope Project Authors (https://github.com/sharanda/manrope)
Copyright 2021 The Vela Sans Project - Ravid Balaliev
</metadata>
<defs>
<font id="VelaSans-Regular" horiz-adv-x="1234" >
  <font-face 
    font-family="Vela Sans"
    font-weight="400"
    font-stretch="normal"
    units-per-em="2000"
    panose-1="0 0 0 0 0 0 0 0 0 0"
    ascent="1600"
    descent="-400"
    x-height="1080"
    cap-height="1440"
    bbox="-362 -550.003 2516 2233"
    underline-thickness="50"
    underline-position="-50"
    unicode-range="U+000A-U+FB02"
  />
<missing-glyph horiz-adv-x="1480" 
d="M200 1414v26h1080v-26h-1080zM200 1298v32h1080v-32h-1080zM200 1184v36h1080v-36h-1080zM200 1066v42h1080v-42h-1080zM200 952v44h1080v-44h-1080zM200 838v48h1080v-48h-1080zM200 720v56h1080v-56h-1080zM200 606v60h1080v-60h-1080zM200 490v66h1080v-66h-1080z
M200 374v70h1080v-70h-1080zM200 260v74h1080v-74h-1080zM200 144v80h1080v-80h-1080zM200 0v114h1080v-114h-1080z" />
    <glyph glyph-name="uniE001" unicode="&#x28;c&#x29;" horiz-adv-x="1807" 
d="M903 -53c-134.667 0 -258.834 33.333 -372.501 100s-203.834 156.834 -270.501 270.501s-100 237.834 -100 372.501s33.333 258.834 100 372.501s156.834 203.834 270.501 270.501s237.834 100 372.501 100s259 -33.333 373 -100s204.333 -156.834 271 -270.501
s100 -237.834 100 -372.501s-33.333 -258.834 -100 -372.501s-157 -203.834 -271 -270.501s-238.333 -100 -373 -100zM903 90c108.667 0 208.834 26.833 300.501 80.5s164.334 126.667 218.001 219s80.5 192.833 80.5 301.5s-26.833 208.834 -80.5 300.501
s-126.334 164.334 -218.001 218.001s-191.834 80.5 -300.501 80.5s-209.167 -26.833 -301.5 -80.5s-165.333 -126.334 -219 -218.001s-80.5 -191.834 -80.5 -300.501s26.833 -209.167 80.5 -301.5s126.667 -165.333 219 -219s192.833 -80.5 301.5 -80.5zM912 269
c-61.333 0 -116.001 10.501 -164.001 31.501s-89.667 53.833 -125 98.5c-33.333 41.333 -56.833 86.5 -70.5 135.5s-20.5 101.833 -20.5 158.5c0.666992 56.667 8 109.5 22 158.5s37 92.833 69 131.5c35.333 44.667 77.333 77.667 126 99s105 32 169 32
c37.333 0 71.833 -4 103.5 -12s62.834 -21 93.501 -39c32.667 -20.667 61.167 -46.167 85.5 -76.5s41.833 -64.5 52.5 -102.5l-123 -37c-8.66699 21.333 -20.334 41.5 -35.001 60.5s-31.334 35.5 -50.001 49.5c-36.667 26 -80.667 39 -132 39
c-38.667 0 -74 -7.66699 -106 -23s-59.333 -37.333 -82 -66c-21.333 -27.333 -36.666 -59.333 -45.999 -96s-14 -75.667 -14 -117c0 -42.667 5 -82.834 15 -120.501s25 -69.834 45 -96.501c21.333 -29.333 48 -51.666 80 -66.999s68 -23 108 -23c52 0 96.667 12.667 134 38
c18 13.333 33.5 28.333 46.5 45s24.167 36.667 33.5 60l126 -34c-14 -36.667 -32.167 -69.167 -54.5 -97.5s-46.5 -51.5 -72.5 -69.5c-30.667 -20 -63.167 -35 -97.5 -45s-73.166 -15 -116.499 -15z" />
    <glyph glyph-name="uniE002" unicode="&#x20;&#x3c;&#x33;&#x20;" horiz-adv-x="2334" 
d="M1167 -30c-17.333 0 -34.001 3.33203 -50.001 9.99902s-30 16.334 -42 29.001l-408 430c-72 77.333 -108 167 -108 269c0 4 0.833008 33.667 2.5 89s37 121.333 106 198s155.167 115 258.5 115c81.333 0 161.666 -30 240.999 -90
c38.667 30.667 78.334 53.334 119.001 68.001s81 22 121 22c104.667 0 191.334 -38.667 260.001 -116s103.667 -143.5 105 -198.5s2 -84.167 2 -87.5c0 -103.333 -36 -193 -108 -269l-407 -430c-12 -12.667 -26 -22.334 -42 -29.001s-32.667 -10 -50 -10zM1575 525.999
c48.667 51.333 73.002 111.667 73.002 181c0 2.66699 -0.5 22.834 -1.5 60.501s-24.333 83.167 -70 136.5s-102.167 80 -169.5 80c-39.333 0 -79.333 -10.833 -120 -32.5s-80.667 -54.167 -120 -97.5c-42.667 44 -84 76.667 -124 98s-79 32 -117 32
c-68.667 0 -125.334 -26.833 -170.001 -80.5s-67.334 -99.167 -68.001 -136.5s-1 -57 -1 -59c0 -70.667 24 -131.334 72 -182.001l408 -429z" />
    <glyph glyph-name="uniE003" unicode="&#x28;&#x3e;&#x29;" horiz-adv-x="2300" 
d="M1150 -270c-179.333 0 -344.666 44.5 -495.999 133.5s-271.5 209.167 -360.5 360.5s-133.5 316.666 -133.5 495.999s44.5 344.666 133.5 495.999s209.167 271.5 360.5 360.5s316.666 133.5 495.999 133.5s344.666 -44.5 495.999 -133.5s271.5 -209.167 360.5 -360.5
s133.5 -316.666 133.5 -495.999s-44.5 -344.666 -133.5 -495.999s-209.167 -271.5 -360.5 -360.5s-316.666 -133.5 -495.999 -133.5zM1153 -127c152.667 0 293.667 37.833 423 113.5s231.833 178.5 307.5 308.5s113.5 272.667 113.5 428
c0 152.667 -37.833 293.667 -113.5 423s-178.167 231.833 -307.5 307.5s-270.333 113.5 -423 113.5c-155.333 0 -298 -37.833 -428 -113.5s-232.833 -178.167 -308.5 -307.5s-113.5 -270.333 -113.5 -423c0 -155.333 37.833 -298 113.5 -428s178.5 -232.833 308.5 -308.5
s272.667 -113.5 428 -113.5zM1405 720l-384 -320v640z" />
    <glyph glyph-name="uniE007" unicode="ff" horiz-adv-x="1325" 
d="M60 940v140h187v98c0 194.667 97.333 292 292 292h150v-124h-126c-30.667 0 -56.667 -3.16699 -78 -9.5s-38.833 -16.5 -52.5 -30.5s-23.5 -32.333 -29.5 -55s-9 -50 -9 -82v-89h295v-140h-295v-940h-147v940h-187zM676 940v140h187v98c0 194.667 97.333 292 292 292h150
v-124h-126c-30.667 0 -56.667 -3.16699 -78 -9.5s-38.833 -16.5 -52.5 -30.5s-23.5 -32.333 -29.5 -55s-9 -50 -9 -82v-89h295v-140h-295v-940h-147v940h-187z" />
    <glyph glyph-name="uniE008" unicode="ffl" horiz-adv-x="1865" 
d="M676 940v140h187v92c0 102 24 177.167 72 225.5s123 72.5 225 72.5h145v-124h-126c-30.667 0 -56.667 -3.16699 -78 -9.5s-38.833 -16.5 -52.5 -30.5s-23.5 -32.333 -29.5 -55s-9 -50 -9 -82v-89h548v390h147v-1470h-147v940h-548v-940h-147v940h-187zM60 940v140h187v98
c0 194.667 97.333 292 292 292h150v-124h-126c-30.667 0 -56.667 -3.16699 -78 -9.5s-38.833 -16.5 -52.5 -30.5s-23.5 -32.333 -29.5 -55s-9 -50 -9 -82v-89h295v-140h-295v-940h-147v940h-187z" />
    <glyph glyph-name="uniE009" unicode="tt" horiz-adv-x="1483" 
d="M20 1080h231.001v361h146v-361h331v-140h-331v-633c0 -62 12.833 -106 38.5 -132s69.167 -39 130.5 -39h162v-136h-201c-42.667 0 -81.167 6.16699 -115.5 18.5s-63.333 30 -87 53s-41.834 51 -54.501 84s-19 70.167 -19 111.5v673h-231v140zM701.001 1080h231.001v361
h146v-361h331v-140h-331v-633c0 -62 12.833 -106 38.5 -132s69.167 -39 130.5 -39h162v-136h-201c-42.667 0 -81.167 6.16699 -115.5 18.5s-63.333 30 -87 53s-41.834 51 -54.501 84s-19 70.167 -19 111.5v673h-231v140z" />
    <glyph glyph-name="fi" unicode="fi" horiz-adv-x="1206" 
d="M60 940v140h187v98c0 194.667 97.333 292 292 292h150v-124h-126c-30.667 0 -56.667 -3.16699 -78 -9.5s-38.833 -16.5 -52.5 -30.5s-23.5 -32.333 -29.5 -55s-9 -50 -9 -82v-89h295v-140h-295v-940h-147v940h-187zM899 1285v165h147v-165h-147zM899 0v1080h147v-1080
h-147z" />
    <glyph glyph-name="fl" unicode="fl" horiz-adv-x="1249" 
d="M60 940v140h187v92c0 102 24 177.167 72 225.5s123 72.5 225 72.5h145v-124h-126c-30.667 0 -56.667 -3.16699 -78 -9.5s-38.833 -16.5 -52.5 -30.5s-23.5 -32.333 -29.5 -55s-9 -50 -9 -82v-89h548v390h147v-1470h-147v940h-548v-940h-147v940h-187z" />
    <glyph glyph-name="hyphen_hyphen.liga" unicode="&#x2d;&#x2d;" horiz-adv-x="1080" 
d="M120 567v126h840v-126h-840z" />
    <glyph glyph-name="hyphen_greater.liga" unicode="&#x2d;&#x3e;" horiz-adv-x="2002" 
d="M280 693h1197l-318 314l94 92l469 -469l-469 -469l-94 92l318 314h-1197v126z" />
    <glyph glyph-name="less_hyphen.liga" unicode="&#x3c;&#x2d;" horiz-adv-x="2002" 
d="M1722 694v-126h-1197l318 -315l-94 -92l-469 469l469 470l94 -92l-318 -314h1197z" />
    <glyph glyph-name=".notdef" horiz-adv-x="1480" 
d="M200 1414v26h1080v-26h-1080zM200 1298v32h1080v-32h-1080zM200 1184v36h1080v-36h-1080zM200 1066v42h1080v-42h-1080zM200 952v44h1080v-44h-1080zM200 838v48h1080v-48h-1080zM200 720v56h1080v-56h-1080zM200 606v60h1080v-60h-1080zM200 490v66h1080v-66h-1080z
M200 374v70h1080v-70h-1080zM200 260v74h1080v-74h-1080zM200 144v80h1080v-80h-1080zM200 0v114h1080v-114h-1080z" />
    <glyph glyph-name="uni000A" unicode="&#xa;" horiz-adv-x="445" 
 />
    <glyph glyph-name="uni000D" unicode="&#xd;" horiz-adv-x="1200" 
 />
    <glyph glyph-name="space" unicode=" " horiz-adv-x="400" 
 />
    <glyph glyph-name="exclam" unicode="!" horiz-adv-x="620" 
d="M240 360v1080h140v-1080h-140zM240 0v165h140v-165h-140z" />
    <glyph glyph-name="quotedbl" unicode="&#x22;" horiz-adv-x="784" 
d="M120 1080v360h147v-360h-147zM437 1080v360h147v-360h-147z" />
    <glyph glyph-name="numbersign" unicode="#" horiz-adv-x="1841" 
d="M411 1l116 433h-407l37 141h408l85 321h-407l38 141h408l107 403h147l-109 -403h335l107 403h147l-109 -403h407l-38 -141h-406l-87 -321h407l-38 -141h-406l-116 -433h-146l115 433h-333l-116 -433h-146zM711 575h334l85 321h-333z" />
    <glyph glyph-name="dollar" unicode="$" horiz-adv-x="1233" 
d="M567 -27c-66 6 -127.168 19.8301 -183.501 41.4971s-106 50.167 -149 85.5s-78.833 77 -107.5 125s-48.667 101.333 -60 160l150 25c12 -46 30.833 -87.5 56.5 -124.5s57 -68.5 94 -94.5s79 -45.833 126 -59.5s97.833 -20.5 152.5 -20.5
c55.333 0 105.666 6.66699 150.999 20s84.166 32 116.499 56s57.5 53 75.5 87s27 71.667 27 113c0 111.333 -73.667 189 -221 233l-365 109c-204.667 60.667 -307 175.667 -307 345c0 54 10 103.667 30 149s48.167 85 84.5 119s80.333 61.667 132 83s109.167 35 172.5 41
v174h147v-175c62.667 -6.66699 120.334 -21 173.001 -43s99.167 -50.833 139.5 -86.5s73.833 -77.5 100.5 -125.5s45.334 -101.667 56.001 -161l-154 -28c-6.66699 46 -21.167 87.667 -43.5 125s-50.666 69.5 -84.999 96.5s-73.666 48 -117.999 63
s-92.166 22.833 -143.499 23.5c-49.333 0 -94.5 -6.33301 -135.5 -19s-76.333 -30.167 -106 -52.5s-52.834 -48.666 -69.501 -78.999s-25 -63.166 -25 -98.499c0 -28 4.66699 -53 14 -75s24.166 -42 44.499 -60s46.666 -34.5 78.999 -49.5s71.833 -29.167 118.5 -42.5
l282 -83c116 -34 203.333 -82.333 262 -145s88 -140 88 -232c0 -58.667 -10.667 -112.5 -32 -161.5s-51.666 -91.667 -90.999 -128s-86.833 -65.666 -142.5 -87.999s-118.167 -36.5 -187.5 -42.5v-173h-146v173z" />
    <glyph glyph-name="percent" unicode="%" horiz-adv-x="1803" 
d="M480 750c-65.333 0 -125.499 15.999 -180.499 47.999s-98.667 75.667 -131 131s-48.5 115.666 -48.5 180.999c0 64 16.5 123.667 49.5 179s77.167 99.333 132.5 132s114.666 49 177.999 49c65.333 0 125.5 -16 180.5 -48s98.667 -75.667 131 -131
s48.5 -115.666 48.5 -180.999s-16.167 -125.666 -48.5 -180.999s-76 -99 -131 -131s-115.167 -48 -180.5 -48zM280.001 -0.000976562l-100 100l1343 1340l100 -99zM480.001 882.999c40.667 0 78.334 10.333 113.001 31s62.334 48.334 83.001 83.001s31 72.334 31 113.001
s-10.333 78.334 -31 113.001s-48.334 62.334 -83.001 83.001s-72.334 31 -113.001 31s-78.334 -10.333 -113.001 -31s-62.334 -48.334 -83.001 -83.001s-31 -72.334 -31 -113.001s10.333 -78.334 31 -113.001s48.334 -62.334 83.001 -83.001s72.334 -31 113.001 -31z
M1323 -30.001c-65.333 0 -125.499 15.999 -180.499 47.999s-98.667 75.667 -131 131s-48.5 115.666 -48.5 180.999c0 64 16.5 123.667 49.5 179s77.167 99.333 132.5 132s114.666 49 177.999 49c65.333 0 125.5 -16 180.5 -48s98.667 -75.667 131 -131
s48.5 -115.666 48.5 -180.999s-16.167 -125.666 -48.5 -180.999s-76 -99 -131 -131s-115.167 -48 -180.5 -48zM1323 102.998c40 0 77.5 10.333 112.5 31s62.833 48.334 83.5 83.001s31 72.334 31 113.001s-10.333 78.334 -31 113.001s-48.5 62.334 -83.5 83.001
s-72.5 31 -112.5 31c-40.667 0 -78.5 -10.333 -113.5 -31s-62.833 -48.334 -83.5 -83.001s-31 -72.334 -31 -113.001s10.333 -78.334 31 -113.001s48.5 -62.334 83.5 -83.001s72.833 -31 113.5 -31z" />
    <glyph glyph-name="ampersand" unicode="&#x26;" horiz-adv-x="1303" 
d="M1033 128c-40.667 -50 -95.167 -88.834 -163.5 -116.501s-151.5 -41.5 -249.5 -41.5c-78 0 -148.833 10.167 -212.5 30.5s-118 49 -163 86s-80 81.5 -105 133.5s-38.167 110 -39.5 174c-2 86.667 17.167 162.334 57.5 227.001s100.166 116 179.499 154
c-28.667 27.333 -52.834 53.333 -72.501 78s-35.667 49.5 -48 74.5s-21.333 50.5 -27 76.5s-8.5 53.667 -8.5 83c0 57.333 10.167 109.5 30.5 156.5s49 87.167 86 120.5s81.5 59.166 133.5 77.499s110 27.5 174 27.5c49.333 0 95.166 -5.5 137.499 -16.5
s80.833 -27 115.5 -48s64.5 -46.667 89.5 -77s44.5 -64.5 58.5 -102.5l-142 -42c-17.333 46 -48.666 81.667 -93.999 107s-99.666 38 -162.999 38c-42.667 0 -81 -5.5 -115 -16.5s-63 -27 -87 -48s-42.333 -46.167 -55 -75.5s-19 -62.666 -19 -99.999
c0 -24.667 3.33301 -47.5 10 -68.5s17.334 -42.333 32.001 -64s33.667 -44.667 57 -69l84 -83.5l455 -423c0 6.66699 0.166992 13.167 0.5 19.5s0.5 12.833 0.5 19.5v279h151v-291c0 -53.333 -6.66699 -103 -20 -149l165 -154l-96 -104zM619 111.999
c147.333 0 247.999 40.001 301.999 120.001l-473 440c-66.667 -20.667 -116.5 -54.334 -149.5 -101.001s-48.833 -103.334 -47.5 -170.001c1.33301 -44 11.333 -83.667 30 -119s44.167 -65.666 76.5 -90.999s70.833 -44.833 115.5 -58.5s93.334 -20.5 146.001 -20.5z" />
    <glyph glyph-name="quotesingle" unicode="'" horiz-adv-x="427" 
d="M120 1080v360h147v-360h-147z" />
    <glyph glyph-name="parenleft" unicode="(" horiz-adv-x="852" 
d="M657 -359c-78 90 -145.499 190.665 -202.499 301.998s-100.333 227.5 -130 348.5s-44.5 241.167 -44.5 360.5v8v8c0 119.333 14.833 239.5 44.5 360.5s73 237.167 130 348.5s124.5 212 202.5 302l108 -84c-115.333 -137.333 -202.333 -285.166 -261 -443.499
s-88.334 -322.166 -89.001 -491.499c0.666992 -111.333 14.167 -221.5 40.5 -330.5s65.5 -214.5 117.5 -316.5s116 -197.333 192 -286z" />
    <glyph glyph-name="parenright" unicode=")" horiz-adv-x="852" 
d="M87 -273c76 88.667 140.001 184.002 192.001 286.002s91.167 207.5 117.5 316.5s39.833 219.167 40.5 330.5c-0.666992 169.333 -30.334 333.166 -89.001 491.499s-145.667 306.166 -261 443.499l108 84c78 -90 145.5 -190.667 202.5 -302s100.333 -227.5 130 -348.5
s44.5 -241.167 44.5 -360.5v-8v-8c0 -119.333 -14.833 -239.5 -44.5 -360.5s-73 -237.167 -130 -348.5s-124.5 -212 -202.5 -302z" />
    <glyph glyph-name="asterisk" unicode="*" horiz-adv-x="873" 
d="M259 779l-110 80l158 204l-247 75l42 129l243 -86l-6 259h136l-6 -259l242 86l42 -129l-246 -75l156 -204l-110 -80l-146 212z" />
    <glyph glyph-name="plus" unicode="+" horiz-adv-x="1153" 
d="M514 263v394h-394v126h394v394h126v-394h393v-126h-393v-394h-126z" />
    <glyph glyph-name="comma" unicode="," horiz-adv-x="531" 
d="M129 -136l7.99902 0.00195312c18 0 32.833 4.16699 44.5 12.5s19.667 20 24 35s6.5 33.167 6.5 54.5v9c-0.666992 4.66699 -1 9 -1 13v12h-91v211h171v-251c0 -40.667 -7 -74.834 -21 -102.501s-31.667 -46.334 -53 -56.001s-41.666 -14.5 -60.999 -14.5
c-11.333 0 -23.333 1.33301 -36 4z" />
    <glyph glyph-name="hyphen" unicode="-" horiz-adv-x="840" 
d="M120 567v126h600v-126h-600z" />
    <glyph glyph-name="period" unicode="." horiz-adv-x="507" 
d="M168 0v171h171v-171h-171z" />
    <glyph glyph-name="slash" unicode="/" horiz-adv-x="775" 
d="M655 1440l-384 -1440h-151l384 1440h151z" />
    <glyph glyph-name="zero" unicode="0" horiz-adv-x="1401" 
d="M701 -30c-90 0 -170 17 -240 51s-128.667 83.333 -176 148s-83.333 143.334 -108 236.001s-37 197.667 -37 315s12.333 222.333 37 315s60.667 171.334 108 236.001s106 114 176 148s150 51 240 51s169.833 -17 239.5 -51s128.167 -83.333 175.5 -148
s83.333 -143.334 108 -236.001s37 -197.667 37 -315s-12.333 -222.333 -37 -315s-60.667 -171.334 -108 -236.001s-105.833 -114 -175.5 -148s-149.5 -51 -239.5 -51zM701 111c63.333 0 119.833 13.1699 169.5 39.5029s92 65.166 127 116.499s61.667 115 80 191
s27.5 163.333 27.5 262c0 99.333 -9.16699 186.833 -27.5 262.5s-45 139.167 -80 190.5s-77.333 90.166 -127 116.499s-106.167 39.5 -169.5 39.5s-120 -13 -170 -39s-92.5 -64.667 -127.5 -116s-61.667 -114.833 -80 -190.5s-27.5 -163.5 -27.5 -263.5
c0 -98.667 9.16699 -185.834 27.5 -261.501s44.833 -139.167 79.5 -190.5s77 -90.333 127 -117s107 -40 171 -40z" />
    <glyph glyph-name="one" unicode="1" horiz-adv-x="851" 
d="M463 0v1269l-270 -163l-73 127l343 207h148v-1440h-148z" />
    <glyph glyph-name="two" unicode="2" horiz-adv-x="1184" 
d="M129 141l611.001 583.001c66 63.333 114.5 122.666 145.5 177.999s46.5 111.333 46.5 168c0 40 -8 76 -24 108s-38 59.167 -66 81.5s-61.167 39.5 -99.5 51.5s-80.166 18 -125.499 18c-48.667 0 -93.834 -7.16699 -135.501 -21.5s-78.334 -35 -110.001 -62
s-57.667 -59.333 -78 -97s-34.166 -80.167 -41.499 -127.5l-152 28c11.333 64.667 31.833 123 61.5 175s66.667 96.167 111 132.5s95.666 64.166 153.999 83.499s121.5 29 189.5 29c67.333 0 129.5 -9 186.5 -27s106.5 -44.167 148.5 -78.5s74.833 -76.333 98.5 -126
s35.167 -106.5 34.5 -170.5c0 -39.333 -5.5 -78 -16.5 -116s-25.833 -74.667 -44.5 -110s-40.667 -69.166 -66 -101.499s-53 -62.833 -83 -91.5l-531 -507h741v-141h-955v141z" />
    <glyph glyph-name="three" unicode="3" horiz-adv-x="1244" 
d="M1124 430c0 -68.667 -12.334 -131.333 -37.001 -188s-59.167 -105.167 -103.5 -145.5s-97.5 -71.5 -159.5 -93.5s-130 -33 -204 -33c-70.667 0 -135.5 8.5 -194.5 25.5s-111.5 42.667 -157.5 77s-84.833 77.5 -116.5 129.5s-55.5 113 -71.5 183l148 25
c14 -50 31.667 -93.833 53 -131.5s47.833 -68.834 79.5 -93.501s69 -43.167 112 -55.5s92.833 -18.5 149.5 -18.5c52.667 0 100.5 8 143.5 24s79.833 38 110.5 66s54.334 61.333 71.001 100s25 80.334 25 125.001c0 96.667 -29.667 169.5 -89 218.5s-147 73.5 -263 73.5
h-137v128l403 453h-724v141h909v-141l-411 -454c148.667 -5.33301 263.167 -42.833 343.5 -112.5s120.5 -170.5 120.5 -302.5z" />
    <glyph glyph-name="four" unicode="4" horiz-adv-x="1244" 
d="M855 0v285h-755v141l493 1014h162l-493 -1014h593v504h148v-504h141v-141h-141v-285h-148z" />
    <glyph glyph-name="five" unicode="5" horiz-adv-x="1244" 
d="M1144 430c0 -68.667 -12.334 -131.334 -37.001 -188.001s-59.167 -105.167 -103.5 -145.5s-97.5 -71.5 -159.5 -93.5s-130 -33 -204 -33c-70.667 0 -135.5 8.5 -194.5 25.5s-111.5 42.667 -157.5 77s-84.833 77.5 -116.5 129.5s-55.5 113 -71.5 183l148 25
c14 -50 31.667 -93.833 53 -131.5s47.833 -68.834 79.5 -93.501s69 -43.167 112 -55.5s92.833 -18.5 149.5 -18.5c52.667 0 100.5 8 143.5 24s79.833 38 110.5 66s54.334 61.333 71.001 100s25 80.334 25 125.001c0 96.667 -29.667 169.5 -89 218.5s-147 73.5 -263 73.5
h-436l46 722h801v-141h-663l-28 -440h282c80 0 151.167 -9.5 213.5 -28.5s114.833 -46.667 157.5 -83s75.167 -81.166 97.5 -134.499s33.5 -114.333 33.5 -183z" />
    <glyph glyph-name="six" unicode="6" horiz-adv-x="1342" 
d="M672 -30c-92.667 0 -173.163 13.501 -241.496 40.501s-124.666 68.167 -168.999 123.5s-77.5 125.833 -99.5 211.5s-33.667 186.834 -35 303.501c-1.33301 140 8.5 261.5 29.5 364.5s53.833 188.333 98.5 256s101.334 118 170.001 151s150 49.5 244 49.5
c142 0 256.5 -34 343.5 -102s144.5 -168.667 172.5 -302l-147 -25c-22.667 99.333 -64 172.166 -124 218.499s-143 69.5 -249 69.5c-128.667 0 -224.834 -46.333 -288.501 -139s-97.834 -236.334 -102.501 -431.001l-1 -46c16.667 33.333 39 62.833 67 88.5
s60.167 47.334 96.5 65.001s76.166 31 119.499 40s88.666 13.5 135.999 13.5c75.333 0 144.166 -10.333 206.499 -31s115.833 -51 160.5 -91s79.5 -89.333 104.5 -148s37.5 -126.334 37.5 -203.001s-13.167 -144.5 -39.5 -203.5s-62.833 -108.833 -109.5 -149.5
s-102.334 -71.5 -167.001 -92.5s-135.667 -31.5 -213 -31.5zM672.004 111.001c58.667 0 111.167 7.66699 157.5 23s85.5 37.333 117.5 66s56.333 63.5 73 104.5s25 87.167 25 138.5s-8.5 97.666 -25.5 138.999s-41.5 76.333 -73.5 105s-71 50.667 -117 66
s-98.333 23 -157 23s-111 -7.66699 -157 -23s-85 -37.333 -117 -66s-56.333 -63.667 -73 -105s-25 -87.666 -25 -138.999s8.33301 -97.5 25 -138.5s41 -75.833 73 -104.5s71 -50.667 117 -66s98.333 -23 157 -23z" />
    <glyph glyph-name="seven" unicode="7" horiz-adv-x="1064" 
d="M200 0l604 1298h-724v142h884v-142l-604 -1298h-160z" />
    <glyph glyph-name="eight" unicode="8" horiz-adv-x="1269" 
d="M635 1469c70 0 133.827 -9.16602 191.494 -27.499s107.167 -45 148.5 -80s73.5 -77.667 96.5 -128s34.5 -107.166 34.5 -170.499c0 -35.333 -4.66699 -69.666 -14 -102.999s-22.833 -64 -40.5 -92s-39.167 -52.833 -64.5 -74.5s-54 -38.834 -86 -51.501
c36 -8.66699 69.167 -23.667 99.5 -45s56.5 -47 78.5 -77s39.167 -63.167 51.5 -99.5s18.5 -74.166 18.5 -113.499c0 -68 -12.667 -129 -38 -183s-60.666 -99.833 -105.999 -137.5s-99.5 -66.5 -162.5 -86.5s-132.167 -30 -207.5 -30c-76 0 -145.5 10 -208.5 30
s-117.167 48.833 -162.5 86.5s-80.666 83.5 -105.999 137.5s-38 115 -38 183c0 39.333 6.16699 77.166 18.5 113.499s29.5 69.333 51.5 99s48.167 55.167 78.5 76.5s63.5 36.666 99.5 45.999c-32 12.667 -60.667 29.834 -86 51.501s-46.666 46.5 -63.999 74.5
s-30.666 58.667 -39.999 92s-14 67.666 -14 102.999c0 63.333 11.333 120.166 34 170.499s54.834 93 96.501 128s91.334 61.667 149.001 80s121.5 27.5 191.5 27.5zM634.994 809.001c51.333 0 96.834 6.5 136.501 19.5s73.167 31 100.5 54s48.166 50.167 62.499 81.5
s21.5 65.333 21.5 102c0 40.667 -7.66699 77.334 -23 110.001s-37 60.334 -65 83.001s-61.833 40 -101.5 52s-83.5 18 -131.5 18s-91.833 -6 -131.5 -18s-73.5 -29.333 -101.5 -52s-49.667 -50.334 -65 -83.001s-23 -69.334 -23 -110.001c0 -36.667 7 -70.667 21 -102
s34.667 -58.5 62 -81.5s61 -41 101 -54s85.667 -19.5 137 -19.5zM634.995 668.001c-57.333 0 -108.5 -6 -153.5 -18s-83 -29.333 -114 -52s-54.667 -50.5 -71 -83.5s-24.5 -70.167 -24.5 -111.5c0 -44 8.5 -84 25.5 -120s41.333 -66.833 73 -92.5
s69.834 -45.334 114.501 -59.001s94.667 -20.5 150 -20.5s105.333 6.83301 150 20.5s82.667 33.334 114 59.001s55.333 56.5 72 92.5s25 76 25 120c0 41.333 -8.16699 78.5 -24.5 111.5s-39.833 60.833 -70.5 83.5s-68.334 40 -113.001 52s-95.667 18 -153 18z" />
    <glyph glyph-name="nine" unicode="9" horiz-adv-x="1342" 
d="M670.041 1469c92.6611 0 173.155 -13.501 241.484 -40.499c68.3291 -26.999 124.659 -68.1631 168.99 -123.493c44.3311 -55.3291 77.4961 -125.824 99.4951 -211.485s33.665 -186.821 34.998 -303.48c1.33301 -139.991 -8.5 -261.484 -29.499 -364.479
c-20.999 -102.993 -53.8301 -188.321 -98.4941 -255.984c-44.6641 -67.6621 -101.327 -117.992 -169.989 -150.99c-68.6631 -32.998 -149.991 -49.4971 -243.985 -49.4971c-141.991 0 -256.484 33.998 -343.479 101.994c-86.9941 67.9951 -144.49 168.655 -172.489 301.98
l146.991 24.998c22.665 -99.3271 63.9961 -172.156 123.992 -218.486c59.9971 -46.3311 142.992 -69.4961 248.985 -69.4961c128.659 0 224.82 46.3301 288.483 138.991s97.8271 236.319 102.493 430.974l1 45.998c-16.665 -33.3311 -38.9971 -62.8291 -66.9961 -88.4941
c-27.998 -25.665 -60.1631 -47.3301 -96.4941 -64.9951s-76.1621 -30.9971 -119.493 -39.9961s-88.6621 -13.499 -135.993 -13.499c-75.3291 0 -144.158 10.333 -206.487 30.998s-115.826 50.9961 -160.49 90.9932s-79.4951 89.3271 -104.493 147.99
c-24.999 58.6631 -37.498 126.325 -37.498 202.987s13.166 144.491 39.498 203.487c26.3311 58.9971 62.8291 108.827 109.493 149.491c46.6631 40.6641 102.326 71.4951 166.989 92.4941s135.659 31.498 212.988 31.498zM670.04 1328
c-58.6631 0 -111.159 -7.66602 -157.49 -22.999c-46.3311 -15.332 -85.4951 -37.3311 -117.493 -65.9961s-56.3301 -63.4961 -72.9951 -104.493c-16.666 -40.9971 -24.999 -87.1611 -24.999 -138.491c0 -51.3311 8.5 -97.6621 25.499 -138.993
s41.4971 -76.3291 73.4951 -104.994s70.9961 -50.6641 116.993 -65.9971s98.3271 -22.999 156.99 -22.999s110.993 7.66602 156.99 22.999s84.9951 37.332 116.993 65.9971s56.3301 63.6631 72.9951 104.994c16.666 41.3311 24.999 87.6621 24.999 138.993
c0 51.3301 -8.33301 97.4941 -24.999 138.491c-16.665 40.9971 -40.9971 75.8281 -72.9951 104.493s-70.9961 50.6641 -116.993 65.9961c-45.9971 15.333 -98.3271 22.999 -156.99 22.999z" />
    <glyph glyph-name="colon" unicode=":" horiz-adv-x="598" 
d="M220 0v171h171v-171h-171zM221 909v171h171v-171h-171z" />
    <glyph glyph-name="semicolon" unicode=";" horiz-adv-x="611" 
d="M220 909v171h171v-171h-171zM229 -136l7.99902 0.00195312c18 0 32.833 4.16699 44.5 12.5s19.667 20 24 35s6.5 33.167 6.5 54.5v9c-0.666992 4.66699 -1 9 -1 13v12h-91v211h171v-251c0 -40.667 -7 -74.834 -21 -102.501s-31.667 -46.334 -53 -56.001
s-41.666 -14.5 -60.999 -14.5c-11.333 0 -23.333 1.33301 -36 4z" />
    <glyph glyph-name="less" unicode="&#x3c;" horiz-adv-x="1229" 
d="M749 161l-469 469l469 469l94 -92l-382 -377l382 -377z" />
    <glyph glyph-name="equal" unicode="=" horiz-adv-x="1500" 
d="M240 827v126h1020v-126h-1020zM240 487v126h1020v-126h-1020z" />
    <glyph glyph-name="greater" unicode="&#x3e;" horiz-adv-x="1229" 
d="M480.046 161l468.972 469l-468.972 469l-93.9941 -92l381.977 -377l-381.977 -377z" />
    <glyph glyph-name="question" unicode="?" horiz-adv-x="1244" 
d="M1144 1010c0 -64 -9.66309 -121.333 -28.9961 -172s-47.5 -94 -84.5 -130s-82.167 -64.5 -135.5 -85.5s-114.333 -34.167 -183 -39.5v-225h-140v364h68c116 0 203.667 24.5 263 73.5s89 121.833 89 218.5c0 45.333 -8.33301 87.166 -25 125.499
s-40.334 71.5 -71.001 99.5s-67.5 50 -110.5 66s-90.833 24 -143.5 24c-56.667 0 -106.334 -6.16699 -149.001 -18.5s-79.834 -30.833 -111.501 -55.5s-58.334 -55.834 -80.001 -93.501s-39.5 -81.5 -53.5 -131.5l-148 25c16 70 39.833 131 71.5 183
s70.5 95.167 116.5 129.5s98.5 60 157.5 77s123.833 25.5 194.5 25.5c74 0 142 -11 204 -33s115.167 -53.167 159.5 -93.5s78.833 -88.666 103.5 -144.999s37 -119.166 37 -188.499zM572.004 0v165h140v-165h-140z" />
    <glyph glyph-name="at" unicode="@" horiz-adv-x="1599" 
d="M1308 182c-42.667 -70 -97.8369 -122.83 -165.504 -158.497s-148.167 -53.5 -241.5 -53.5c-59.333 0 -112.166 7.5 -158.499 22.5s-85.333 36.167 -117 63.5s-55.834 60.166 -72.501 98.499s-25 81.166 -25 128.499c0 60.667 11.5 111.5 34.5 152.5s54.5 74.667 94.5 101
s86.833 46.666 140.5 60.999s110.834 25.166 171.501 32.499l324 41c-4 48.667 -16.167 91.834 -36.5 129.501s-48.333 69.5 -84 95.5s-78.5 45.667 -128.5 59s-106.667 20 -170 20c-84.667 0 -162 -15 -232 -45s-130.167 -72.333 -180.5 -127s-89.333 -119.667 -117 -195
s-41.5 -158.666 -41.5 -249.999c0 -97.333 13.167 -184.333 39.5 -261s64.5 -141.667 114.5 -195s111 -94.166 183 -122.499s153.333 -42.5 244 -42.5c70.667 0 137.334 10.5 200.001 31.5s116 50.833 160 89.5l78 -119c-60 -46.667 -127.167 -82 -201.5 -106
s-152.5 -36 -234.5 -36c-111.333 0 -211.666 17.833 -300.999 53.5s-165.5 86.5 -228.5 152.5s-111.5 145.833 -145.5 239.5s-51 198.834 -51 315.501c0 111.333 17.5 213.166 52.5 305.499s84 171.5 147 237.5s138.333 117.333 226 154s184.5 55 290.5 55
c88.667 0 167.834 -10.833 237.501 -32.5s128.667 -53.334 177 -95.001s85.333 -92.334 111 -152.001s38.5 -127.5 38.5 -203.5v-627h-132v182zM981.997 511.003c-54.667 -6.66699 -101.5 -16.002 -140.5 -28.002s-71 -26.833 -96 -44.5s-43.167 -38.667 -54.5 -63
s-17 -52.5 -17 -84.5c0 -62.667 21 -110 63 -142s105.667 -48 191 -48c46.667 0 89.667 6.5 129 19.5s74 31.667 104 56s55.167 53.833 75.5 88.5s34.5 73.334 42.5 116.001c3.33301 13.333 6 27.5 8 42.5s3.5 29.833 4.5 44.5s1.66699 28.834 2 42.501s0.5 26.5 0.5 38.5z
" />
    <glyph glyph-name="A" unicode="A" horiz-adv-x="1268" 
d="M1230 0h-156l-122 349h-637l-122 -349h-155l505 1440h182zM904 487l-271 776l-270 -776h541z" />
    <glyph glyph-name="B" unicode="B" horiz-adv-x="1207" 
d="M644 0h-503.998v1440h489c69.333 0 133 -7.33301 191 -22s107.833 -37.167 149.5 -67.5s74.167 -68.833 97.5 -115.5s35 -101.667 35 -165c0 -45.333 -6.16699 -86 -18.5 -122s-29 -67.5 -50 -94.5s-45 -49.5 -72 -67.5s-55.5 -32 -85.5 -42c32 -6 64.167 -18 96.5 -36
s61.5 -41.667 87.5 -71s47.167 -64 63.5 -104s24.5 -85.667 24.5 -137c0 -70 -12.667 -130 -38 -180s-60.333 -91 -105 -123s-97.834 -55.5 -159.501 -70.5s-128.834 -22.5 -201.501 -22.5zM631.002 1299h-344.001v-488h385c39.333 0 76 5 110 15s63.5 25.333 88.5 46
s44.667 46.667 59 78s21.5 68.333 21.5 111c0 43.333 -7.83301 80 -23.5 110s-37.5 54.5 -65.5 73.5s-61.667 32.833 -101 41.5s-82.666 13 -129.999 13zM644.001 141c51.333 0 98.5 4.33496 141.5 13.002s80.167 23.167 111.5 43.5s55.833 47.666 73.5 81.999
s26.5 77.5 26.5 129.5c0 47.333 -8.83301 87.666 -26.5 120.999s-41.167 60.5 -70.5 81.5s-63.5 36.5 -102.5 46.5s-79.833 15 -122.5 15h-388v-532h357z" />
    <glyph glyph-name="C" unicode="C" horiz-adv-x="1431" 
d="M723 -30c-107.333 0 -202.331 18.3369 -284.998 55.0039s-152 88 -208 154s-98.333 145 -127 237s-43 193.333 -43 304s14.333 212 43 304s71 171 127 237s125.333 117.333 208 154s177.667 55 285 55c83.333 0 159.333 -11.167 228 -33.5s129.334 -54 182.001 -95
s97.167 -90.667 133.5 -149s64.5 -123.5 84.5 -195.5l-150 -39c-15.333 56.667 -36.666 107.834 -63.999 153.501s-61 84.667 -101 117s-86 57.166 -138 74.499s-110.333 26 -175 26c-83.333 0 -156.666 -14.833 -219.999 -44.5s-116.333 -71.334 -159 -125.001
s-74.834 -117.834 -96.501 -192.501s-32.5 -157 -32.5 -247s10.667 -172.333 32 -247s53.166 -138.834 95.499 -192.501s95.166 -95.334 158.499 -125.001s137.333 -44.5 222 -44.5c64.667 0 123 8.66699 175 26s98 42.166 138 74.499s73.667 71.333 101 117
s48.666 96.834 63.999 153.501l150 -39c-20 -72 -48.167 -137.167 -84.5 -195.5s-80.833 -108 -133.5 -149s-113.334 -72.667 -182.001 -95s-144.667 -33.5 -228 -33.5z" />
    <glyph glyph-name="D" unicode="D" horiz-adv-x="1343" 
d="M140 0v1440h417c229.333 0 403.333 -61.167 522 -183.5s178 -301.166 178 -536.499s-59.333 -414.166 -178 -536.499s-292.667 -183.5 -522 -183.5h-417zM291 140.998l250 -0.000976562c190 0 330.833 47.333 422.5 142s137.5 240.334 137.5 437.001
c0 196 -46 341.5 -138 436.5s-232.667 142.5 -422 142.5h-250v-1158z" />
    <glyph glyph-name="E" unicode="E" horiz-adv-x="1141" 
d="M140 0v1440h901v-141h-754v-498h634v-141h-634v-519h754v-141h-901z" />
    <glyph glyph-name="F" unicode="F" horiz-adv-x="1067" 
d="M140 0v1440h887v-141h-740v-542h614v-141h-614v-616h-147z" />
    <glyph glyph-name="G" unicode="G" horiz-adv-x="1421" 
d="M1193 242c-18.667 -42.667 -43.4941 -81.002 -74.4941 -115.002s-67.167 -62.5 -108.5 -85.5s-87.333 -40.667 -138 -53s-105 -18.5 -163 -18.5c-100 0 -190.167 17 -270.5 51s-148.5 83.167 -204.5 147.5s-99 143 -129 236s-45 198.167 -45 315.5
c0 115.333 15.333 219.166 46 311.499s74.667 170.833 132 235.5s126.666 114.5 207.999 149.5s172.333 52.5 273 52.5c69.333 0 134.166 -8.16699 194.499 -24.5s115 -41 164 -74s91.833 -74.333 128.5 -124s66.334 -107.5 89.001 -173.5l-147 -36
c-16 47.333 -37.833 89 -65.5 125s-59.834 66.333 -96.501 91s-77.334 43.167 -122.001 55.5s-92 18.5 -142 18.5c-80.667 0 -152.334 -13.667 -215.001 -41s-115.5 -67.166 -158.5 -119.499s-75.833 -116.666 -98.5 -192.999s-34 -163.5 -34 -261.5
c0 -94 11.167 -178.333 33.5 -253s54.833 -137.667 97.5 -189s95.167 -90.666 157.5 -117.999s133.5 -41 213.5 -41c77.333 0 144.833 11.667 202.5 35s105.667 56.5 144 99.5s67.166 95.167 86.499 156.5s29.666 130 30.999 206h-540v141h699v-749h-148v242z" />
    <glyph glyph-name="H" unicode="H" horiz-adv-x="1370" 
d="M140 0v1440h147v-649h796v649h147v-1440h-147v650h-796v-650h-147z" />
    <glyph glyph-name="I" unicode="I" horiz-adv-x="467" 
d="M160 0v1440h148v-1440h-148z" />
    <glyph glyph-name="J" unicode="J" horiz-adv-x="927" 
d="M386 -29c-48 0 -93.001 7.00098 -135.001 21.001s-79.667 33.833 -113 59.5s-61.666 56.5 -84.999 92.5s-41 76.333 -53 121l147 35c6 -26.667 16.167 -51.334 30.5 -74.001s32 -42.5 53 -59.5s44.667 -30.333 71 -40s54.166 -14.5 83.499 -14.5
c18.667 0 37.667 2.16699 57 6.5s38 11.166 56 20.499s35 21.333 51 36s29.333 32.334 40 53.001c14.667 28.667 23.167 59.834 25.5 93.501s3.5 74.167 3.5 121.5v997h147v-997c0 -28.667 -0.333008 -55.834 -1 -81.501s-2.5 -50.334 -5.5 -74.001
s-7.66699 -46.5 -14 -68.5s-15.166 -43.667 -26.499 -65c-32 -61.333 -76.333 -107.166 -133 -137.499s-123 -45.5 -199 -45.5z" />
    <glyph glyph-name="K" unicode="K" horiz-adv-x="1188" 
d="M140 1440h148v-683l657 683h188l-671 -695l726 -745h-192l-708 722v-722h-148v1440z" />
    <glyph glyph-name="L" unicode="L" horiz-adv-x="1021" 
d="M160 0v1440h147v-1299h684v-141h-831z" />
    <glyph glyph-name="M" unicode="M" horiz-adv-x="1615" 
d="M140 0v1440h145l523 -1112l520 1112h147v-1439h-147v1124l-451 -968h-138l-451 968v-1125h-148z" />
    <glyph glyph-name="N" unicode="N" horiz-adv-x="1369" 
d="M140 0v1440h147l794 -1185v1185h148v-1440h-148l-794 1185v-1185h-147z" />
    <glyph glyph-name="O" unicode="O" horiz-adv-x="1447" 
d="M723 -30c-107.333 0 -202.333 18.333 -285 55s-152 88 -208 154s-98.333 145 -127 237s-43 193.333 -43 304s14.333 212 43 304s71 171 127 237s125.333 117.333 208 154s177.667 55 285 55c108 0 203.333 -18.333 286 -55s152 -88 208 -154s98.333 -145 127 -237
s43 -193.333 43 -304s-14.333 -212 -43 -304s-71 -171 -127 -237s-125.333 -117.333 -208 -154s-178 -55 -286 -55zM723 111c84.667 0 158.666 14.833 221.999 44.5s116.166 71.334 158.499 125.001s74.166 117.834 95.499 192.501s32 157 32 247s-10.667 172.333 -32 247
s-53.166 138.834 -95.499 192.501s-95.166 95.334 -158.499 125.001s-137.333 44.5 -222 44.5s-158.5 -14.833 -221.5 -44.5s-115.5 -71.334 -157.5 -125.001s-73.667 -117.834 -95 -192.501s-32.333 -157 -33 -247s9.5 -172.333 30.5 -247s52.667 -138.834 95 -192.501
s95.333 -95.334 159 -125.001s137.834 -44.5 222.501 -44.5z" />
    <glyph glyph-name="P" unicode="P" horiz-adv-x="1209" 
d="M140 0l-0.000976562 1440h534c75.333 0 142.333 -10.333 201 -31s108.334 -50.334 149.001 -89.001s71.667 -85.667 93 -141s32 -117.333 32 -186s-10.667 -130.5 -32 -185.5s-52.333 -101.833 -93 -140.5s-90.5 -68.334 -149.5 -89.001s-125.833 -31 -200.5 -31h-386
v-547h-148zM287.999 687.002h385c51.333 0 97 7 137 21s74 34.167 102 60.5s49.333 58.333 64 96s22 80.5 22 128.5s-7.33301 91 -22 129s-36 70 -64 96s-62 46 -102 60s-85.667 21 -137 21h-385v-612z" />
    <glyph glyph-name="Q" unicode="Q" horiz-adv-x="1447" 
d="M1139 103c-53.333 -42.667 -114.669 -75.5 -184.002 -98.5s-146.666 -34.5 -231.999 -34.5c-107.333 0 -202.333 18.333 -285 55s-152 88 -208 154s-98.333 145 -127 237s-43 193.333 -43 304s14.333 212 43 304s71 171 127 237s125.333 117.333 208 154
s177.667 55 285 55c108 0 203.333 -18.333 286 -55s152 -88 208 -154s98.333 -145 127 -237s43 -193.333 43 -304c0 -104.667 -12.667 -200.5 -38 -287.5s-62.666 -163.167 -111.999 -228.5l132 -133l-98 -100zM722.997 111c64 0 121.664 8.33398 172.997 25.001
s97 41 137 73l-232 231l100 100l226 -227c34.667 52.667 60.667 113.334 78 182.001s26 143.667 26 225c0 90 -10.667 172.333 -32 247s-53.166 138.834 -95.499 192.501s-95.166 95.334 -158.499 125.001s-137.333 44.5 -222 44.5s-158.5 -14.833 -221.5 -44.5
s-115.5 -71.334 -157.5 -125.001s-73.667 -117.834 -95 -192.501s-32.333 -157 -33 -247s9.5 -172.333 30.5 -247s52.667 -138.834 95 -192.501s95.333 -95.334 159 -125.001s137.834 -44.5 222.501 -44.5z" />
    <glyph glyph-name="R" unicode="R" horiz-adv-x="1262" 
d="M649 547l-361.002 0.000976562v-547h-148v1440h534c75.333 0 142.333 -10.333 201 -31s108.334 -50.334 149.001 -89.001s71.667 -85.667 93 -141s32 -117.333 32 -186c0 -114.667 -29.167 -209.5 -87.5 -284.5s-141.166 -124.167 -248.499 -147.5l369 -561h-172z
M287.998 687.001h385c51.333 0 97 7 137 21s74 34.167 102 60.5s49.333 58.333 64 96s22 80.5 22 128.5s-7.33301 91 -22 129s-36 70 -64 96s-62 46 -102 60s-85.667 21 -137 21h-385v-612z" />
    <glyph glyph-name="S" unicode="S" horiz-adv-x="1233" 
d="M640 -30c-76 0 -146.164 9.66406 -210.497 28.9971s-121.333 47 -171 83s-91 79.5 -124 130.5s-55.5 108.5 -67.5 172.5l150 25c12 -47.333 30.667 -89.5 56 -126.5s56.333 -68.333 93 -94s78.5 -45.167 125.5 -58.5s98.5 -20 154.5 -20
c55.333 0 105.666 6.66699 150.999 20s84.166 32.166 116.499 56.499s57.5 53.5 75.5 87.5s27 71.667 27 113c0 110.667 -73.667 188 -221 232l-365 109c-204.667 60 -307 175.333 -307 346c0 58 12 111.167 36 159.5s57.5 89.833 100.5 124.5s94.667 61.667 155 81
s126.5 29 198.5 29s138.833 -9.66699 200.5 -29s116 -47.166 163 -83.499s86 -80.5 117 -132.5s52.5 -110.333 64.5 -175l-154 -28c-7.33301 46.667 -22 89 -44 127s-50.167 70.333 -84.5 97s-73.833 47.334 -118.5 62.001s-93.334 22 -146.001 22
c-50 0 -95.5 -6.33301 -136.5 -19s-76 -30.167 -105 -52.5s-51.5 -48.666 -67.5 -78.999s-24 -63.166 -24 -98.499c0 -28 4.66699 -53 14 -75s24.333 -42 45 -60s47.167 -34.5 79.5 -49.5s71.833 -29.5 118.5 -43.5l281 -82c116 -34 203.333 -82.333 262 -145
s88 -140 88 -232c0 -64 -12.5 -122 -37.5 -174s-60.5 -96.5 -106.5 -133.5s-101.333 -65.5 -166 -85.5s-136.667 -30 -216 -30z" />
    <glyph glyph-name="T" unicode="T" horiz-adv-x="1073" 
d="M467 0v1299h-447v141h1034v-141h-440v-1299h-147z" />
    <glyph glyph-name="U" unicode="U" horiz-adv-x="1404" 
d="M702 -30c-85.333 0 -162.664 13.167 -231.997 39.5s-128.5 64.833 -177.5 115.5s-86.667 112.5 -113 185.5s-39.5 156.167 -39.5 249.5v880h147v-877c0 -72.667 9.16699 -137.167 27.5 -193.5s45.166 -103.833 80.499 -142.5s78.666 -68 129.999 -88s110.333 -30 177 -30
s125.667 10 177 30s94.666 49.333 129.999 88s62.166 86.167 80.499 142.5s27.5 120.833 27.5 193.5v877h147v-880c0 -93.333 -13.167 -176.5 -39.5 -249.5s-64 -134.833 -113 -185.5s-108.167 -89.167 -177.5 -115.5s-146.666 -39.5 -231.999 -39.5z" />
    <glyph glyph-name="V" unicode="V" horiz-adv-x="1212" 
d="M515 0l-505 1440h155l440 -1263l441 1263h156l-505 -1440h-182z" />
    <glyph glyph-name="W" unicode="W" horiz-adv-x="1871" 
d="M445 0l-412 1440h153l337 -1195l335 1195h154l337 -1195l335 1195h154l-412 -1440h-155l-336 1188l-335 -1188h-155z" />
    <glyph glyph-name="X" unicode="X" horiz-adv-x="1212" 
d="M20 0l499 729l-486 711h178l395 -588l395 588h179l-486 -711l498 -729h-178l-408 605l-407 -605h-179z" />
    <glyph glyph-name="Y" unicode="Y" horiz-adv-x="1112" 
d="M483 0v603l-483 837h170l387 -669l385 669h170l-482 -837v-603h-147z" />
    <glyph glyph-name="Z" unicode="Z" horiz-adv-x="1261" 
d="M100 0v141l876 1158h-876v141h1061v-141l-876 -1158h876v-141h-1061z" />
    <glyph glyph-name="bracketleft" unicode="[" horiz-adv-x="814" 
d="M280 -436v2212h374v-136h-238v-1940h238v-136h-374z" />
    <glyph glyph-name="backslash" unicode="\" horiz-adv-x="775" 
d="M271 1440l384 -1440h-151l-384 1440h151z" />
    <glyph glyph-name="bracketright" unicode="]" horiz-adv-x="814" 
d="M534.018 -436v2212h-373.978v-136h237.985v-1940h-237.985v-136h373.978z" />
    <glyph glyph-name="asciicircum" unicode="^" horiz-adv-x="1339" 
d="M210.686 1002.19l468.57 469.4l469.43 -468.542l-91.9141 -94.0781l-377.35 381.632l-376.65 -382.322z" />
    <glyph glyph-name="underscore" unicode="_" horiz-adv-x="1320" 
d="M0 -213v126h1320v-126h-1320z" />
    <glyph glyph-name="grave" unicode="`" horiz-adv-x="979" 
d="M463 1610l-120 310h126l120 -310h-126z" />
    <glyph glyph-name="a" unicode="a" horiz-adv-x="1111" 
d="M561 1110c286.667 0 430.001 -149.668 430.001 -449.001v-661h-146v182c-38.667 -69.333 -91 -122 -157 -158s-144.333 -54 -235 -54c-58 0 -110 7.16699 -156 21.5s-85 35 -117 62s-56.667 59.833 -74 98.5s-26 82.334 -26 131.001c0 56.667 10.5 105.167 31.5 145.5
s50.667 74 89 101s84.666 48.5 138.999 64.5s114.5 28 180.5 36l325 41c0 106 -23 183.167 -69 231.5s-118.333 72.5 -217 72.5c-162.667 0 -262.334 -67.667 -299.001 -203l-139 33c25.333 98.667 75.833 174.167 151.5 226.5s171.834 78.5 288.501 78.5zM534.001 510.999
c-54.667 -6.66699 -101.499 -16 -140.499 -28s-71 -26.833 -96 -44.5s-43.167 -38.667 -54.5 -63s-17 -52.5 -17 -84.5c0 -126.667 84.333 -190 253 -190c46.667 0 89.667 6.5 129 19.5s74.166 31.667 104.499 56s55.5 53.833 75.5 88.5s34.333 73.334 43 116.001
c6.66699 27.333 10.667 56.166 12 86.499s2 57.5 2 81.5z" />
    <glyph glyph-name="b" unicode="b" horiz-adv-x="1233" 
d="M139 1440h146.998v-541c36 66 84.667 117.667 146 155s137.666 56 228.999 56c76 0 144.333 -13.833 205 -41.5s112.334 -66.5 155.001 -116.5s75.334 -110 98.001 -180s34 -147.667 34 -233c0 -83.333 -11.167 -159.833 -33.5 -229.5s-54.666 -129.667 -96.999 -180
s-94 -89.5 -155 -117.5s-129.833 -42 -206.5 -42c-90.667 0 -167 18.667 -229 56s-110.667 89 -146 155v-181h-147v1440zM640.998 969c-58.667 0 -110.167 -10.165 -154.5 -30.498s-81.333 -49.333 -111 -87s-52 -82.834 -67 -135.501s-22.5 -111.667 -22.5 -177
c0 -62.667 7.16699 -120.334 21.5 -173.001s36.166 -97.834 65.499 -135.501s66.166 -67 110.499 -88s96.833 -31.5 157.5 -31.5c59.333 0 111.333 10.167 156 30.5s81.834 49 111.501 86s51.834 82 66.501 135s22 111.833 22 176.5c0 64 -7.33301 122.333 -22 175
s-36.667 97.834 -66 135.501s-66.333 67 -111 88s-97 31.5 -157 31.5z" />
    <glyph glyph-name="c" unicode="c" horiz-adv-x="1107" 
d="M588 -30c-79.333 0 -150.333 13.502 -213 40.502s-115.834 65.333 -159.501 115s-77.167 109.667 -100.5 180s-35 148.5 -35 234.5c0 87.333 11.667 166 35 236s57 129.833 101 179.5s97.5 87.834 160.5 114.501s133.833 40 212.5 40c54.667 0 106.167 -7 154.5 -21
s92 -33.833 131 -59.5s72.833 -57 101.5 -94s50.334 -78.5 65.001 -124.5l-144 -46c-12.667 32 -29.334 60.667 -50.001 86s-44.167 46.666 -70.5 63.999s-55.5 30.666 -87.5 39.999s-65.667 14 -101 14c-56.667 0 -107 -10 -151 -30s-80.833 -48.5 -110.5 -85.5
s-52.167 -82 -67.5 -135s-23 -112.5 -23 -178.5c0 -64.667 7.5 -123.334 22.5 -176.001s37.167 -97.834 66.5 -135.501s66 -66.667 110 -87s95 -30.5 153 -30.5c74.667 0 137.334 16.833 188.001 50.5s89.667 82.834 117 147.501l148 -44
c-40.667 -96.667 -99.5 -170 -176.5 -220s-169.167 -75 -276.5 -75z" />
    <glyph glyph-name="d" unicode="d" 
d="M1094 1440l-0.000976562 -1440h-146v181c-36 -66.667 -84.833 -118.5 -146.5 -155.5s-138.167 -55.5 -229.5 -55.5c-76.667 0 -145.334 14 -206.001 42s-112.167 67.167 -154.5 117.5s-74.833 110.333 -97.5 180s-34 146.167 -34 229.5c0 85.333 11.333 163 34 233
s55.334 130 98.001 180s94.334 88.833 155.001 116.5s129 41.5 205 41.5c92 0 168.667 -18.667 230 -56s110 -89 146 -155v541h146zM591.999 969c-60 0 -112.165 -10.502 -156.498 -31.502s-81.333 -50.333 -111 -88s-51.834 -82.834 -66.501 -135.501s-22 -111 -22 -175
c0 -64.667 7.5 -123.5 22.5 -176.5s37.333 -98 67 -135s66.667 -65.667 111 -86s96.166 -30.5 155.499 -30.5c60.667 0 113.334 10.5 158.001 31.5s81.667 50.333 111 88s51.166 82.834 65.499 135.501s21.5 110.334 21.5 173.001c0 65.333 -7.5 124.333 -22.5 177
s-37.5 97.834 -67.5 135.501s-67.167 66.667 -111.5 87s-95.833 30.5 -154.5 30.5z" />
    <glyph glyph-name="e" unicode="e" horiz-adv-x="1169" 
d="M597 109c80.667 0 147.998 18 201.998 54s97 87.333 129 154l139 -51c-43.333 -95.333 -105.5 -168.5 -186.5 -219.5s-175.5 -76.5 -283.5 -76.5c-78 0 -148.833 13.5 -212.5 40.5s-118 65.167 -163 114.5s-79.833 109.166 -104.5 179.499s-37 148.833 -37 235.5
c0 87.333 12 166.166 36 236.499s58.333 130.166 103 179.499s98.334 87.333 161.001 114s133 40 211 40c81.333 0 153.333 -14 216 -42s115.334 -68.333 158.001 -121s74.5 -116.667 95.5 -192s30.167 -160.666 27.5 -255.999h-851
c3.33301 -61.333 14 -116.166 32 -164.499s42.5 -89.166 73.5 -122.499s68 -58.833 111 -76.5s90.833 -26.5 143.5 -26.5zM932.998 622c-9.33301 114 -43.332 201.167 -101.999 261.5s-138.667 90.5 -240 90.5c-100.667 0 -181.334 -30.667 -242.001 -92s-97 -148 -109 -260
h693z" />
    <glyph glyph-name="f" unicode="f" horiz-adv-x="709" 
d="M60 940v140h187v98c0 194.667 97.333 292 292 292h150v-124h-126c-30.667 0 -56.667 -3.16699 -78 -9.5s-38.833 -16.5 -52.5 -30.5s-23.5 -32.333 -29.5 -55s-9 -50 -9 -82v-89h295v-140h-295v-940h-147v940h-187z" />
    <glyph glyph-name="g" unicode="g" 
d="M572 1110c89.333 0 165.17 -18.0039 227.503 -54.0039s111.5 -86.667 147.5 -152v176h147v-1021c0 -83.333 -10.833 -159.833 -32.5 -229.5s-53.834 -129.667 -96.501 -180s-95.5 -89.5 -158.5 -117.5s-135.833 -42 -218.5 -42c-107.333 0 -200.5 25 -279.5 75
s-138.833 123.333 -179.5 220l147 44c28 -65.333 68.667 -114.666 122 -147.999s116.666 -50 189.999 -50c59.333 0 111.333 10.167 156 30.5s82 49.333 112 87s52.667 82.834 68 135.501s23 111.334 23 176.001v155c-36.667 -65.333 -86.167 -115.833 -148.5 -151.5
s-137.833 -53.5 -226.5 -53.5c-73.333 0 -140.333 13 -201 39s-112.5 62.833 -155.5 110.5s-76.333 105.334 -100 173.001s-35.5 143.167 -35.5 226.5c0 85.333 12 162 36 230s57.667 125.667 101 173s95.166 83.833 155.499 109.5s126.833 38.5 199.5 38.5z
M592.004 150.996c56 0 106 9.49902 150 28.499s81.167 46.333 111.5 82s53.5 78.667 69.5 129s24 106.5 24 168.5c0 64 -8.33301 121.5 -25 172.5s-40.334 94 -71.001 129s-68 61.833 -112 80.5s-93 28 -147 28c-56 0 -106 -9.5 -150 -28.5s-81.167 -46.333 -111.5 -82
s-53.666 -78.667 -69.999 -129s-24.5 -107.166 -24.5 -170.499c0 -64 8.16699 -121.333 24.5 -172s39.833 -93.5 70.5 -128.5s68 -61.667 112 -80s93.667 -27.5 149 -27.5z" />
    <glyph glyph-name="h" unicode="h" horiz-adv-x="1186" 
d="M919 593c0 67.333 -7.49902 124.67 -22.499 172.003s-36.333 86.166 -64 116.499s-60.667 52.5 -99 66.5s-80.833 21 -127.5 21c-46 0 -88.667 -7 -128 -21s-73.166 -36 -101.499 -66s-50.5 -68.833 -66.5 -116.5s-24 -105.167 -24 -172.5v-593h-147v1440h147v-521
c12.667 24 28.5 47.5 47.5 70.5s42.333 43.333 70 61s60.167 32 97.5 43s80.666 16.5 129.999 16.5c65.333 0 124.666 -9.83301 177.999 -29.5s99 -49.834 137 -90.501s67.5 -92.334 88.5 -155.001s31.5 -136.667 31.5 -222v-613h-147v593z" />
    <glyph glyph-name="i" unicode="i" horiz-adv-x="467" 
d="M160 1285v165h147v-165h-147zM160 0v1080h147v-1080h-147z" />
    <glyph glyph-name="j" unicode="j" horiz-adv-x="501" 
d="M201 1285v165h146v-165h-146zM-20 -479l0.00195312 140.001h52c31.333 0 57.666 3 78.999 9s38.666 15.667 51.999 29s23 30.666 29 51.999s9 47.666 9 78.999v1250h146v-1292c0 -83.333 -22.667 -148.666 -68 -195.999s-111.333 -71 -198 -71h-101z" />
    <glyph glyph-name="k" unicode="k" horiz-adv-x="990" 
d="M139 1440h147v-880l482 520h196l-506 -540l572 -540h-214l-530 520v-520h-147v1440z" />
    <glyph glyph-name="l" unicode="l" horiz-adv-x="467" 
d="M160 0v1470h147v-1470h-147z" />
    <glyph glyph-name="m" unicode="m" horiz-adv-x="1696" 
d="M784 643c0 63.333 -6.33887 115.833 -19.0059 157.5s-30.167 75 -52.5 100s-48.666 42.667 -78.999 53s-63.166 15.5 -98.499 15.5c-34.667 0 -67.167 -5.16699 -97.5 -15.5s-56.833 -28 -79.5 -53s-40.334 -58.333 -53.001 -100s-19 -94.167 -19 -157.5v-643h-147v1080
h147v-131c28 50 64.5 89.333 109.5 118s99.833 43 164.5 43c79.333 0 146.833 -16 202.5 -48s97.834 -82.333 126.501 -151c30 64.667 71 114 123 148s114 51 186 51c59.333 0 112.333 -8.66699 159 -26s86.334 -44.333 119.001 -81s57.5 -83 74.5 -139s25.5 -123 25.5 -201
v-663h-147v643c0 63.333 -6.33301 115.833 -19 157.5s-30.167 75 -52.5 100s-48.666 42.667 -78.999 53s-63.166 15.5 -98.499 15.5c-34.667 0 -67.167 -5.16699 -97.5 -15.5s-56.666 -28 -78.999 -53s-40 -58.333 -53 -100s-19.5 -94.167 -19.5 -157.5h-1v-643h-146v643z
" />
    <glyph glyph-name="n" unicode="n" horiz-adv-x="1186" 
d="M919 593c0 67.333 -7.49902 124.67 -22.499 172.003s-36.333 86.166 -64 116.499s-60.667 52.5 -99 66.5s-80.833 21 -127.5 21c-46 0 -88.667 -7 -128 -21s-73.166 -36 -101.499 -66s-50.5 -68.833 -66.5 -116.5s-24 -105.167 -24 -172.5v-593h-147v1080h147v-161
c12 24 27.5 47.5 46.5 70.5s42.5 43.333 70.5 61s60.667 32 98 43s80.666 16.5 129.999 16.5c65.333 0 124.666 -9.83301 177.999 -29.5s99 -49.834 137 -90.501s67.5 -92.334 88.5 -155.001s31.5 -136.667 31.5 -222v-613h-147v593z" />
    <glyph glyph-name="o" unicode="o" horiz-adv-x="1183" 
d="M591 -30c-80 0 -151.667 14 -215 42s-117 67.167 -161 117.5s-77.5 110.5 -100.5 180.5s-34.5 147 -34.5 231c0 84.667 11.833 162 35.5 232s57.5 130 101.5 180s97.667 88.667 161 116s134.333 41 213 41c80.667 0 152.667 -14 216 -42s117 -67 161 -117
s77.5 -109.833 100.5 -179.5s34.5 -146.5 34.5 -230.5c0 -84.667 -11.667 -162.167 -35 -232.5s-57 -130.5 -101 -180.5s-97.667 -88.833 -161 -116.5s-135 -41.5 -215 -41.5zM591 111c59.333 0 111.167 10.334 155.5 31.001s81.333 49.667 111 87s52 82.5 67 135.5
s22.5 111.833 22.5 176.5c0 66 -7.5 125.333 -22.5 178s-37.5 97.5 -67.5 134.5s-67.167 65.5 -111.5 85.5s-95.833 30 -154.5 30c-59.333 0 -111.166 -10.167 -155.499 -30.5s-81.333 -49.333 -111 -87s-51.834 -82.834 -66.501 -135.501s-22 -111 -22 -175
c0 -66 7.66699 -125.5 23 -178.5s37.833 -98.167 67.5 -135.5s66.667 -66 111 -86s95.5 -30 153.5 -30z" />
    <glyph glyph-name="p" unicode="p" 
d="M140 -480l0.00195312 1560h147v-181c35.333 66 84 117.667 146 155s138.333 56 229 56c76.667 0 145.5 -14 206.5 -42s112.667 -67.167 155 -117.5s74.666 -110.333 96.999 -180s33.5 -146.167 33.5 -229.5c0 -84.667 -11.333 -162.167 -34 -232.5
s-55.334 -130.5 -98.001 -180.5s-94.334 -88.833 -155.001 -116.5s-129 -41.5 -205 -41.5c-91.333 0 -167.666 18.667 -228.999 56s-110 89 -146 155v-661h-147zM642.002 111c60 0 112.333 10.498 157 31.498s81.667 50.333 111 88s51.333 82.834 66 135.501s22 111 22 175
c0 65.333 -7.33301 124.333 -22 177s-36.834 97.5 -66.501 134.5s-66.834 65.667 -111.501 86s-96.667 30.5 -156 30.5c-60.667 0 -113.167 -10.5 -157.5 -31.5s-81.166 -50.333 -110.499 -88s-51.166 -82.667 -65.499 -135s-21.5 -110.166 -21.5 -173.499
c0 -64.667 7.5 -123.5 22.5 -176.5s37.333 -98.333 67 -136s66.667 -66.667 111 -87s95.833 -30.5 154.5 -30.5z" />
    <glyph glyph-name="q" unicode="q" 
d="M1094 -480h-146.997v661c-35.333 -66.667 -83.833 -118.5 -145.5 -155.5s-138.167 -55.5 -229.5 -55.5c-76 0 -144.333 13.833 -205 41.5s-112.334 66.5 -155.001 116.5s-75.334 110.167 -98.001 180.5s-34 147.833 -34 232.5c0 83.333 11.167 159.833 33.5 229.5
s54.666 129.667 96.999 180s94 89.5 155 117.5s129.833 42 206.5 42c90.667 0 167 -18.667 229 -56s110.667 -89 146 -155v181h147v-1560zM592.003 111c58.667 0 110.163 10.1689 154.496 30.502s81.333 49.333 111 87s52 83 67 136s22.5 111.833 22.5 176.5
c0 63.333 -7.16699 121.166 -21.5 173.499s-36.166 97.333 -65.499 135s-66.166 67 -110.499 88s-96.833 31.5 -157.5 31.5c-59.333 0 -111.166 -10.167 -155.499 -30.5s-81.333 -49 -111 -86s-52 -81.833 -67 -134.5s-22.5 -111.667 -22.5 -177
c0 -64 7.33301 -122.333 22 -175s36.834 -97.834 66.501 -135.501s66.667 -67 111 -88s96.5 -31.5 156.5 -31.5z" />
    <glyph glyph-name="r" unicode="r" horiz-adv-x="721" 
d="M671 965c-9.33301 2 -19.332 3.16699 -29.999 3.5s-22.334 0.5 -35.001 0.5c-46 0 -88.667 -7 -128 -21s-73.166 -36 -101.499 -66s-50.5 -68.833 -66.5 -116.5s-24 -105.167 -24 -172.5v-593h-147v1080h147v-161c12.667 24 28.5 47.5 47.5 70.5s42.333 43.333 70 61
s60.167 32 97.5 43s80.666 16.5 129.999 16.5h20c6 0 12.667 -0.333008 20 -1v-144z" />
    <glyph glyph-name="s" unicode="s" horiz-adv-x="1050" 
d="M544 -29c-126 0 -228.332 25.8301 -306.999 77.4971s-131 129.167 -157 232.5l152 27c19.333 -68.667 55.333 -119.667 108 -153s121.334 -50 206.001 -50c85.333 0 151.833 16.5 199.5 49.5s71.5 79.833 71.5 140.5c0 16 -1.83301 30.667 -5.5 44s-10 25.833 -19 37.5
s-20.833 22.667 -35.5 33s-33.334 19.833 -56.001 28.5c-20 8 -46.5 17 -79.5 27s-70.5 20.667 -112.5 32c-51.333 14 -100.833 28.833 -148.5 44.5s-89.834 35 -126.501 58s-66 51.333 -88 85s-33 74.834 -33 123.501c0 44 10.167 84.5 30.5 121.5s48.833 68.833 85.5 95.5
s80.5 47.5 131.5 62.5s106.833 22.5 167.5 22.5c59.333 0 114.333 -7.5 165 -22.5s95.167 -36.167 133.5 -63.5s69.666 -60.5 93.999 -99.5s39.833 -82.167 46.5 -129.5l-150 -27c-4.66699 32.667 -15.167 61.834 -31.5 87.501s-37.166 47.5 -62.499 65.5s-55 31.667 -89 41
s-71.667 14 -113 14c-36.667 0 -70.667 -4.16699 -102 -12.5s-58.666 -19.666 -81.999 -33.999s-41.666 -31.666 -54.999 -51.999s-20 -42.5 -20 -66.5c0 -28 8.66699 -51.667 26 -71s39 -35.5 65 -48.5s54.5 -24 85.5 -33s60.5 -17.167 88.5 -24.5
c37.333 -10 74.666 -21 111.999 -33s72 -23.667 104 -35c80.667 -28.667 138.5 -64.334 173.5 -107.001s52.5 -96.334 52.5 -161.001c0 -50.667 -9.83301 -96.167 -29.5 -136.5s-47.834 -74.666 -84.501 -102.999s-81.167 -50 -133.5 -65s-111.5 -22.5 -177.5 -22.5z" />
    <glyph glyph-name="t" unicode="t" horiz-adv-x="801" 
d="M20 1080h231.001v361h146v-361h331v-140h-331v-633c0 -62 12.833 -106 38.5 -132s69.167 -39 130.5 -39h162v-136h-201c-42.667 0 -81.167 6.16699 -115.5 18.5s-63.333 30 -87 53s-41.834 51 -54.501 84s-19 70.167 -19 111.5v673h-231v140z" />
    <glyph glyph-name="u" unicode="u" horiz-adv-x="1187" 
d="M266 487c0 -66.667 7.66699 -123.835 23 -171.502s36.666 -86.667 63.999 -117s60.333 -52.5 99 -66.5s81.334 -21 128.001 -21c46 0 88.667 7 128 21s73.166 36 101.499 66s50.5 68.833 66.5 116.5s24 105.167 24 172.5v593h146v-1080h-146v161
c-12.667 -24 -28.5 -47.5 -47.5 -70.5s-42.5 -43.333 -70.5 -61s-60.667 -32 -98 -43s-80.666 -16.5 -129.999 -16.5c-64.667 0 -123.667 9.83301 -177 29.5s-99 49.834 -137 90.501s-67.5 92.334 -88.5 155.001s-31.5 136.667 -31.5 222v613h146v-593z" />
    <glyph glyph-name="v" unicode="v" horiz-adv-x="1016" 
d="M432 0l-392 1080h150l318 -891l318 891h150l-392 -1080h-152z" />
    <glyph glyph-name="w" unicode="w" horiz-adv-x="1539" 
d="M770 841l-247 -841h-152l-331 1080h149l258 -864l256 864h134l256 -864l257 864h149l-330 -1080h-152z" />
    <glyph glyph-name="x" unicode="x" horiz-adv-x="1054" 
d="M20 0l422 546l-413 534h176l323 -421l320 421h176l-413 -534l423 -546h-177l-329 433l-331 -433h-177z" />
    <glyph glyph-name="y" unicode="y" horiz-adv-x="1055" 
d="M294 -480l178 482l-439 1078h156l354 -888l328 888h150l-580 -1560h-147z" />
    <glyph glyph-name="z" unicode="z" horiz-adv-x="1039" 
d="M40 0v140l730 800h-730v140h919v-140l-729 -800h729v-140h-919z" />
    <glyph glyph-name="braceleft" unicode="{" horiz-adv-x="839" 
d="M633 -436c-46 0 -87.001 10.1689 -123.001 30.502s-64.167 48.5 -84.5 84.5s-30.5 76.667 -30.5 122v652c0 20.667 -6 40 -18 58l-85 119c-8 12 -12 25.333 -12 40s4 28 12 40l85 119c12 19.333 18 38.666 18 57.999v651c0 45.333 10 86.166 30 122.499
s48.167 64.666 84.5 84.999s77.5 30.5 123.5 30.5h119v-141h-113c-28 0 -52.167 -10 -72.5 -30s-30.5 -44.667 -30.5 -74v-644c0 -51.333 -15 -98 -45 -140l-55 -77l55 -77c30 -42 45 -88.667 45 -140v-646c0 -18.667 4.66699 -35.667 14 -51s21.833 -27.666 37.5 -36.999
s32.834 -14 51.501 -14h113v-141h-119z" />
    <glyph glyph-name="bar" unicode="|" horiz-adv-x="507" 
d="M180 0v1440h147v-1440h-147z" />
    <glyph glyph-name="braceright" unicode="}" horiz-adv-x="839" 
d="M87 -436l-0.000976562 140.998h113c18.667 0 35.834 4.66699 51.501 14s28.167 21.666 37.5 36.999s14 32.333 14 51v646c0 51.333 15 98 45 140l55 77l-55 77c-30 42 -45 88.667 -45 140v644c0 29.333 -10.167 54 -30.5 74s-44.5 30 -72.5 30h-113v141h119
c46 0 87.167 -10.167 123.5 -30.5s64.5 -48.666 84.5 -84.999s30 -77.166 30 -122.499v-651c0 -19.333 6 -38.666 18 -57.999l85 -119c8 -12 12 -25.333 12 -40s-4 -28 -12 -40l-85 -119c-12 -18 -18 -37.333 -18 -58v-652c0 -45.333 -10.167 -86 -30.5 -122
s-48.5 -64.167 -84.5 -84.5s-77 -30.5 -123 -30.5h-119z" />
    <glyph glyph-name="asciitilde" unicode="~" horiz-adv-x="1324" 
d="M873 466c-26.667 0 -53.499 4.16797 -80.499 12.501s-52.5 18.5 -76.5 30.5s-52.667 28 -86 48c-39.333 23.333 -72 40.666 -98 51.999s-50.333 17 -73 17c-23.333 0 -41.5 -6.66699 -54.5 -20s-20.167 -26.5 -21.5 -39.5s-2 -22.167 -2 -27.5
c0 -16 2.66699 -32.667 8 -50h-146c-7.33301 30 -11 58.333 -11 85c0 24 4.5 52.833 13.5 86.5s31.5 64 67.5 91s81 40.5 135 40.5c27.333 0 54.833 -4.33301 82.5 -13s53.167 -18.834 76.5 -30.501s52.666 -27.5 87.999 -47.5c40.667 -24 73.5 -41.5 98.5 -52.5
s48.833 -16.5 71.5 -16.5c21.333 0 38.666 6.33301 51.999 19s21 26 23 40s3 24.333 3 31c0 16 -2.66699 32.667 -8 50h146c7.33301 -30 11 -58.333 11 -85c0 -24 -4.5 -53.167 -13.5 -87.5s-31.667 -65.166 -68 -92.499s-82.166 -41 -137.499 -41z" />
    <glyph glyph-name="uni00A0" unicode="&#xa0;" horiz-adv-x="400" 
 />
    <glyph glyph-name="exclamdown" unicode="&#xa1;" horiz-adv-x="627" 
d="M240 720.021v-1079.93h140v1079.93h-140zM240 1080v-164.99h140v164.99h-140z" />
    <glyph glyph-name="cent" unicode="&#xa2;" horiz-adv-x="1107" 
d="M531 123c-95.333 8.66699 -176.502 37.833 -243.502 87.5s-118 115.667 -153 198s-53.167 176.166 -54.5 281.499c1.33301 106.667 19.666 201 54.999 283s86.5 147.5 153.5 196.5s147.833 77.833 242.5 86.5v184h126v-185c92.667 -10.667 173 -41.667 241 -93
s115.667 -118.333 143 -201l-144 -46c-25.333 64 -65.333 114 -120 150s-117.667 54 -189 54c-115.333 0 -202.5 -38.667 -261.5 -116s-89.167 -181.666 -90.5 -312.999c0.666992 -87.333 14.334 -163.166 41.001 -227.499s66.334 -114 119.001 -149
s116.667 -52.5 192 -52.5c72.667 0 134.834 16.667 186.501 50s91.167 82.666 118.5 147.999l148 -44c-36.667 -84.667 -87.5 -151.667 -152.5 -201s-142.167 -79 -231.5 -89v-184h-126v182z" />
    <glyph glyph-name="sterling" unicode="&#xa3;" horiz-adv-x="1246" 
d="M67 141l113.001 0.000976562c30.667 19.333 55 42.333 73 69s29.833 58.334 35.5 95.001s5 79 -2 127s-19.833 102.667 -38.5 164l-14 44h-158v141l114 -1c-10.667 32 -21 69.167 -31 111.5s-15 91.5 -15 147.5c0 68 11.5 128.667 34.5 182s56 98.333 99 135
s95.5 64.667 157.5 84s131.667 29 209 29c70 0 135.333 -10 196 -30s114.5 -48.5 161.5 -85.5s85.833 -81.167 116.5 -132.5s51 -108.666 61 -171.999l-154 -28c-8 48.667 -23.5 92 -46.5 130s-51.833 70.167 -86.5 96.5s-74 46.333 -118 60s-90.667 20.5 -140 20.5
c-46 0 -89.333 -5.83301 -130 -17.5s-76.167 -29.334 -106.5 -53.001s-54.333 -53.5 -72 -89.5s-26.5 -78 -26.5 -126c0 -30 1.33301 -56.333 4 -79s6.16699 -43.667 10.5 -63s9.66602 -38.333 15.999 -57s12.833 -39.334 19.5 -62.001h575v-141h-533l12 -43
c30.667 -102 44.167 -191.833 40.5 -269.5s-24.167 -139.834 -61.5 -186.501h767v-141h-1082v141z" />
    <glyph glyph-name="currency" unicode="&#xa4;" horiz-adv-x="1283" 
d="M641 196c-94.667 0 -182.002 23.665 -262.002 70.998c-19.333 11.333 -37.666 23.666 -54.999 36.999l-164 -164l-100 100l165 165c-13.333 16.667 -25.666 34.667 -36.999 54c-47.333 80 -71 167.667 -71 263c0 94.667 23.667 182 71 262
c11.333 18.667 23.333 36.334 36 53.001l-164 164l100 99l163 -163c18 13.333 36.667 26 56 38c80 47.333 167.333 71 262 71c95.333 0 183.333 -23.667 264 -71c19.333 -11.333 37.666 -23.666 54.999 -36.999l163 162l100 -99l-163 -163
c12.667 -17.333 24.667 -35.333 36 -54c47.333 -80 71 -167.333 71 -262c0 -95.333 -23.667 -183 -71 -263c-11.333 -19.333 -23.666 -38 -36.999 -56l164 -163l-100 -100l-164 164c-17.333 -13.333 -35.333 -25.666 -54 -36.999c-80.667 -47.333 -168.667 -71 -264 -71z
M640.998 327.998c71.333 0 137.168 17.832 197.501 53.499s108.166 83.667 143.499 144s53 125.166 53 194.499c0 71.333 -18 137 -54 197s-84.167 107.667 -144.5 143s-125.5 53 -195.5 53c-71.333 0 -137 -17.5 -197 -52.5s-107.5 -82.667 -142.5 -143
s-52.5 -126.166 -52.5 -197.499c0 -69.333 17.667 -134.166 53 -194.499s83 -108.333 143 -144s125.333 -53.5 196 -53.5z" />
    <glyph glyph-name="yen" unicode="&#xa5;" horiz-adv-x="1112" 
d="M177 517v126h283l-460 797h170l387 -669l385 669h170l-459 -797h284v-126h-306v-166h306v-126h-306v-225h-148v225h-306v126h306v166h-306z" />
    <glyph glyph-name="brokenbar" unicode="&#xa6;" horiz-adv-x="507" 
d="M180 701v739h147v-739h-147zM180 -312v739h147v-739h-147z" />
    <glyph glyph-name="section" unicode="&#xa7;" horiz-adv-x="1050" 
d="M548 -309c-69.333 0 -134.166 10.999 -194.499 32.999s-112 56.167 -155 102.5s-71.5 104.5 -85.5 174.5l150 25c12 -45.333 33.333 -83 64 -113s66 -52.167 106 -66.5s80.667 -21.5 122 -21.5c43.333 0 83.333 7.5 120 22.5s66 37 88 66s33 63.5 33 103.5
c0 38 -10.5 68 -31.5 90s-50.667 40.333 -89 55s-99.166 33 -182.499 55l-17 4c-90.667 24.667 -162 48.167 -214 70.5s-93.167 51.5 -123.5 87.5s-45.5 81.333 -45.5 136c0 62.667 18.5 115.5 55.5 158.5s84.833 73.833 143.5 92.5c6.66699 2 13 3.66699 19 5
c-5.33301 2.66699 -10.666 5 -15.999 7c-52 22.667 -93 52.334 -123 89.001s-45 84 -45 142c0 65.333 18.333 121.333 55 168s84.334 81.667 143.001 105s120.667 35 186 35c69.333 0 133.666 -13 192.999 -39s108.333 -62.833 147 -110.5s61.667 -102.834 69 -165.501
l-150 -27c-8.66699 48.667 -26.834 88.5 -54.501 119.5s-60.167 53.5 -97.5 67.5s-76.333 21 -117 21s-78.334 -6.83301 -113.001 -20.5s-62.167 -33 -82.5 -58s-30.5 -53.833 -30.5 -86.5c0 -30.667 9 -56.167 27 -76.5s42.5 -37.166 73.5 -50.499s71.833 -27 122.5 -41
c48.667 -12 79.667 -20 93 -24c93.333 -24.667 166.333 -48.167 219 -70.5s94.5 -53 125.5 -92s46.5 -90.167 46.5 -153.5c0 -66 -16.333 -122 -49 -168c-30.667 -42 -71.334 -72 -122.001 -90c36.667 -20 67 -45.333 91 -76c31.333 -39.333 47 -91 47 -155
c0 -70 -17.5 -129.833 -52.5 -179.5s-82.833 -87.167 -143.5 -112.5s-129 -38 -205 -38zM470 361.999c1.33301 0 30.668 -7.66699 88.001 -23c40 -10 76.333 -20.333 109 -31c16.667 4.66699 33 11.334 49 20.001c33.333 16.667 60.5 40.167 81.5 70.5s31.5 65.5 31.5 105.5
c0 38 -10.5 68 -31.5 90s-50.667 40.167 -89 54.5s-98.833 32.5 -181.5 54.5l-18 5l-63 18c-56.667 -18.667 -103 -42.334 -139 -71.001c-43.333 -34.667 -65 -76 -65 -124c0 -30.667 9.16699 -56.167 27.5 -76.5s43.166 -37.333 74.499 -51s73.333 -27.5 126 -41.5z" />
    <glyph glyph-name="dieresis" unicode="&#xa8;" horiz-adv-x="1021" 
d="M621 1651v160h160v-160h-160zM240 1651v160h160v-160h-160z" />
    <glyph glyph-name="copyright" unicode="&#xa9;" horiz-adv-x="1607" 
d="M803 -53c-134.667 0 -258.834 33.333 -372.501 100s-203.834 156.834 -270.501 270.501s-100 237.834 -100 372.501s33.333 258.834 100 372.501s156.834 203.834 270.501 270.501s237.834 100 372.501 100s259 -33.333 373 -100s204.333 -156.834 271 -270.501
s100 -237.834 100 -372.501s-33.333 -258.834 -100 -372.501s-157 -203.834 -271 -270.501s-238.333 -100 -373 -100zM803 90c108.667 0 208.834 26.833 300.501 80.5s164.334 126.667 218.001 219s80.5 192.833 80.5 301.5s-26.833 208.834 -80.5 300.501
s-126.334 164.334 -218.001 218.001s-191.834 80.5 -300.501 80.5s-209.167 -26.833 -301.5 -80.5s-165.333 -126.334 -219 -218.001s-80.5 -191.834 -80.5 -300.501s26.833 -209.167 80.5 -301.5s126.667 -165.333 219 -219s192.833 -80.5 301.5 -80.5zM812 269
c-61.333 0 -116.001 10.501 -164.001 31.501s-89.667 53.833 -125 98.5c-33.333 41.333 -56.833 86.5 -70.5 135.5s-20.5 101.833 -20.5 158.5c0.666992 56.667 8 109.5 22 158.5s37 92.833 69 131.5c35.333 44.667 77.333 77.667 126 99s105 32 169 32
c37.333 0 71.833 -4 103.5 -12s62.834 -21 93.501 -39c32.667 -20.667 61.167 -46.167 85.5 -76.5s41.833 -64.5 52.5 -102.5l-123 -37c-8.66699 21.333 -20.334 41.5 -35.001 60.5s-31.334 35.5 -50.001 49.5c-36.667 26 -80.667 39 -132 39
c-38.667 0 -74 -7.66699 -106 -23s-59.333 -37.333 -82 -66c-21.333 -27.333 -36.666 -59.333 -45.999 -96s-14 -75.667 -14 -117c0 -42.667 5 -82.834 15 -120.501s25 -69.834 45 -96.501c21.333 -29.333 48 -51.666 80 -66.999s68 -23 108 -23c52 0 96.667 12.667 134 38
c18 13.333 33.5 28.333 46.5 45s24.167 36.667 33.5 60l126 -34c-14 -36.667 -32.167 -69.167 -54.5 -97.5s-46.5 -51.5 -72.5 -69.5c-30.667 -20 -63.167 -35 -97.5 -45s-73.166 -15 -116.499 -15z" />
    <glyph glyph-name="ordfeminine" unicode="&#xaa;" horiz-adv-x="630" 
d="M529 1006c8.66699 -17.333 13.998 -36 15.998 -56s3 -41 3 -63v-332h-92v79c-22.667 -32 -49.667 -55.667 -81 -71s-69 -23 -113 -23c-56 0 -100.5 14.333 -133.5 43s-49.5 67.667 -49.5 117c0 100 71 159 213 177l153 19c-0.666992 80 -41 120 -121 120
c-34 0 -61.5 -6.66699 -82.5 -20s-36.167 -35 -45.5 -65l-97 27c13.333 46 38.5 82.667 75.5 110s86.833 41 149.5 41c48.667 0 90.834 -8.16699 126.501 -24.5s61.834 -42.5 78.501 -78.5zM307.998 801c-44 -5.33301 -76 -15.5 -96 -30.5s-30 -35.833 -30 -62.5
c0 -53.333 34.667 -80 104 -80c38 0 70 9.5 96 28.5s43.333 44.167 52 75.5c5.33301 13.333 8.5 27.333 9.5 42s1.5 28 1.5 40v4z" />
    <glyph glyph-name="guillemotleft" unicode="&#xab;" horiz-adv-x="1071" 
d="M849 106l-346 435l346 434l89 -69l-291 -365l291 -366zM506 106l-346 435l346 434l89 -69l-292 -365l292 -366z" />
    <glyph glyph-name="logicalnot" unicode="&#xac;" horiz-adv-x="1200" 
d="M954 390v247h-834v126h960v-373h-126z" />
    <glyph glyph-name="uni00AD" unicode="&#xad;" horiz-adv-x="840" 
d="M120 567v126h600v-126h-600z" />
    <glyph glyph-name="registered" unicode="&#xae;" horiz-adv-x="1250" 
d="M625 575c-88 0 -169 21.667 -243 65s-132.833 102.166 -176.5 176.499s-65.5 155.833 -65.5 244.5c0 87.333 21.833 168 65.5 242s102.5 132.833 176.5 176.5s155 65.5 243 65.5s169 -21.833 243 -65.5s132.833 -102.5 176.5 -176.5s65.5 -154.667 65.5 -242
c0 -88.667 -21.833 -170.167 -65.5 -244.5s-102.5 -133.166 -176.5 -176.499s-155 -65 -243 -65zM626 689c66.667 0 128.334 16.667 185.001 50s101.667 78.5 135 135.5s50 119.167 50 186.5c0 66.667 -16.667 128.334 -50 185.001s-78.333 101.667 -135 135
s-118.334 50 -185.001 50c-67.333 0 -129.5 -16.667 -186.5 -50s-102 -78.333 -135 -135s-49.5 -118.334 -49.5 -185.001c0 -67.333 16.5 -129.5 49.5 -186.5s78 -102.167 135 -135.5s119.167 -50 186.5 -50zM462 831l-0.000976562 465h203c28 0 53.833 -6.66699 77.5 -20
s42.334 -31.5 56.001 -54.5s20.5 -48.5 20.5 -76.5s-7.5 -54.5 -22.5 -79.5s-36.167 -43.833 -63.5 -56.5l88 -178h-95l-80 163h-99v-163h-85zM657.999 1071c20.667 0 38.333 7 53 21s22 31.667 22 53c0 22.667 -7.5 40.667 -22.5 54s-32.5 20 -52.5 20h-111v-148h111z" />
    <glyph glyph-name="macron" unicode="&#xaf;" horiz-adv-x="981" 
d="M240 1680v125h501v-125h-501z" />
    <glyph glyph-name="degree" unicode="&#xb0;" horiz-adv-x="900" 
d="M420 750c-65.333 0 -125.499 15.999 -180.499 47.999s-98.667 75.667 -131 131s-48.5 115.666 -48.5 180.999c0 64 16.5 123.667 49.5 179s77.167 99.333 132.5 132s114.666 49 177.999 49c65.333 0 125.5 -16 180.5 -48s98.667 -75.667 131 -131
s48.5 -115.666 48.5 -180.999s-16.167 -125.666 -48.5 -180.999s-76 -99 -131 -131s-115.167 -48 -180.5 -48zM420.001 882.999c40.667 0 78.334 10.333 113.001 31s62.334 48.334 83.001 83.001s31 72.334 31 113.001s-10.333 78.334 -31 113.001
s-48.334 62.334 -83.001 83.001s-72.334 31 -113.001 31s-78.334 -10.333 -113.001 -31s-62.334 -48.334 -83.001 -83.001s-31 -72.334 -31 -113.001s10.333 -78.334 31 -113.001s48.334 -62.334 83.001 -83.001s72.334 -31 113.001 -31z" />
    <glyph glyph-name="plusminus" unicode="&#xb1;" horiz-adv-x="1200" 
d="M537 440v257h-417v126h417v257h126v-257h417v-126h-417v-257h-126zM120 157v126h960v-126h-960z" />
    <glyph glyph-name="twosuperior" unicode="&#xb2;" horiz-adv-x="829" 
d="M117 646l381.995 355.996c39.333 37.333 68 71.5 86 102.5s27 63.5 27 97.5c0 24.667 -4.66699 46.334 -14 65.001s-22.166 34.5 -38.499 47.5s-35.666 22.833 -57.999 29.5s-46.5 10 -72.5 10c-57.333 0 -104.666 -16 -141.999 -48s-60.666 -75.667 -69.999 -131
l-117 22c8 40.667 21.5 77.334 40.5 110.001s42.667 60.334 71 83.001s60.833 40 97.5 52s76.334 18 119.001 18s82.334 -5.5 119.001 -16.5s68.5 -27.5 95.5 -49.5s48.167 -49.167 63.5 -81.5s22.666 -69.5 21.999 -111.5c-0.666992 -48 -13.667 -94.167 -39 -138.5
s-58 -85.166 -98 -122.499l-315 -294h452v-106h-611v106z" />
    <glyph glyph-name="threesuperior" unicode="&#xb3;" horiz-adv-x="866" 
d="M746 811c0 -44.667 -7.83105 -85.001 -23.498 -121.001s-37.834 -66.667 -66.501 -92s-62.667 -44.833 -102 -58.5s-82.666 -20.5 -129.999 -20.5c-43.333 0 -83.833 5.33301 -121.5 16s-71.334 27 -101.001 49s-54.834 50 -75.501 84s-36 74 -46 120l113 18
c15.333 -59.333 41 -104.333 77 -135s88 -46 156 -46c30.667 0 58.5 4.66699 83.5 14s46.5 22.166 64.5 38.499s31.833 35.5 41.5 57.5s14.5 46 14.5 72c0 56.667 -17.667 99.334 -53 128.001s-86.333 43 -153 43h-92v93l242 263h-443v106h581v-106l-247 -264
c91.333 -5.33301 161 -29.666 209 -72.999s72 -105.333 72 -186z" />
    <glyph glyph-name="acute" unicode="&#xb4;" horiz-adv-x="979" 
d="M517 1610h-126l119 310h126z" />
    <glyph glyph-name="uni00B5" unicode="&#xb5;" horiz-adv-x="1207" 
d="M1067 1080v-1080h-147v161c-12.667 -24 -28.5 -47.5 -47.5 -70.5s-42.333 -43.333 -70 -61s-60.167 -32 -97.5 -43s-80.666 -16.5 -129.999 -16.5c-58.667 0 -112 7.66699 -160 23s-90.667 39 -128 71v-544h-148v1560h148v-615c2 -62.667 10.833 -116.5 26.5 -161.5
s37.167 -81.667 64.5 -110s59.833 -49.166 97.5 -62.499s79.167 -20 124.5 -20c46 0 88.667 7 128 21s73.166 36 101.499 66s50.5 68.833 66.5 116.5s24 105.167 24 172.5v593h147z" />
    <glyph glyph-name="paragraph" unicode="&#xb6;" horiz-adv-x="1269" 
d="M688 -282l0.00195312 829.004h-89c-34 0 -68 2.66699 -102 8c-72.667 11.333 -135.334 37.166 -188.001 77.499s-92.834 91.666 -120.501 153.999s-41.5 131.166 -41.5 206.499s13.667 144.166 41 206.499s67.5 113.833 120.5 154.5s115.833 66.667 188.5 78
c34 5.33301 68 8 102 8h236v-1722h-147zM976.002 -281.996v1722h147v-1722h-147z" />
    <glyph glyph-name="periodcentered" unicode="&#xb7;" horiz-adv-x="453" 
d="M229 523c-20 0 -38.333 4.66699 -55 14s-29.834 22.166 -39.501 38.499s-14.5 34.5 -14.5 54.5s4.83301 38.167 14.5 54.5s22.834 29.166 39.501 38.499s35 14 55 14c18.667 0 36 -4.66699 52 -14s28.667 -22.166 38 -38.499s14 -34.5 14 -54.5
s-4.66699 -38.167 -14 -54.5s-22 -29.166 -38 -38.499s-33.333 -14 -52 -14z" />
    <glyph glyph-name="cedilla" unicode="&#xb8;" horiz-adv-x="794" 
d="M367 -480c-41.333 0 -83.6689 10.332 -127.002 30.999l38 102c30.667 -12 56.334 -18 77.001 -18c24.667 0 44.5 7.83301 59.5 23.5s22.5 33.834 22.5 54.501c0 18.667 -5.66699 34 -17 46s-25.166 21.667 -41.499 29s-38.833 15.666 -67.5 24.999
c-1.33301 0.666992 -2.5 1 -3.5 1s-2.16699 0.333008 -3.5 1l74 206h109l-51 -140c37.333 -16.667 66.833 -39.167 88.5 -67.5s32.5 -63.166 32.5 -104.499c0 -35.333 -8.66699 -67.5 -26 -96.5s-40.5 -51.667 -69.5 -68s-60.5 -24.5 -94.5 -24.5z" />
    <glyph glyph-name="onesuperior" unicode="&#xb9;" horiz-adv-x="696" 
d="M344 540v772l-169 -103l-55 97l224 134h112v-900h-112z" />
    <glyph glyph-name="ordmasculine" unicode="&#xba;" horiz-adv-x="690" 
d="M344 540c-52.667 0 -98.999 12.001 -138.999 36.001s-70.833 57.667 -92.5 101s-32.5 93 -32.5 149c0 55.333 11 104.666 33 147.999s53 76.833 93 100.5s86 35.5 138 35.5c53.333 0 100.166 -12 140.499 -36s71.333 -57.5 93 -100.5s32.5 -92.167 32.5 -147.5
c0 -56.667 -11 -106.5 -33 -149.5s-53 -76.5 -93 -100.5s-86.667 -36 -140 -36zM344.001 639.001c50.667 0 89.002 16.835 115.002 50.502s39 79.167 39 136.5s-13.167 102.666 -39.5 135.999s-64.5 50 -114.5 50c-50.667 0 -88.834 -16.833 -114.501 -50.5
s-38.5 -78.834 -38.5 -135.501c0 -58.667 13.167 -104.5 39.5 -137.5s64.166 -49.5 113.499 -49.5z" />
    <glyph glyph-name="guillemotright" unicode="&#xbb;" horiz-adv-x="1071" 
d="M133 175l291 366l-291 365l89 69l346 -434l-346 -435zM476 175l292 366l-292 365l89 69l346 -434l-346 -435z" />
    <glyph glyph-name="onequarter" unicode="&#xbc;" horiz-adv-x="1947" 
d="M381 0l-101 78l1051 1367l99 -78zM290 540v772l-169 -103l-55 97l224 134h111v-900h-111zM1502 0v172h-460v105l300 623h123l-300 -623h337v304h111v-304h88v-105h-88v-172h-111z" />
    <glyph glyph-name="onehalf" unicode="&#xbd;" horiz-adv-x="1868" 
d="M381 0l-101 78l1051 1367l99 -78zM290 540v772l-169 -103l-55 97l224 134h111v-900h-111zM1157 0l-0.00488281 105.996l382 356c39.333 37.333 68 71.5 86 102.5s27 63.5 27 97.5c0 24.667 -4.66699 46.334 -14 65.001s-22.166 34.5 -38.499 47.5
s-35.666 22.833 -57.999 29.5s-46.5 10 -72.5 10c-57.333 0 -104.666 -16 -141.999 -48s-60.666 -75.667 -69.999 -131l-117 22c8 40.667 21.5 77.334 40.5 110.001s42.667 60.334 71 83.001s60.833 40 97.5 52s76.334 18 119.001 18s82.334 -5.5 119.001 -16.5
s68.5 -27.5 95.5 -49.5s48.167 -49.167 63.5 -81.5s22.666 -69.5 21.999 -111.5c-0.666992 -48 -13.667 -94.167 -39 -138.5s-58 -85.166 -98 -122.499l-315 -294h452v-106h-611z" />
    <glyph glyph-name="threequarters" unicode="&#xbe;" horiz-adv-x="1959" 
d="M518 0l-101 78l1051 1367l99 -78zM736 811c0 -44.667 -7.83105 -85.001 -23.498 -121.001s-37.834 -66.667 -66.501 -92s-62.667 -44.833 -102 -58.5s-82.666 -20.5 -129.999 -20.5c-43.333 0 -83.833 5.33301 -121.5 16s-71.334 27 -101.001 49s-54.834 50 -75.501 84
s-36 74 -46 120l113 18c15.333 -59.333 41 -104.333 77 -135s88 -46 156 -46c30.667 0 58.5 4.66699 83.5 14s46.5 22.166 64.5 38.499s31.833 35.5 41.5 57.5s14.5 46 14.5 72c0 56.667 -17.667 99.334 -53 128.001s-86.333 43 -153 43h-92v93l242 263h-443v106h581v-106
l-247 -264c91.333 -5.33301 161 -29.666 209 -72.999s72 -105.333 72 -186zM1636 -0.000976562v172h-460v105l300 623h123l-300 -623h337v304h111v-304h88v-105h-88v-172h-111z" />
    <glyph glyph-name="questiondown" unicode="&#xbf;" horiz-adv-x="1244" 
d="M100.07 70.0615c0 63.9961 9.66895 121.324 29.001 171.987c19.332 50.6641 47.4971 93.9951 84.4941 129.992c36.998 35.998 82.1621 64.4961 135.492 85.4951s114.326 34.165 182.988 39.498v224.986h139.992v-363.978h-67.9961
c-115.993 0 -203.654 -24.498 -262.984 -73.4951c-59.3291 -48.9971 -88.9941 -121.826 -88.9941 -218.487c0 -45.3301 8.33301 -87.1611 24.998 -125.492c16.666 -38.3311 40.3311 -71.4951 70.9961 -99.4932c30.665 -27.999 67.4961 -49.998 110.493 -65.9971
s90.8271 -23.999 143.49 -23.999c56.6631 0 106.327 6.16602 148.991 18.499s79.8281 30.832 111.493 55.4971s58.3301 55.8301 79.9951 93.4951c21.665 37.6641 39.4971 81.4941 53.4961 131.491l147.99 -24.998c-15.999 -69.9961 -39.8311 -130.992 -71.4961 -182.989
s-70.4961 -95.1611 -116.493 -129.492s-98.4941 -59.9961 -157.49 -76.9951c-58.9971 -16.999 -123.826 -25.498 -194.488 -25.498c-73.9951 0 -141.991 10.999 -203.987 32.998s-115.159 53.1641 -159.49 93.4951s-78.8291 88.6611 -103.494 144.991
s-36.9971 119.159 -36.9971 188.488zM672.038 1080v-164.99h-139.992v164.99h139.992z" />
    <glyph glyph-name="Agrave" unicode="&#xc0;" horiz-adv-x="1268" 
d="M683.036 1610l-118.993 310h-125.992l118.992 -310h125.993zM38.0752 0h155.99l121.993 349h636.961l121.992 -349h154.99l-504.969 1440h-181.989zM364.055 487l270.984 776l269.983 -776h-540.968z" />
    <glyph glyph-name="Aacute" unicode="&#xc1;" horiz-adv-x="1268" 
d="M585 1610l119 310h126l-119 -310h-126zM1230 0h-156l-122 349h-637l-122 -349h-155l505 1440h182zM904 487l-271 776l-270 -776h541z" />
    <glyph glyph-name="Acircumflex" unicode="&#xc2;" horiz-adv-x="1268" 
d="M565 1880h136l230 -270h-150l-148 173l-147 -173h-150zM1230 0h-156l-122 349h-637l-122 -349h-155l505 1440h182zM904 487l-271 776l-270 -776h541z" />
    <glyph glyph-name="Atilde" unicode="&#xc3;" horiz-adv-x="1267" 
d="M784 1662c-27.333 0 -54.001 5.5 -80.001 16.5s-56.667 27.167 -92 48.5c-28.667 16.667 -52.167 28.834 -70.5 36.501s-35.5 11.5 -51.5 11.5c-16.667 0 -29.667 -4.66699 -39 -14s-14.333 -18.5 -15 -27.5s-1 -15.167 -1 -18.5c0 -12 2 -24 6 -36h-104
c-5.33301 21.333 -8 41.333 -8 60c0 16.667 3.16699 37 9.5 61s22.333 45.5 48 64.5s57.834 28.5 96.501 28.5c27.333 0 54 -5.5 80 -16.5s57.333 -26.833 94 -47.5c29.333 -16.667 52.833 -29 70.5 -37s34.5 -12 50.5 -12c22.667 0 37.5 7.33301 44.5 22s10.5 28 10.5 40
c0 11.333 -2 23.666 -6 36.999h104c5.33301 -20.667 8 -40.667 8 -60c0 -16.667 -3.16699 -37.167 -9.5 -61.5s-22.333 -46.333 -48 -66s-58.167 -29.5 -97.5 -29.5zM1230 0h-156l-122 349h-637l-122 -349h-155l505 1440h182zM903.999 487l-271 776l-270 -776h541z" />
    <glyph glyph-name="Adieresis" unicode="&#xc4;" horiz-adv-x="1268" 
d="M745 1811h160v-160h-160v160zM364 1811h160v-160h-160v160zM1230 0h-156l-122 349h-637l-122 -349h-155l505 1440h182zM904 487l-271 776l-270 -776h541z" />
    <glyph glyph-name="Aring" unicode="&#xc5;" horiz-adv-x="1267" 
d="M635 1557c-39.333 0 -75.833 9.83301 -109.5 29.5s-60.5 46.167 -80.5 79.5s-30 70 -30 110c0 39.333 10 75.833 30 109.5s46.833 60.334 80.5 80.001s70.167 29.5 109.5 29.5s75.833 -9.83301 109.5 -29.5s60.334 -46.334 80.001 -80.001s29.5 -70.167 29.5 -109.5
c0 -40 -9.83301 -76.667 -29.5 -110s-46.334 -59.833 -80.001 -79.5s-70.167 -29.5 -109.5 -29.5zM635 1666c30.667 0 56.667 10.833 78 32.5s32 47.5 32 77.5c0 30.667 -10.667 56.667 -32 78s-47.333 32 -78 32c-30 0 -55.833 -10.667 -77.5 -32s-32.5 -47.333 -32.5 -78
c0 -30 10.833 -55.833 32.5 -77.5s47.5 -32.5 77.5 -32.5zM1230 0h-156l-122 349h-637l-122 -349h-155l505 1440h182zM904 487l-271 776l-270 -776h541z" />
    <glyph glyph-name="AE" unicode="&#xc6;" horiz-adv-x="1837" 
d="M837 349h-522l-122 -349h-155l505 1440h1194v-141h-753v-498h633v-141h-633v-519h753v-141h-900v349zM837 487v812h-191l-283 -812h474z" />
    <glyph glyph-name="Ccedilla" unicode="&#xc7;" horiz-adv-x="1431" 
d="M677 -480c-42 0 -84.6689 10.3369 -128.002 31.0039l38 102c31.333 -12 57.333 -18 78 -18c24.667 0 44.334 7.83301 59.001 23.5s22 33.834 22 54.501c0 18.667 -5.5 34 -16.5 46s-24.833 21.667 -41.5 29s-39 15.666 -67 24.999
c-1.33301 0.666992 -2.66602 1 -3.99902 1s-2.66602 0.333008 -3.99902 1l57 157c-99.333 6 -187 28.5 -263 67.5s-139.667 91.167 -191 156.5s-90.166 142.5 -116.499 231.5s-39.5 186.5 -39.5 292.5c0 110.667 14.333 212 43 304s71 171 127 237s125.333 117.333 208 154
s177.667 55 285 55c83.333 0 159.333 -11.167 228 -33.5s129.334 -54 182.001 -95s97.167 -90.667 133.5 -149s64.5 -123.5 84.5 -195.5l-150 -39c-15.333 56.667 -36.666 107.834 -63.999 153.501s-61 84.667 -101 117s-86 57.166 -138 74.499s-110.333 26 -175 26
c-83.333 0 -156.666 -14.833 -219.999 -44.5s-116.333 -71.334 -159 -125.001s-74.834 -117.834 -96.501 -192.501s-32.5 -157 -32.5 -247s10.667 -172.333 32 -247s53.166 -138.834 95.499 -192.501s95.166 -95.334 158.499 -125.001s137.333 -44.5 222 -44.5
c64.667 0 123 8.66699 175 26s98 42.166 138 74.499s73.667 71.333 101 117s48.666 96.834 63.999 153.501l150 -39c-18.667 -68 -44.834 -129.833 -78.501 -185.5s-74.5 -103.834 -122.5 -144.501s-103 -73.167 -165 -97.5s-131 -38.833 -207 -43.5l-33 -91
c38 -16.667 67.667 -39.167 89 -67.5s32 -63.166 32 -104.499c0 -35.333 -8.66699 -67.5 -26 -96.5s-40.5 -51.667 -69.5 -68s-60.167 -24.5 -93.5 -24.5z" />
    <glyph glyph-name="Egrave" unicode="&#xc8;" horiz-adv-x="1141" 
d="M559 1610l-119 310h126l119 -310h-126zM140 0v1440h901v-141h-753v-498h633v-141h-633v-519h753v-141h-901z" />
    <glyph glyph-name="Eacute" unicode="&#xc9;" horiz-adv-x="1141" 
d="M678 1610h-126l119 310h126zM140 0v1440h901v-141h-754v-498h634v-141h-634v-519h754v-141h-901z" />
    <glyph glyph-name="Ecircumflex" unicode="&#xca;" horiz-adv-x="1141" 
d="M282 1610l229 270h136l230 -270h-150l-148 173l-147 -173h-150zM140 0v1440h901v-141h-754v-498h634v-141h-634v-519h754v-141h-901z" />
    <glyph glyph-name="Edieresis" unicode="&#xcb;" horiz-adv-x="1141" 
d="M681 1651v160h160v-160h-160zM300 1651v160h160v-160h-160zM140 0v1440h901v-141h-753v-498h633v-141h-633v-519h753v-141h-901z" />
    <glyph glyph-name="Igrave" unicode="&#xcc;" horiz-adv-x="467" 
d="M168 1610l-120 310h126l120 -310h-126zM160 0v1440h147v-1440h-147z" />
    <glyph glyph-name="Iacute" unicode="&#xcd;" horiz-adv-x="467" 
d="M299 1610h-126l120 310h126zM160 0v1440h147v-1440h-147z" />
    <glyph glyph-name="Icircumflex" unicode="&#xce;" horiz-adv-x="467" 
d="M-65 1610l229 270h136l229 -270h-150l-147 173l-147 -173h-150zM160 0v1440h147v-1440h-147z" />
    <glyph glyph-name="Idieresis" unicode="&#xcf;" horiz-adv-x="467" 
d="M344 1651v160h160v-160h-160zM-37 1651v160h160v-160h-160zM160 0v1440h147v-1440h-147z" />
    <glyph glyph-name="Eth" unicode="&#xd0;" horiz-adv-x="1345" 
d="M20 783l119 -0.00195312v657h418c228.667 0 402.334 -61.167 521.001 -183.5s178 -301.166 178 -536.499s-59.333 -414.166 -178 -536.499s-292.334 -183.5 -521.001 -183.5h-418v657h-119v126zM291 782.998l359 -0.000976562v-126h-359v-516h249
c190 0 330.833 47.333 422.5 142s137.5 240.334 137.5 437.001c0 196 -46 341.5 -138 436.5s-232.667 142.5 -422 142.5h-249v-516z" />
    <glyph glyph-name="Ntilde" unicode="&#xd1;" horiz-adv-x="1369" 
d="M861 1612c-27.333 0 -54.0029 5.49707 -80.0029 16.4971s-57 27.167 -93 48.5c-28.667 16.667 -52 28.834 -70 36.501s-35 11.5 -51 11.5c-16.667 0 -29.667 -4.66699 -39 -14s-14.333 -18.5 -15 -27.5s-1 -15.5 -1 -19.5c0 -11.333 1.66699 -23 5 -35h-104
c-5.33301 20.667 -8 40.334 -8 59.001c0 17.333 3.33301 38 10 62s22.834 45.5 48.501 64.5s57.5 28.5 95.5 28.5c28 0 55 -5.5 81 -16.5s57.333 -26.833 94 -47.5c28.667 -16.667 51.834 -29 69.501 -37s34.834 -12 51.501 -12c22.667 0 37.5 7.33301 44.5 22
s10.5 28.334 10.5 41.001c0 11.333 -2 23.333 -6 36h104c5.33301 -20.667 8 -40.667 8 -60c0 -16.667 -3.16699 -37.167 -9.5 -61.5s-22.5 -46.333 -48.5 -66s-58.333 -29.5 -97 -29.5zM139.997 -0.00292969v1440h147l794 -1181v1181h148v-1440h-148l-794 1181v-1181h-147z
" />
    <glyph glyph-name="Ograve" unicode="&#xd2;" horiz-adv-x="1447" 
d="M537 1920h126l119 -310h-126zM723 -30c-107.333 0 -202.333 18.333 -285 55s-152 88 -208 154s-98.333 145 -127 237s-43 193.333 -43 304s14.333 212 43 304s71 171 127 237s125.333 117.333 208 154s177.667 55 285 55c108 0 203.333 -18.333 286 -55s152 -88 208 -154
s98.333 -145 127 -237s43 -193.333 43 -304s-14.333 -212 -43 -304s-71 -171 -127 -237s-125.333 -117.333 -208 -154s-178 -55 -286 -55zM723 111c84.667 0 158.666 14.833 221.999 44.5s116.166 71.334 158.499 125.001s74.166 117.834 95.499 192.501s32 157 32 247
s-10.667 172.333 -32 247s-53.166 138.834 -95.499 192.501s-95.166 95.334 -158.499 125.001s-137.333 44.5 -222 44.5s-158.5 -14.833 -221.5 -44.5s-115.5 -71.334 -157.5 -125.001s-73.667 -117.834 -95 -192.501s-32.333 -157 -33 -247s9.5 -172.333 30.5 -247
s52.667 -138.834 95 -192.501s95.333 -95.334 159 -125.001s137.834 -44.5 222.501 -44.5z" />
    <glyph glyph-name="Oacute" unicode="&#xd3;" horiz-adv-x="1447" 
d="M678 1610l119 310h126l-119 -310h-126zM723 -30c-107.333 0 -202.333 18.333 -285 55s-152 88 -208 154s-98.333 145 -127 237s-43 193.333 -43 304s14.333 212 43 304s71 171 127 237s125.333 117.333 208 154s177.667 55 285 55c108 0 203.333 -18.333 286 -55
s152 -88 208 -154s98.333 -145 127 -237s43 -193.333 43 -304s-14.333 -212 -43 -304s-71 -171 -127 -237s-125.333 -117.333 -208 -154s-178 -55 -286 -55zM723 111c84.667 0 158.666 14.833 221.999 44.5s116.166 71.334 158.499 125.001s74.166 117.834 95.499 192.501
s32 157 32 247s-10.667 172.333 -32 247s-53.166 138.834 -95.499 192.501s-95.166 95.334 -158.499 125.001s-137.333 44.5 -222 44.5s-158.5 -14.833 -221.5 -44.5s-115.5 -71.334 -157.5 -125.001s-73.667 -117.834 -95 -192.501s-32.333 -157 -33 -247
s9.5 -172.333 30.5 -247s52.667 -138.834 95 -192.501s95.333 -95.334 159 -125.001s137.834 -44.5 222.501 -44.5z" />
    <glyph glyph-name="Ocircumflex" unicode="&#xd4;" horiz-adv-x="1447" 
d="M654 1880h136l229 -270h-150l-147 173l-147 -173h-150zM723 -30c-107.333 0 -202.333 18.333 -285 55s-152 88 -208 154s-98.333 145 -127 237s-43 193.333 -43 304s14.333 212 43 304s71 171 127 237s125.333 117.333 208 154s177.667 55 285 55
c108 0 203.333 -18.333 286 -55s152 -88 208 -154s98.333 -145 127 -237s43 -193.333 43 -304s-14.333 -212 -43 -304s-71 -171 -127 -237s-125.333 -117.333 -208 -154s-178 -55 -286 -55zM723 111c84.667 0 158.666 14.833 221.999 44.5s116.166 71.334 158.499 125.001
s74.166 117.834 95.499 192.501s32 157 32 247s-10.667 172.333 -32 247s-53.166 138.834 -95.499 192.501s-95.166 95.334 -158.499 125.001s-137.333 44.5 -222 44.5s-158.5 -14.833 -221.5 -44.5s-115.5 -71.334 -157.5 -125.001s-73.667 -117.834 -95 -192.501
s-32.333 -157 -33 -247s9.5 -172.333 30.5 -247s52.667 -138.834 95 -192.501s95.333 -95.334 159 -125.001s137.834 -44.5 222.501 -44.5z" />
    <glyph glyph-name="Otilde" unicode="&#xd5;" horiz-adv-x="1447" 
d="M723 -30c-107.333 0 -202.333 18.333 -285 55s-152 88 -208 154s-98.333 145 -127 237s-43 193.333 -43 304s14.333 212 43 304s71 171 127 237s125.333 117.333 208 154s177.667 55 285 55c108 0 203.333 -18.333 286 -55s152 -88 208 -154s98.333 -145 127 -237
s43 -193.333 43 -304s-14.333 -212 -43 -304s-71 -171 -127 -237s-125.333 -117.333 -208 -154s-178 -55 -286 -55zM723 111c84.667 0 158.666 14.833 221.999 44.5s116.166 71.334 158.499 125.001s74.166 117.834 95.499 192.501s32 157 32 247s-10.667 172.333 -32 247
s-53.166 138.834 -95.499 192.501s-95.166 95.334 -158.499 125.001s-137.333 44.5 -222 44.5s-158.5 -14.833 -221.5 -44.5s-115.5 -71.334 -157.5 -125.001s-73.667 -117.834 -95 -192.501s-32.333 -157 -33 -247s9.5 -172.333 30.5 -247s52.667 -138.834 95 -192.501
s95.333 -95.334 159 -125.001s137.834 -44.5 222.501 -44.5zM887.999 1612c-27.333 0 -54.001 5.5 -80.001 16.5s-56.667 27.167 -92 48.5c-28.667 16.667 -52.167 28.834 -70.5 36.501s-35.5 11.5 -51.5 11.5c-16.667 0 -29.667 -4.66699 -39 -14s-14.333 -18.5 -15 -27.5
s-1 -15.167 -1 -18.5c0 -12 2 -24 6 -36h-104c-5.33301 21.333 -8 41.333 -8 60c0 16.667 3.16699 37 9.5 61s22.333 45.5 48 64.5s57.834 28.5 96.501 28.5c27.333 0 54 -5.5 80 -16.5s57.333 -26.833 94 -47.5c29.333 -16.667 52.833 -29 70.5 -37s34.5 -12 50.5 -12
c22.667 0 37.5 7.33301 44.5 22s10.5 28 10.5 40c0 11.333 -2 23.666 -6 36.999h104c5.33301 -20.667 8 -40.667 8 -60c0 -16.667 -3.16699 -37.167 -9.5 -61.5s-22.333 -46.333 -48 -66s-58.167 -29.5 -97.5 -29.5z" />
    <glyph glyph-name="Odieresis" unicode="&#xd6;" horiz-adv-x="1447" 
d="M834 1811h160v-160h-160v160zM453 1811h160v-160h-160v160zM723 -30c-107.333 0 -202.333 18.333 -285 55s-152 88 -208 154s-98.333 145 -127 237s-43 193.333 -43 304s14.333 212 43 304s71 171 127 237s125.333 117.333 208 154s177.667 55 285 55
c108 0 203.333 -18.333 286 -55s152 -88 208 -154s98.333 -145 127 -237s43 -193.333 43 -304s-14.333 -212 -43 -304s-71 -171 -127 -237s-125.333 -117.333 -208 -154s-178 -55 -286 -55zM723 111c84.667 0 158.666 14.833 221.999 44.5s116.166 71.334 158.499 125.001
s74.166 117.834 95.499 192.501s32 157 32 247s-10.667 172.333 -32 247s-53.166 138.834 -95.499 192.501s-95.166 95.334 -158.499 125.001s-137.333 44.5 -222 44.5s-158.5 -14.833 -221.5 -44.5s-115.5 -71.334 -157.5 -125.001s-73.667 -117.834 -95 -192.501
s-32.333 -157 -33 -247s9.5 -172.333 30.5 -247s52.667 -138.834 95 -192.501s95.333 -95.334 159 -125.001s137.834 -44.5 222.501 -44.5z" />
    <glyph glyph-name="multiply" unicode="&#xd7;" horiz-adv-x="975" 
d="M766.496 352.411l-278.57 278.594l-278.594 -278.594l-89.0859 89.0928l278.594 278.595l-278.57 278.595l89.0938 89.0938l278.57 -278.595l277.888 277.888l89.0859 -89.0938l-277.888 -277.888l278.57 -278.595z" />
    <glyph glyph-name="Oslash" unicode="&#xd8;" horiz-adv-x="1447" 
d="M38 69l151.001 165c-42.667 64 -74.834 136.833 -96.501 218.5s-32.5 170.834 -32.5 267.501c0 110.667 14.333 212 43 304s71 171 127 237s125.333 117.333 208 154s177.667 55 285 55c96 0 181.5 -14.333 256.5 -43s140.167 -69.334 195.5 -122.001l143 156l105 -94
l-157 -173c40 -63.333 70.167 -134.833 90.5 -214.5s30.5 -166.167 30.5 -259.5c0 -110.667 -14.333 -212 -43 -304s-71 -171 -127 -237s-125.333 -117.333 -208 -154s-178 -55 -286 -55c-92.667 0 -175.667 13.333 -249 40s-137.333 65 -192 115l-139 -151zM1074 1193
c-42 43.333 -91.999 76.835 -149.999 100.502s-125 35.5 -201 35.5c-84.667 0 -158.5 -14.833 -221.5 -44.5s-115.5 -71.334 -157.5 -125.001s-73.667 -117.834 -95 -192.501s-32.333 -157 -33 -247c-0.666992 -72.667 5.66602 -140.167 18.999 -202.5s34 -118.5 62 -168.5z
M723.002 111.002c84.667 0 158.668 14.8311 222.001 44.498s116.166 71.334 158.499 125.001s74.166 117.834 95.499 192.501s32 157 32 247c0 69.333 -6.16699 134 -18.5 194s-31.166 114.667 -56.499 164l-774 -842c42 -40 91.167 -70.833 147.5 -92.5
s120.833 -32.5 193.5 -32.5z" />
    <glyph glyph-name="Ugrave" unicode="&#xd9;" horiz-adv-x="1404" 
d="M541 1920h126l119 -310h-126zM702 -30c-85.333 0 -162.664 13.167 -231.997 39.5s-128.5 64.833 -177.5 115.5s-86.667 112.5 -113 185.5s-39.5 156.167 -39.5 249.5v880h147v-877c0 -72.667 9.16699 -137.167 27.5 -193.5s45.166 -103.833 80.499 -142.5
s78.666 -68 129.999 -88s110.333 -30 177 -30s125.667 10 177 30s94.666 49.333 129.999 88s62.166 86.167 80.499 142.5s27.5 120.833 27.5 193.5v877h147v-880c0 -93.333 -13.167 -176.5 -39.5 -249.5s-64 -134.833 -113 -185.5s-108.167 -89.167 -177.5 -115.5
s-146.666 -39.5 -231.999 -39.5z" />
    <glyph glyph-name="Uacute" unicode="&#xda;" horiz-adv-x="1404" 
d="M623 1610l119 310h126l-119 -310h-126zM702 -30c-85.333 0 -162.664 13.167 -231.997 39.5s-128.5 64.833 -177.5 115.5s-86.667 112.5 -113 185.5s-39.5 156.167 -39.5 249.5v880h147v-877c0 -72.667 9.16699 -137.167 27.5 -193.5s45.166 -103.833 80.499 -142.5
s78.666 -68 129.999 -88s110.333 -30 177 -30s125.667 10 177 30s94.666 49.333 129.999 88s62.166 86.167 80.499 142.5s27.5 120.833 27.5 193.5v877h147v-880c0 -93.333 -13.167 -176.5 -39.5 -249.5s-64 -134.833 -113 -185.5s-108.167 -89.167 -177.5 -115.5
s-146.666 -39.5 -231.999 -39.5z" />
    <glyph glyph-name="Ucircumflex" unicode="&#xdb;" horiz-adv-x="1404" 
d="M633 1880h136l229 -270h-150l-147 173l-148 -173h-150zM702 -30c-85.333 0 -162.664 13.167 -231.997 39.5s-128.5 64.833 -177.5 115.5s-86.667 112.5 -113 185.5s-39.5 156.167 -39.5 249.5v880h147v-877c0 -72.667 9.16699 -137.167 27.5 -193.5
s45.166 -103.833 80.499 -142.5s78.666 -68 129.999 -88s110.333 -30 177 -30s125.667 10 177 30s94.666 49.333 129.999 88s62.166 86.167 80.499 142.5s27.5 120.833 27.5 193.5v877h147v-880c0 -93.333 -13.167 -176.5 -39.5 -249.5s-64 -134.833 -113 -185.5
s-108.167 -89.167 -177.5 -115.5s-146.666 -39.5 -231.999 -39.5z" />
    <glyph glyph-name="Udieresis" unicode="&#xdc;" horiz-adv-x="1404" 
d="M813 1811h160v-160h-160v160zM431 1811h160v-160h-160v160zM702 -30c-85.333 0 -162.664 13.167 -231.997 39.5s-128.5 64.833 -177.5 115.5s-86.667 112.5 -113 185.5s-39.5 156.167 -39.5 249.5v880h147v-877c0 -72.667 9.16699 -137.167 27.5 -193.5
s45.166 -103.833 80.499 -142.5s78.666 -68 129.999 -88s110.333 -30 177 -30s125.667 10 177 30s94.666 49.333 129.999 88s62.166 86.167 80.499 142.5s27.5 120.833 27.5 193.5v877h147v-880c0 -93.333 -13.167 -176.5 -39.5 -249.5s-64 -134.833 -113 -185.5
s-108.167 -89.167 -177.5 -115.5s-146.666 -39.5 -231.999 -39.5z" />
    <glyph glyph-name="Yacute" unicode="&#xdd;" horiz-adv-x="1112" 
d="M600 1610h-126l119 310h126zM483 0v603l-483 837h170l387 -669l385 669h170l-482 -837v-603h-147z" />
    <glyph glyph-name="Thorn" unicode="&#xde;" horiz-adv-x="1209" 
d="M140 0v1440h147v-273h386c75.333 0 142.5 -10.333 201.5 -31s108.833 -50.334 149.5 -89.001s71.667 -85.667 93 -141s32 -117.333 32 -186s-10.667 -130.5 -32 -185.5s-52.5 -101.833 -93.5 -140.5s-90.833 -68.5 -149.5 -89.5s-125.667 -31.5 -201 -31.5h-386v-273
h-147zM287 414.001h386c51.333 0 97 7 137 21s73.833 34 101.5 60s48.834 58 63.501 96s22 81 22 129s-7.33301 91 -22 129s-35.834 70 -63.501 96s-61.5 46 -101.5 60s-85.667 21 -137 21h-386v-612z" />
    <glyph glyph-name="germandbls" unicode="&#xdf;" horiz-adv-x="1197" 
d="M625 -29c-38 0 -71.6611 2.16406 -100.994 6.49707s-57 11.833 -83 22.5v145c27.333 -10 54 -17.167 80 -21.5s56 -6.5 90 -6.5c63.333 0 118.666 11.5 165.999 34.5s84.166 56.667 110.499 101s39.5 97.5 39.5 159.5c0 59.333 -15.833 110.333 -47.5 153
s-76.167 75.5 -133.5 98.5s-124 35.167 -200 36.5v135c74.667 8 135.667 32.833 183 74.5s71 99.834 71 174.501c0 50.667 -10.667 94.5 -32 131.5s-51 65.167 -89 84.5s-82 29 -132 29c-54.667 0 -102.834 -12 -144.501 -36s-71.167 -60 -88.5 -108
c-8 -20.667 -13.667 -44.834 -17 -72.501s-5 -57.5 -5 -89.5v-1023h-153v1063c0 68.667 8.66699 125.334 26 170.001c28.667 78.667 75.667 137.834 141 177.501s145 59.5 239 59.5c79.333 0 149.666 -15.5 210.999 -46.5s109.166 -75.5 143.499 -133.5
s51.5 -126.333 51.5 -205c0 -70 -15 -131.333 -45 -184s-72.667 -90 -128 -112c45.333 -8 91.166 -28.167 137.499 -60.5s84.833 -75.666 115.5 -129.999s46 -116.833 46 -187.5c0 -90 -17.333 -168 -52 -234s-86 -116.833 -154 -152.5s-150 -53.5 -246 -53.5z" />
    <glyph glyph-name="agrave" unicode="&#xe0;" horiz-adv-x="1111" 
d="M389 1560h126l120 -310h-126zM561 1110c286.667 0 430.001 -149.668 430.001 -449.001v-661h-146v182c-38.667 -69.333 -91 -122 -157 -158s-144.333 -54 -235 -54c-58 0 -110 7.16699 -156 21.5s-85 35 -117 62s-56.667 59.833 -74 98.5s-26 82.334 -26 131.001
c0 56.667 10.5 105.167 31.5 145.5s50.667 74 89 101s84.666 48.5 138.999 64.5s114.5 28 180.5 36l325 41c0 106 -23 183.167 -69 231.5s-118.333 72.5 -217 72.5c-162.667 0 -262.334 -67.667 -299.001 -203l-139 33c25.333 98.667 75.833 174.167 151.5 226.5
s171.834 78.5 288.501 78.5zM534.001 510.999c-54.667 -6.66699 -101.499 -16 -140.499 -28s-71 -26.833 -96 -44.5s-43.167 -38.667 -54.5 -63s-17 -52.5 -17 -84.5c0 -126.667 84.333 -190 253 -190c46.667 0 89.667 6.5 129 19.5s74.166 31.667 104.499 56
s55.5 53.833 75.5 88.5s34.333 73.334 43 116.001c6.66699 27.333 10.667 56.166 12 86.499s2 57.5 2 81.5z" />
    <glyph glyph-name="aacute" unicode="&#xe1;" horiz-adv-x="1111" 
d="M504 1250l120 310h126l-120 -310h-126zM561 1110c286.667 0 430.001 -149.668 430.001 -449.001v-661h-146v182c-38.667 -69.333 -91 -122 -157 -158s-144.333 -54 -235 -54c-58 0 -110 7.16699 -156 21.5s-85 35 -117 62s-56.667 59.833 -74 98.5
s-26 82.334 -26 131.001c0 56.667 10.5 105.167 31.5 145.5s50.667 74 89 101s84.666 48.5 138.999 64.5s114.5 28 180.5 36l325 41c0 106 -23 183.167 -69 231.5s-118.333 72.5 -217 72.5c-162.667 0 -262.334 -67.667 -299.001 -203l-139 33
c25.333 98.667 75.833 174.167 151.5 226.5s171.834 78.5 288.501 78.5zM534.001 510.999c-54.667 -6.66699 -101.499 -16 -140.499 -28s-71 -26.833 -96 -44.5s-43.167 -38.667 -54.5 -63s-17 -52.5 -17 -84.5c0 -126.667 84.333 -190 253 -190
c46.667 0 89.667 6.5 129 19.5s74.166 31.667 104.499 56s55.5 53.833 75.5 88.5s34.333 73.334 43 116.001c6.66699 27.333 10.667 56.166 12 86.499s2 57.5 2 81.5z" />
    <glyph glyph-name="acircumflex" unicode="&#xe2;" horiz-adv-x="1111" 
d="M503 1520h136l229 -270h-150l-147 173l-148 -173h-150zM561 1110c286.667 0 430.001 -149.668 430.001 -449.001v-661h-146v182c-38.667 -69.333 -91 -122 -157 -158s-144.333 -54 -235 -54c-58 0 -110 7.16699 -156 21.5s-85 35 -117 62s-56.667 59.833 -74 98.5
s-26 82.334 -26 131.001c0 56.667 10.5 105.167 31.5 145.5s50.667 74 89 101s84.666 48.5 138.999 64.5s114.5 28 180.5 36l325 41c0 106 -23 183.167 -69 231.5s-118.333 72.5 -217 72.5c-162.667 0 -262.334 -67.667 -299.001 -203l-139 33
c25.333 98.667 75.833 174.167 151.5 226.5s171.834 78.5 288.501 78.5zM534.001 510.999c-54.667 -6.66699 -101.499 -16 -140.499 -28s-71 -26.833 -96 -44.5s-43.167 -38.667 -54.5 -63s-17 -52.5 -17 -84.5c0 -126.667 84.333 -190 253 -190
c46.667 0 89.667 6.5 129 19.5s74.166 31.667 104.499 56s55.5 53.833 75.5 88.5s34.333 73.334 43 116.001c6.66699 27.333 10.667 56.166 12 86.499s2 57.5 2 81.5z" />
    <glyph glyph-name="atilde" unicode="&#xe3;" horiz-adv-x="1111" 
d="M731 1252c-26.667 0 -53.165 5.49902 -79.498 16.499s-57.166 27.167 -92.499 48.5c-29.333 16.667 -52.833 28.834 -70.5 36.501s-34.834 11.5 -51.501 11.5c-16 0 -28.667 -4.66699 -38 -14s-14.5 -18.666 -15.5 -27.999s-1.5 -15.666 -1.5 -18.999
c0 -11.333 2 -23 6 -35h-104c-5.33301 21.333 -8 41.333 -8 60c0 16.667 3.16699 37 9.5 61s22.5 45.5 48.5 64.5s58 28.5 96 28.5c27.333 0 54.166 -5.5 80.499 -16.5s57.5 -26.833 93.5 -47.5c29.333 -16.667 52.833 -29 70.5 -37s34.5 -12 50.5 -12
c22.667 0 37.667 7.5 45 22.5s11 28.833 11 41.5c0 10.667 -2 22.334 -6 35.001h104c5.33301 -20.667 8 -40.334 8 -59.001c0 -16.667 -3.33301 -37.334 -10 -62.001s-22.834 -46.834 -48.501 -66.501s-58.167 -29.5 -97.5 -29.5zM561.002 1110
c286.667 0 430.001 -149.668 430.001 -449.001v-661h-146v182c-38.667 -69.333 -91 -122 -157 -158s-144.333 -54 -235 -54c-58 0 -110 7.16699 -156 21.5s-85 35 -117 62s-56.667 59.833 -74 98.5s-26 82.334 -26 131.001c0 56.667 10.5 105.167 31.5 145.5
s50.667 74 89 101s84.666 48.5 138.999 64.5s114.5 28 180.5 36l325 41c0 106 -23 183.167 -69 231.5s-118.333 72.5 -217 72.5c-162.667 0 -262.334 -67.667 -299.001 -203l-139 33c25.333 98.667 75.833 174.167 151.5 226.5s171.834 78.5 288.501 78.5zM534.003 510.998
c-54.667 -6.66699 -101.499 -16 -140.499 -28s-71 -26.833 -96 -44.5s-43.167 -38.667 -54.5 -63s-17 -52.5 -17 -84.5c0 -126.667 84.333 -190 253 -190c46.667 0 89.667 6.5 129 19.5s74.166 31.667 104.499 56s55.5 53.833 75.5 88.5s34.333 73.334 43 116.001
c6.66699 27.333 10.667 56.166 12 86.499s2 57.5 2 81.5z" />
    <glyph glyph-name="adieresis" unicode="&#xe4;" horiz-adv-x="1111" 
d="M689 1451h160v-160h-160v160zM308 1451h160v-160h-160v160zM561 1110c286.667 0 430.001 -149.668 430.001 -449.001v-661h-146v182c-38.667 -69.333 -91 -122 -157 -158s-144.333 -54 -235 -54c-58 0 -110 7.16699 -156 21.5s-85 35 -117 62s-56.667 59.833 -74 98.5
s-26 82.334 -26 131.001c0 56.667 10.5 105.167 31.5 145.5s50.667 74 89 101s84.666 48.5 138.999 64.5s114.5 28 180.5 36l325 41c0 106 -23 183.167 -69 231.5s-118.333 72.5 -217 72.5c-162.667 0 -262.334 -67.667 -299.001 -203l-139 33
c25.333 98.667 75.833 174.167 151.5 226.5s171.834 78.5 288.501 78.5zM534.001 510.999c-54.667 -6.66699 -101.499 -16 -140.499 -28s-71 -26.833 -96 -44.5s-43.167 -38.667 -54.5 -63s-17 -52.5 -17 -84.5c0 -126.667 84.333 -190 253 -190
c46.667 0 89.667 6.5 129 19.5s74.166 31.667 104.499 56s55.5 53.833 75.5 88.5s34.333 73.334 43 116.001c6.66699 27.333 10.667 56.166 12 86.499s2 57.5 2 81.5z" />
    <glyph glyph-name="aring" unicode="&#xe5;" horiz-adv-x="1111" 
d="M570 1197c-39.333 0 -75.833 9.83301 -109.5 29.5s-60.334 46.167 -80.001 79.5s-29.5 70 -29.5 110c0 39.333 9.83301 75.833 29.5 109.5s46.334 60.334 80.001 80.001s70.167 29.5 109.5 29.5c40 0 76.667 -9.83301 110 -29.5s59.833 -46.334 79.5 -80.001
s29.5 -70.167 29.5 -109.5c0 -40 -9.83301 -76.667 -29.5 -110s-46.167 -59.833 -79.5 -79.5s-70 -29.5 -110 -29.5zM570 1306c30.667 0 56.667 10.833 78 32.5s32 47.5 32 77.5c0 30.667 -10.667 56.667 -32 78s-47.333 32 -78 32c-30 0 -55.833 -10.667 -77.5 -32
s-32.5 -47.333 -32.5 -78c0 -30 10.833 -55.833 32.5 -77.5s47.5 -32.5 77.5 -32.5zM561 1110c286.667 0 430.001 -149.668 430.001 -449.001v-661h-146v182c-38.667 -69.333 -91 -122 -157 -158s-144.333 -54 -235 -54c-58 0 -110 7.16699 -156 21.5s-85 35 -117 62
s-56.667 59.833 -74 98.5s-26 82.334 -26 131.001c0 56.667 10.5 105.167 31.5 145.5s50.667 74 89 101s84.666 48.5 138.999 64.5s114.5 28 180.5 36l325 41c0 106 -23 183.167 -69 231.5s-118.333 72.5 -217 72.5c-162.667 0 -262.334 -67.667 -299.001 -203l-139 33
c25.333 98.667 75.833 174.167 151.5 226.5s171.834 78.5 288.501 78.5zM534.001 510.999c-54.667 -6.66699 -101.499 -16 -140.499 -28s-71 -26.833 -96 -44.5s-43.167 -38.667 -54.5 -63s-17 -52.5 -17 -84.5c0 -126.667 84.333 -190 253 -190
c46.667 0 89.667 6.5 129 19.5s74.166 31.667 104.499 56s55.5 53.833 75.5 88.5s34.333 73.334 43 116.001c6.66699 27.333 10.667 56.166 12 86.499s2 57.5 2 81.5z" />
    <glyph glyph-name="ae" unicode="&#xe6;" horiz-adv-x="1939" 
d="M561 1110c195.333 0 324.334 -69.0049 387.001 -207.005c44 66.667 101 117.834 171 153.501s150.667 53.5 242 53.5c81.333 0 153.333 -14 216 -42s115.334 -68.333 158.001 -121s74.5 -116.667 95.5 -192s30.167 -160.666 27.5 -255.999h-851
c3.33301 -61.333 14 -116.166 32 -164.499s42.5 -89.166 73.5 -122.499s68 -58.833 111 -76.5s90.833 -26.5 143.5 -26.5c80.667 0 148 18 202 54s97 87.333 129 154l139 -51c-43.333 -95.333 -105.5 -168.5 -186.5 -219.5s-175.5 -76.5 -283.5 -76.5
c-107.333 0 -200 24.333 -278 73s-137.667 116.667 -179 204c-80.667 -184.667 -231.667 -277 -453 -277c-58 0 -110.167 7.16699 -156.5 21.5s-85.833 35 -118.5 62s-57.834 59.833 -75.501 98.5s-26.5 82.334 -26.5 131.001c0 56.667 10.5 105.167 31.5 145.5
s50.667 74 89 101s84.666 48.5 138.999 64.5s114.5 28 180.5 36l325 41c0 106 -23 183.167 -69 231.5s-118.333 72.5 -217 72.5c-162.667 0 -262.334 -67.667 -299.001 -203l-139 33c25.333 98.667 75.833 174.167 151.5 226.5s171.834 78.5 288.501 78.5zM1703 621.995
c-9.33301 114 -43.332 201.167 -101.999 261.5s-138.667 90.5 -240 90.5c-100.667 0 -181.334 -30.667 -242.001 -92s-97 -148 -109 -260h693zM845.002 548.995l-310.999 -38c-54.667 -6.66699 -101.5 -16 -140.5 -28s-71 -26.833 -96 -44.5s-43.167 -38.667 -54.5 -63
s-17 -52.5 -17 -84.5c0 -126.667 84.333 -190 253 -190c46.667 0 89.667 6.5 129 19.5s74.166 31.667 104.499 56s55.5 53.833 75.5 88.5s34.333 73.334 43 116.001c6.66699 27.333 10.667 56.166 12 86.499s2 57.5 2 81.5z" />
    <glyph glyph-name="ccedilla" unicode="&#xe7;" horiz-adv-x="1107" 
d="M539 -480c-41.333 0 -83.6689 10.332 -127.002 30.999l38 102c30.667 -12 56.334 -18 77.001 -18c24.667 0 44.5 7.83301 59.5 23.5s22.5 33.834 22.5 54.501c0 18.667 -5.66699 34 -17 46s-25.166 21.667 -41.499 29s-38.833 15.666 -67.5 24.999
c-1.33301 0.666992 -2.5 1 -3.5 1s-2.16699 0.333008 -3.5 1l57 157c-70.667 6 -134.167 23.833 -190.5 53.5s-103.833 69.167 -142.5 118.5s-68.334 107.5 -89.001 174.5s-31 140.833 -31 221.5c0 87.333 11.667 166 35 236s57 129.833 101 179.5
s97.5 87.834 160.5 114.501s133.833 40 212.5 40c54.667 0 106.167 -7 154.5 -21s92 -33.833 131 -59.5s72.833 -57 101.5 -94s50.334 -78.5 65.001 -124.5l-144 -46c-12.667 32 -29.334 60.667 -50.001 86s-44.167 46.666 -70.5 63.999s-55.5 30.666 -87.5 39.999
s-65.667 14 -101 14c-56.667 0 -107 -10 -151 -30s-80.833 -48.5 -110.5 -85.5s-52.167 -82 -67.5 -135s-23 -112.5 -23 -178.5c0 -66.667 7.83301 -126.5 23.5 -179.5s38.5 -98 68.5 -135s66.833 -65.333 110.5 -85s93.5 -29.5 149.5 -29.5
c74.667 0 137.334 16.833 188.001 50.5s89.667 82.834 117 147.501l148 -44c-37.333 -88.667 -89.833 -157.667 -157.5 -207s-148.5 -78 -242.5 -86l-33 -91c37.333 -16.667 66.833 -39.167 88.5 -67.5s32.5 -63.166 32.5 -104.499c0 -35.333 -8.66699 -67.5 -26 -96.5
s-40.5 -51.667 -69.5 -68s-60.5 -24.5 -94.5 -24.5z" />
    <glyph glyph-name="egrave" unicode="&#xe8;" horiz-adv-x="1169" 
d="M423 1560h126l119 -310h-126zM597 109c80.667 0 147.998 18 201.998 54s97 87.333 129 154l139 -51c-43.333 -95.333 -105.5 -168.5 -186.5 -219.5s-175.5 -76.5 -283.5 -76.5c-78 0 -148.833 13.5 -212.5 40.5s-118 65.167 -163 114.5s-79.833 109.166 -104.5 179.499
s-37 148.833 -37 235.5c0 87.333 12 166.166 36 236.499s58.333 130.166 103 179.499s98.334 87.333 161.001 114s133 40 211 40c81.333 0 153.333 -14 216 -42s115.334 -68.333 158.001 -121s74.5 -116.667 95.5 -192s30.167 -160.666 27.5 -255.999h-851
c3.33301 -61.333 14 -116.166 32 -164.499s42.5 -89.166 73.5 -122.499s68 -58.833 111 -76.5s90.833 -26.5 143.5 -26.5zM932.998 622c-9.33301 114 -43.332 201.167 -101.999 261.5s-138.667 90.5 -240 90.5c-100.667 0 -181.334 -30.667 -242.001 -92s-97 -148 -109 -260
h693z" />
    <glyph glyph-name="eacute" unicode="&#xe9;" horiz-adv-x="1169" 
d="M550 1250l119 310h126l-119 -310h-126zM597 109c80.667 0 147.998 18 201.998 54s97 87.333 129 154l139 -51c-43.333 -95.333 -105.5 -168.5 -186.5 -219.5s-175.5 -76.5 -283.5 -76.5c-78 0 -148.833 13.5 -212.5 40.5s-118 65.167 -163 114.5
s-79.833 109.166 -104.5 179.499s-37 148.833 -37 235.5c0 87.333 12 166.166 36 236.499s58.333 130.166 103 179.499s98.334 87.333 161.001 114s133 40 211 40c81.333 0 153.333 -14 216 -42s115.334 -68.333 158.001 -121s74.5 -116.667 95.5 -192
s30.167 -160.666 27.5 -255.999h-851c3.33301 -61.333 14 -116.166 32 -164.499s42.5 -89.166 73.5 -122.499s68 -58.833 111 -76.5s90.833 -26.5 143.5 -26.5zM932.998 622c-9.33301 114 -43.332 201.167 -101.999 261.5s-138.667 90.5 -240 90.5
c-100.667 0 -181.334 -30.667 -242.001 -92s-97 -148 -109 -260h693z" />
    <glyph glyph-name="ecircumflex" unicode="&#xea;" horiz-adv-x="1169" 
d="M522 1520h136l229 -270h-150l-147 173l-147 -173h-150zM597 109c80.667 0 147.998 18 201.998 54s97 87.333 129 154l139 -51c-43.333 -95.333 -105.5 -168.5 -186.5 -219.5s-175.5 -76.5 -283.5 -76.5c-78 0 -148.833 13.5 -212.5 40.5s-118 65.167 -163 114.5
s-79.833 109.166 -104.5 179.499s-37 148.833 -37 235.5c0 87.333 12 166.166 36 236.499s58.333 130.166 103 179.499s98.334 87.333 161.001 114s133 40 211 40c81.333 0 153.333 -14 216 -42s115.334 -68.333 158.001 -121s74.5 -116.667 95.5 -192
s30.167 -160.666 27.5 -255.999h-851c3.33301 -61.333 14 -116.166 32 -164.499s42.5 -89.166 73.5 -122.499s68 -58.833 111 -76.5s90.833 -26.5 143.5 -26.5zM932.998 622c-9.33301 114 -43.332 201.167 -101.999 261.5s-138.667 90.5 -240 90.5
c-100.667 0 -181.334 -30.667 -242.001 -92s-97 -148 -109 -260h693z" />
    <glyph glyph-name="edieresis" unicode="&#xeb;" horiz-adv-x="1169" 
d="M702 1451h160v-160h-160v160zM321 1451h160v-160h-160v160zM597 109c80.667 0 147.998 18 201.998 54s97 87.333 129 154l139 -51c-43.333 -95.333 -105.5 -168.5 -186.5 -219.5s-175.5 -76.5 -283.5 -76.5c-78 0 -148.833 13.5 -212.5 40.5s-118 65.167 -163 114.5
s-79.833 109.166 -104.5 179.499s-37 148.833 -37 235.5c0 87.333 12 166.166 36 236.499s58.333 130.166 103 179.499s98.334 87.333 161.001 114s133 40 211 40c81.333 0 153.333 -14 216 -42s115.334 -68.333 158.001 -121s74.5 -116.667 95.5 -192
s30.167 -160.666 27.5 -255.999h-851c3.33301 -61.333 14 -116.166 32 -164.499s42.5 -89.166 73.5 -122.499s68 -58.833 111 -76.5s90.833 -26.5 143.5 -26.5zM932.998 622c-9.33301 114 -43.332 201.167 -101.999 261.5s-138.667 90.5 -240 90.5
c-100.667 0 -181.334 -30.667 -242.001 -92s-97 -148 -109 -260h693z" />
    <glyph glyph-name="igrave" unicode="&#xec;" horiz-adv-x="467" 
d="M168 1250l-120 310h126l120 -310h-126zM160 0v1080h147v-1080h-147z" />
    <glyph glyph-name="iacute" unicode="&#xed;" horiz-adv-x="467" 
d="M299 1250h-126l119 310h126zM160 0v1080h147v-1080h-147z" />
    <glyph glyph-name="icircumflex" unicode="&#xee;" horiz-adv-x="467" 
d="M-59 1250l230 270h136l229 -270h-150l-147 173l-148 -173h-150zM160 0v1080h147v-1080h-147z" />
    <glyph glyph-name="idieresis" unicode="&#xef;" horiz-adv-x="467" 
d="M344 1291v160h160v-160h-160zM-37 1291v160h160v-160h-160zM160 0v1080h147v-1080h-147z" />
    <glyph glyph-name="eth" unicode="&#xf0;" horiz-adv-x="1165" 
d="M583 -30h-4.99707c-99.333 0 -186.666 21.833 -261.999 65.5s-133.333 106 -174 187s-61.334 174.5 -62.001 280.5c0.666992 108 21.667 202.333 63 283s99.166 142.667 173.499 186s160.166 65 257.499 65h9h10c65.333 0 127.5 -12.333 186.5 -37
s110.833 -61.667 155.5 -111c-10.667 90 -37.667 169.333 -81 238c-34 52.667 -76 97 -126 133l-111 -135l-93 78l96 117c-54.667 22.667 -114.334 36.334 -179.001 41.001l20 123c91.333 -4.66699 173.333 -23.334 246 -56.001l112 137l94 -79l-100 -122
c58 -44 106 -99.667 144 -167c34 -52.667 60 -109.5 78 -170.5s30.833 -131.833 38.5 -212.5s11.5 -183 11.5 -307c0 -108 -20.333 -202.667 -61 -284s-98.5 -143.833 -173.5 -187.5s-162.5 -65.5 -262.5 -65.5h-5zM583.003 106c75.333 0 139.167 16 191.5 48s92 78 119 138
s40.5 131 40.5 213s-13.833 153 -41.5 213s-67.334 105.5 -119.001 136.5s-112.167 46.5 -181.5 46.5h-9h-9c-71.333 0 -132.833 -15.667 -184.5 -47s-91 -77 -118 -137s-40.5 -131 -40.5 -213c0 -83.333 13.667 -154.833 41 -214.5s67.333 -105.167 120 -136.5
s116.334 -47 191.001 -47z" />
    <glyph glyph-name="ntilde" unicode="&#xf1;" horiz-adv-x="1186" 
d="M744 1252c-27.333 0 -54.001 5.5 -80.001 16.5s-56.667 27.167 -92 48.5c-28.667 16.667 -52.167 28.834 -70.5 36.501s-35.5 11.5 -51.5 11.5c-16.667 0 -29.667 -4.66699 -39 -14s-14.333 -18.5 -15 -27.5s-1 -15.167 -1 -18.5c0 -12 2 -24 6 -36h-104
c-5.33301 21.333 -8 41.333 -8 60c0 16.667 3.16699 37 9.5 61s22.333 45.5 48 64.5s57.834 28.5 96.501 28.5c27.333 0 54 -5.5 80 -16.5s57.333 -26.833 94 -47.5c29.333 -16.667 52.833 -29 70.5 -37s34.5 -12 50.5 -12c22.667 0 37.5 7.33301 44.5 22s10.5 28 10.5 40
c0 11.333 -2 23.666 -6 36.999h104c5.33301 -20.667 8 -40.667 8 -60c0 -16.667 -3.16699 -37.167 -9.5 -61.5s-22.333 -46.333 -48 -66s-58.167 -29.5 -97.5 -29.5zM918.999 593c0 67.333 -7.49902 124.67 -22.499 172.003s-36.333 86.166 -64 116.499
s-60.667 52.5 -99 66.5s-80.833 21 -127.5 21c-46 0 -88.667 -7 -128 -21s-73.166 -36 -101.499 -66s-50.5 -68.833 -66.5 -116.5s-24 -105.167 -24 -172.5v-593h-147v1080h147v-161c12.667 24 28.5 47.5 47.5 70.5s42.333 43.333 70 61s60.167 32 97.5 43
s80.666 16.5 129.999 16.5c65.333 0 124.666 -9.83301 177.999 -29.5s99 -49.834 137 -90.501s67.5 -92.334 88.5 -155.001s31.5 -136.667 31.5 -222v-613h-147v593z" />
    <glyph glyph-name="ograve" unicode="&#xf2;" horiz-adv-x="1183" 
d="M400 1560h126l120 -310h-126zM591 -30c-80 0 -151.667 14 -215 42s-117 67.167 -161 117.5s-77.5 110.5 -100.5 180.5s-34.5 147 -34.5 231c0 84.667 11.833 162 35.5 232s57.5 130 101.5 180s97.667 88.667 161 116s134.333 41 213 41c80.667 0 152.667 -14 216 -42
s117 -67 161 -117s77.5 -109.833 100.5 -179.5s34.5 -146.5 34.5 -230.5c0 -84.667 -11.667 -162.167 -35 -232.5s-57 -130.5 -101 -180.5s-97.667 -88.833 -161 -116.5s-135 -41.5 -215 -41.5zM591 111c59.333 0 111.167 10.334 155.5 31.001s81.333 49.667 111 87
s52 82.5 67 135.5s22.5 111.833 22.5 176.5c0 66 -7.5 125.333 -22.5 178s-37.5 97.5 -67.5 134.5s-67.167 65.5 -111.5 85.5s-95.833 30 -154.5 30c-59.333 0 -111.166 -10.167 -155.499 -30.5s-81.333 -49.333 -111 -87s-51.834 -82.834 -66.501 -135.501
s-22 -111 -22 -175c0 -66 7.66699 -125.5 23 -178.5s37.833 -98.167 67.5 -135.5s66.667 -66 111 -86s95.5 -30 153.5 -30z" />
    <glyph glyph-name="oacute" unicode="&#xf3;" horiz-adv-x="1183" 
d="M528 1250l119 310h126l-119 -310h-126zM591 -30c-80 0 -151.667 14 -215 42s-117 67.167 -161 117.5s-77.5 110.5 -100.5 180.5s-34.5 147 -34.5 231c0 84.667 11.833 162 35.5 232s57.5 130 101.5 180s97.667 88.667 161 116s134.333 41 213 41
c80.667 0 152.667 -14 216 -42s117 -67 161 -117s77.5 -109.833 100.5 -179.5s34.5 -146.5 34.5 -230.5c0 -84.667 -11.667 -162.167 -35 -232.5s-57 -130.5 -101 -180.5s-97.667 -88.833 -161 -116.5s-135 -41.5 -215 -41.5zM591 111c59.333 0 111.167 10.334 155.5 31.001
s81.333 49.667 111 87s52 82.5 67 135.5s22.5 111.833 22.5 176.5c0 66 -7.5 125.333 -22.5 178s-37.5 97.5 -67.5 134.5s-67.167 65.5 -111.5 85.5s-95.833 30 -154.5 30c-59.333 0 -111.166 -10.167 -155.499 -30.5s-81.333 -49.333 -111 -87
s-51.834 -82.834 -66.501 -135.501s-22 -111 -22 -175c0 -66 7.66699 -125.5 23 -178.5s37.833 -98.167 67.5 -135.5s66.667 -66 111 -86s95.5 -30 153.5 -30z" />
    <glyph glyph-name="ocircumflex" unicode="&#xf4;" horiz-adv-x="1183" 
d="M523 1520h136l229 -270h-150l-147 173l-148 -173h-150zM591 -30c-80 0 -151.667 14 -215 42s-117 67.167 -161 117.5s-77.5 110.5 -100.5 180.5s-34.5 147 -34.5 231c0 84.667 11.833 162 35.5 232s57.5 130 101.5 180s97.667 88.667 161 116s134.333 41 213 41
c80.667 0 152.667 -14 216 -42s117 -67 161 -117s77.5 -109.833 100.5 -179.5s34.5 -146.5 34.5 -230.5c0 -84.667 -11.667 -162.167 -35 -232.5s-57 -130.5 -101 -180.5s-97.667 -88.833 -161 -116.5s-135 -41.5 -215 -41.5zM591 111c59.333 0 111.167 10.334 155.5 31.001
s81.333 49.667 111 87s52 82.5 67 135.5s22.5 111.833 22.5 176.5c0 66 -7.5 125.333 -22.5 178s-37.5 97.5 -67.5 134.5s-67.167 65.5 -111.5 85.5s-95.833 30 -154.5 30c-59.333 0 -111.166 -10.167 -155.499 -30.5s-81.333 -49.333 -111 -87
s-51.834 -82.834 -66.501 -135.501s-22 -111 -22 -175c0 -66 7.66699 -125.5 23 -178.5s37.833 -98.167 67.5 -135.5s66.667 -66 111 -86s95.5 -30 153.5 -30z" />
    <glyph glyph-name="otilde" unicode="&#xf5;" horiz-adv-x="1183" 
d="M743 1252c-27.333 0 -54.0029 5.49707 -80.0029 16.4971s-57 27.167 -93 48.5c-28.667 16.667 -52 28.834 -70 36.501s-35 11.5 -51 11.5c-16.667 0 -29.667 -4.66699 -39 -14s-14.333 -18.5 -15 -27.5s-1 -15.5 -1 -19.5c0 -11.333 1.66699 -23 5 -35h-104
c-5.33301 20.667 -8 40.334 -8 59.001c0 17.333 3.33301 38 10 62s22.834 45.5 48.501 64.5s57.5 28.5 95.5 28.5c28 0 55 -5.5 81 -16.5s57.333 -26.833 94 -47.5c28.667 -16.667 51.834 -29 69.501 -37s34.834 -12 51.501 -12c22.667 0 37.5 7.33301 44.5 22
s10.5 28.334 10.5 41.001c0 11.333 -2 23.333 -6 36h104c5.33301 -20.667 8 -40.667 8 -60c0 -16.667 -3.16699 -37.167 -9.5 -61.5s-22.5 -46.333 -48.5 -66s-58.333 -29.5 -97 -29.5zM590.997 -30.0029c-80 0 -151.667 14 -215 42s-117 67.167 -161 117.5
s-77.5 110.5 -100.5 180.5s-34.5 147 -34.5 231c0 84.667 11.833 162 35.5 232s57.5 130 101.5 180s97.667 88.667 161 116s134.333 41 213 41c80.667 0 152.667 -14 216 -42s117 -67 161 -117s77.5 -109.833 100.5 -179.5s34.5 -146.5 34.5 -230.5
c0 -84.667 -11.667 -162.167 -35 -232.5s-57 -130.5 -101 -180.5s-97.667 -88.833 -161 -116.5s-135 -41.5 -215 -41.5zM590.997 110.997c59.333 0 111.167 10.334 155.5 31.001s81.333 49.667 111 87s52 82.5 67 135.5s22.5 111.833 22.5 176.5
c0 66 -7.5 125.333 -22.5 178s-37.5 97.5 -67.5 134.5s-67.167 65.5 -111.5 85.5s-95.833 30 -154.5 30c-59.333 0 -111.166 -10.167 -155.499 -30.5s-81.333 -49.333 -111 -87s-51.834 -82.834 -66.501 -135.501s-22 -111 -22 -175c0 -66 7.66699 -125.5 23 -178.5
s37.833 -98.167 67.5 -135.5s66.667 -66 111 -86s95.5 -30 153.5 -30z" />
    <glyph glyph-name="odieresis" unicode="&#xf6;" horiz-adv-x="1183" 
d="M703 1451h160v-160h-160v160zM321 1451h160v-160h-160v160zM591 -30c-80 0 -151.667 14 -215 42s-117 67.167 -161 117.5s-77.5 110.5 -100.5 180.5s-34.5 147 -34.5 231c0 84.667 11.833 162 35.5 232s57.5 130 101.5 180s97.667 88.667 161 116s134.333 41 213 41
c80.667 0 152.667 -14 216 -42s117 -67 161 -117s77.5 -109.833 100.5 -179.5s34.5 -146.5 34.5 -230.5c0 -84.667 -11.667 -162.167 -35 -232.5s-57 -130.5 -101 -180.5s-97.667 -88.833 -161 -116.5s-135 -41.5 -215 -41.5zM591 111c59.333 0 111.167 10.334 155.5 31.001
s81.333 49.667 111 87s52 82.5 67 135.5s22.5 111.833 22.5 176.5c0 66 -7.5 125.333 -22.5 178s-37.5 97.5 -67.5 134.5s-67.167 65.5 -111.5 85.5s-95.833 30 -154.5 30c-59.333 0 -111.166 -10.167 -155.499 -30.5s-81.333 -49.333 -111 -87
s-51.834 -82.834 -66.501 -135.501s-22 -111 -22 -175c0 -66 7.66699 -125.5 23 -178.5s37.833 -98.167 67.5 -135.5s66.667 -66 111 -86s95.5 -30 153.5 -30z" />
    <glyph glyph-name="divide" unicode="&#xf7;" horiz-adv-x="1080" 
d="M120 657v126h840v-126h-840zM465 911v171h171v-171h-171zM465 368v171h171v-171h-171z" />
    <glyph glyph-name="oslash" unicode="&#xf8;" horiz-adv-x="1183" 
d="M140 -10c-7.33301 0 -15.499 4 -24.499 12s-18 17.5 -27 28.5l-26.5 33.5c-8.66699 11.333 -16 20 -22 26l119 119c-25.333 46 -44.833 96.833 -58.5 152.5s-20.5 115.5 -20.5 179.5c0 84.667 11.833 162 35.5 232s57.5 130 101.5 180s97.667 88.667 161 116
s134.333 41 213 41c72 0 136.833 -11 194.5 -33s107.834 -53 150.501 -93l107 106l100 -99l-119 -118c52.667 -92 79 -202.667 79 -332c0 -84.667 -11.667 -162.167 -35 -232.5s-57 -130.5 -101 -180.5s-97.667 -88.833 -161 -116.5s-135 -41.5 -215 -41.5
c-70.667 0 -134.334 10.667 -191.001 32s-106.667 52 -150 92c-16.667 -20 -33.834 -39.5 -51.501 -58.5s-37.167 -34.167 -58.5 -45.5zM840.001 874c-30 30.667 -65.5 54.168 -106.5 70.501s-88.5 24.5 -142.5 24.5c-59.333 0 -111.166 -10.167 -155.499 -30.5
s-81.333 -49.333 -111 -87s-51.834 -82.834 -66.501 -135.501s-22 -111 -22 -175c0 -88 13.667 -164 41 -228zM591.001 111.001c59.333 0 111.167 10.333 155.5 31s81.333 49.667 111 87s52 82.5 67 135.5s22.5 111.833 22.5 176.5c0 89.333 -13.333 165.666 -40 228.999
l-563 -563c30 -31.333 65.5 -55.166 106.5 -71.499s87.833 -24.5 140.5 -24.5z" />
    <glyph glyph-name="ugrave" unicode="&#xf9;" horiz-adv-x="1187" 
d="M538 1250l-119 310h126l119 -310h-126zM267 487c0 -66.667 7.49902 -123.835 22.499 -171.502s36.333 -86.667 64 -117s60.667 -52.5 99 -66.5s80.833 -21 127.5 -21c46 0 88.667 7 128 21s73.166 36 101.499 66s50.5 68.833 66.5 116.5s24 105.167 24 172.5v593h147
v-1080h-147v161c-12.667 -24 -28.5 -47.5 -47.5 -70.5s-42.333 -43.333 -70 -61s-60.167 -32 -97.5 -43s-80.666 -16.5 -129.999 -16.5c-65.333 0 -124.666 9.83301 -177.999 29.5s-99 49.834 -137 90.501s-67.5 92.334 -88.5 155.001s-31.5 136.667 -31.5 222v613h147v-593
z" />
    <glyph glyph-name="uacute" unicode="&#xfa;" horiz-adv-x="1187" 
d="M640 1250h-126l120 310h126zM267 487c0 -66.667 7.49902 -123.832 22.499 -171.499s36.333 -86.667 64 -117s60.667 -52.5 99 -66.5s80.833 -21 127.5 -21c44 0 85 6.5 123 19.5s71 33.333 99 61s50.5 63.167 67.5 106.5s26.833 95.666 29.5 156.999v625h148v-1080h-148
v159c-12.667 -24 -28.5 -47.333 -47.5 -70s-42.333 -42.834 -70 -60.501s-60 -31.834 -97 -42.501s-80.167 -16 -129.5 -16c-65.333 0 -124.666 9.83301 -177.999 29.5s-99 49.834 -137 90.501s-67.5 92.334 -88.5 155.001s-31.5 136.667 -31.5 222v613h147v-593z" />
    <glyph glyph-name="ucircumflex" unicode="&#xfb;" horiz-adv-x="1187" 
d="M284 1250l229 270h136l230 -270h-150l-148 173l-147 -173h-150zM267 487c0 -66.667 7.49902 -123.835 22.499 -171.502s36.333 -86.667 64 -117s60.667 -52.5 99 -66.5s80.833 -21 127.5 -21c46 0 88.667 7 128 21s73.166 36 101.499 66s50.5 68.833 66.5 116.5
s24 105.167 24 172.5v593h147v-1080h-147v161c-12.667 -24 -28.5 -47.5 -47.5 -70.5s-42.333 -43.333 -70 -61s-60.167 -32 -97.5 -43s-80.666 -16.5 -129.999 -16.5c-65.333 0 -124.666 9.83301 -177.999 29.5s-99 49.834 -137 90.501s-67.5 92.334 -88.5 155.001
s-31.5 136.667 -31.5 222v613h147v-593z" />
    <glyph glyph-name="udieresis" unicode="&#xfc;" horiz-adv-x="1187" 
d="M693 1291v160h160v-160h-160zM312 1291v160h160v-160h-160zM267 487c0 -66.667 7.49902 -123.835 22.499 -171.502s36.333 -86.667 64 -117s60.667 -52.5 99 -66.5s80.833 -21 127.5 -21c46 0 88.667 7 128 21s73.166 36 101.499 66s50.5 68.833 66.5 116.5
s24 105.167 24 172.5v593h147v-1080h-147v161c-12.667 -24 -28.5 -47.5 -47.5 -70.5s-42.333 -43.333 -70 -61s-60.167 -32 -97.5 -43s-80.666 -16.5 -129.999 -16.5c-65.333 0 -124.666 9.83301 -177.999 29.5s-99 49.834 -137 90.501s-67.5 92.334 -88.5 155.001
s-31.5 136.667 -31.5 222v613h147v-593z" />
    <glyph glyph-name="yacute" unicode="&#xfd;" horiz-adv-x="1055" 
d="M590 1250h-126l119 310h126zM294 -480l178 482l-439 1078h156l354 -888l328 888h150l-580 -1560h-147z" />
    <glyph glyph-name="thorn" unicode="&#xfe;" horiz-adv-x="1233" 
d="M139 -480l0.00195312 1921h147v-542c35.333 66 84 117.667 146 155s138.333 56 229 56c76.667 0 145.5 -14 206.5 -42s112.667 -67.167 155 -117.5s74.666 -110.333 96.999 -180s33.5 -146.167 33.5 -229.5c0 -84.667 -11.333 -162.167 -34 -232.5
s-55.334 -130.5 -98.001 -180.5s-94.334 -88.833 -155.001 -116.5s-129 -41.5 -205 -41.5c-91.333 0 -167.666 18.667 -228.999 56s-110 89 -146 155v-661h-147zM641.002 111c60 0 112.333 10.498 157 31.498s81.667 50.333 111 88s51.333 82.834 66 135.501s22 111 22 175
c0 65.333 -7.33301 124.333 -22 177s-36.834 97.5 -66.501 134.5s-66.834 65.667 -111.501 86s-96.667 30.5 -156 30.5c-60.667 0 -113.167 -10.5 -157.5 -31.5s-81.166 -50.333 -110.499 -88s-51.166 -82.667 -65.499 -135s-21.5 -110.166 -21.5 -173.499
c0 -64.667 7.5 -123.5 22.5 -176.5s37.333 -98.333 67 -136s66.667 -66.667 111 -87s95.833 -30.5 154.5 -30.5z" />
    <glyph glyph-name="ydieresis" unicode="&#xff;" horiz-adv-x="1055" 
d="M648 1291v160h160v-160h-160zM267 1291v160h160v-160h-160zM294 -480l178 482l-439 1078h156l354 -888l328 888h150l-580 -1560h-147z" />
    <glyph glyph-name="Amacron" unicode="&#x100;" horiz-adv-x="1268" 
d="M384 1805h501v-125h-501v125zM1230 0h-156l-122 349h-637l-122 -349h-155l505 1440h182zM904 487l-271 776l-270 -776h541z" />
    <glyph glyph-name="amacron" unicode="&#x101;" horiz-adv-x="1111" 
d="M349 1445h501v-125h-501v125zM561 1110c286.667 0 430.001 -149.668 430.001 -449.001v-661h-146v182c-38.667 -69.333 -91 -122 -157 -158s-144.333 -54 -235 -54c-58 0 -110 7.16699 -156 21.5s-85 35 -117 62s-56.667 59.833 -74 98.5s-26 82.334 -26 131.001
c0 56.667 10.5 105.167 31.5 145.5s50.667 74 89 101s84.666 48.5 138.999 64.5s114.5 28 180.5 36l325 41c0 106 -23 183.167 -69 231.5s-118.333 72.5 -217 72.5c-162.667 0 -262.334 -67.667 -299.001 -203l-139 33c25.333 98.667 75.833 174.167 151.5 226.5
s171.834 78.5 288.501 78.5zM534.001 510.999c-54.667 -6.66699 -101.499 -16 -140.499 -28s-71 -26.833 -96 -44.5s-43.167 -38.667 -54.5 -63s-17 -52.5 -17 -84.5c0 -126.667 84.333 -190 253 -190c46.667 0 89.667 6.5 129 19.5s74.166 31.667 104.499 56
s55.5 53.833 75.5 88.5s34.333 73.334 43 116.001c6.66699 27.333 10.667 56.166 12 86.499s2 57.5 2 81.5z" />
    <glyph glyph-name="Abreve" unicode="&#x102;" horiz-adv-x="1268" 
d="M635 1568c-47.333 0 -90.668 11.5 -130.001 34.5s-70.5 54.333 -93.5 94s-34.5 82.834 -34.5 129.501h122c0 -24.667 6.16699 -47.334 18.5 -68.001s28.833 -37.167 49.5 -49.5s43.334 -18.5 68.001 -18.5s47.334 6.16699 68.001 18.5s37.167 28.833 49.5 49.5
s18.5 43.334 18.5 68.001h122c0 -46.667 -11.5 -89.834 -34.5 -129.501s-54.333 -71 -94 -94s-82.834 -34.5 -129.501 -34.5zM1230 0h-156l-122 349h-637l-122 -349h-155l505 1440h182zM903.998 487l-271 776l-270 -776h541z" />
    <glyph glyph-name="abreve" unicode="&#x103;" horiz-adv-x="1111" 
d="M571 1208c-47.333 0 -90.668 11.5 -130.001 34.5s-70.5 54.333 -93.5 94s-34.5 82.834 -34.5 129.501h122c0 -24.667 6.16699 -47.334 18.5 -68.001s28.833 -37.167 49.5 -49.5s43.334 -18.5 68.001 -18.5s47.334 6.16699 68.001 18.5s37.167 28.833 49.5 49.5
s18.5 43.334 18.5 68.001h122c0 -46.667 -11.5 -89.834 -34.5 -129.501s-54.333 -71 -94 -94s-82.834 -34.5 -129.501 -34.5zM560.998 1110c286.667 0 430.001 -149.668 430.001 -449.001v-661h-146v182c-38.667 -69.333 -91 -122 -157 -158s-144.333 -54 -235 -54
c-58 0 -110 7.16699 -156 21.5s-85 35 -117 62s-56.667 59.833 -74 98.5s-26 82.334 -26 131.001c0 56.667 10.5 105.167 31.5 145.5s50.667 74 89 101s84.666 48.5 138.999 64.5s114.5 28 180.5 36l325 41c0 106 -23 183.167 -69 231.5s-118.333 72.5 -217 72.5
c-162.667 0 -262.334 -67.667 -299.001 -203l-139 33c25.333 98.667 75.833 174.167 151.5 226.5s171.834 78.5 288.501 78.5zM533.999 510.999c-54.667 -6.66699 -101.499 -16 -140.499 -28s-71 -26.833 -96 -44.5s-43.167 -38.667 -54.5 -63s-17 -52.5 -17 -84.5
c0 -126.667 84.333 -190 253 -190c46.667 0 89.667 6.5 129 19.5s74.166 31.667 104.499 56s55.5 53.833 75.5 88.5s34.333 73.334 43 116.001c6.66699 27.333 10.667 56.166 12 86.499s2 57.5 2 81.5z" />
    <glyph glyph-name="Aogonek" unicode="&#x104;" horiz-adv-x="1268" 
d="M1064 -482c-34.667 0 -66.666 9.00098 -95.999 27.001s-52.5 42 -69.5 72s-25.5 62 -25.5 96c0 42 12 85.667 36 131s57 89 99 131c18 18 37 35.333 57 52l-113 322h-637l-122 -349h-155l505 1440h182l505 -1440h-3c-40.667 -24.667 -78.334 -53.5 -113.001 -86.5
s-62.167 -66.5 -82.5 -100.5s-30.5 -64.667 -30.5 -92c0 -24.667 7.33301 -44.834 22 -60.501s32.667 -23.5 54 -23.5c14.667 0 30 4.33301 46 13s31.333 20.667 46 36l64 -79c-22 -28.667 -47.833 -50.667 -77.5 -66s-60.167 -23 -91.5 -23zM904.001 487.001l-271 776
l-270 -776h541z" />
    <glyph glyph-name="aogonek" unicode="&#x105;" horiz-adv-x="1111" 
d="M828 -482c-34.667 0 -66.665 8.99902 -95.998 26.999s-52.5 42 -69.5 72s-25.5 62 -25.5 96c0 42 12 85.667 36 131s57 89 99 131c22.667 22.667 47 44.334 73 65.001v142c-38.667 -69.333 -91 -122 -157 -158s-144.333 -54 -235 -54c-58 0 -110 7.16699 -156 21.5
s-85 35 -117 62s-56.667 59.833 -74 98.5s-26 82.334 -26 131.001c0 56.667 10.5 105.167 31.5 145.5s50.667 74 89 101s84.666 48.5 138.999 64.5s114.5 28 180.5 36l325 41c0 106 -23 183.167 -69 231.5s-118.333 72.5 -217 72.5
c-162.667 0 -262.334 -67.667 -299.001 -203l-139 33c25.333 98.667 75.833 174.167 151.5 226.5s171.834 78.5 288.501 78.5c286.667 0 430 -149.667 430 -449v-661c-40.667 -24.667 -78.334 -53.5 -113.001 -86.5s-62.167 -66.5 -82.5 -100.5s-30.5 -64.667 -30.5 -92
c0 -24.667 7.33301 -44.834 22 -60.501s32.667 -23.5 54 -23.5c14.667 0 30 4.33301 46 13s31.333 20.667 46 36l64 -79c-22 -28.667 -47.833 -50.667 -77.5 -66s-60.167 -23 -91.5 -23zM534.002 510.999c-54.667 -6.66699 -101.499 -16 -140.499 -28s-71 -26.833 -96 -44.5
s-43.167 -38.667 -54.5 -63s-17 -52.5 -17 -84.5c0 -126.667 84.333 -190 253 -190c46.667 0 89.667 6.5 129 19.5s74.166 31.667 104.499 56s55.5 53.833 75.5 88.5s34.333 73.334 43 116.001c6.66699 27.333 10.667 56.166 12 86.499s2 57.5 2 81.5z" />
    <glyph glyph-name="Cacute" unicode="&#x106;" horiz-adv-x="1431" 
d="M674 1610l119 310h126l-119 -310h-126zM723 -30c-107.333 0 -202.331 18.3369 -284.998 55.0039s-152 88 -208 154s-98.333 145 -127 237s-43 193.333 -43 304s14.333 212 43 304s71 171 127 237s125.333 117.333 208 154s177.667 55 285 55
c83.333 0 159.333 -11.167 228 -33.5s129.334 -54 182.001 -95s97.167 -90.667 133.5 -149s64.5 -123.5 84.5 -195.5l-150 -39c-15.333 56.667 -36.666 107.834 -63.999 153.501s-61 84.667 -101 117s-86 57.166 -138 74.499s-110.333 26 -175 26
c-83.333 0 -156.666 -14.833 -219.999 -44.5s-116.333 -71.334 -159 -125.001s-74.834 -117.834 -96.501 -192.501s-32.5 -157 -32.5 -247s10.667 -172.333 32 -247s53.166 -138.834 95.499 -192.501s95.166 -95.334 158.499 -125.001s137.333 -44.5 222 -44.5
c64.667 0 123 8.66699 175 26s98 42.166 138 74.499s73.667 71.333 101 117s48.666 96.834 63.999 153.501l150 -39c-20 -72 -48.167 -137.167 -84.5 -195.5s-80.833 -108 -133.5 -149s-113.334 -72.667 -182.001 -95s-144.667 -33.5 -228 -33.5z" />
    <glyph glyph-name="cacute" unicode="&#x107;" horiz-adv-x="1107" 
d="M540 1250l119 310h126l-119 -310h-126zM588 -30c-79.333 0 -150.333 13.5 -213 40.5s-115.834 65.333 -159.501 115s-77.167 109.667 -100.5 180s-35 148.5 -35 234.5c0 87.333 11.667 166 35 236s57 129.833 101 179.5s97.5 87.834 160.5 114.501s133.833 40 212.5 40
c54.667 0 106.167 -7 154.5 -21s92 -33.833 131 -59.5s72.833 -57 101.5 -94s50.334 -78.5 65.001 -124.5l-144 -46c-12.667 32 -29.334 60.667 -50.001 86s-44.167 46.666 -70.5 63.999s-55.5 30.666 -87.5 39.999s-65.667 14 -101 14c-56.667 0 -107 -10 -151 -30
s-80.833 -48.5 -110.5 -85.5s-52.167 -82 -67.5 -135s-23 -112.5 -23 -178.5c0 -66.667 7.83301 -126.5 23.5 -179.5s38.5 -98 68.5 -135s66.833 -65.333 110.5 -85s93.5 -29.5 149.5 -29.5c74.667 0 137.334 16.833 188.001 50.5s89.667 82.834 117 147.501l148 -44
c-40.667 -96.667 -99.5 -170 -176.5 -220s-169.167 -75 -276.5 -75z" />
    <glyph glyph-name="Ccircumflex" unicode="&#x108;" horiz-adv-x="1431" 
d="M655 1880h136l229 -270h-150l-147 173l-148 -173h-150zM723 -30c-107.333 0 -202.331 18.3369 -284.998 55.0039s-152 88 -208 154s-98.333 145 -127 237s-43 193.333 -43 304s14.333 212 43 304s71 171 127 237s125.333 117.333 208 154s177.667 55 285 55
c83.333 0 159.333 -11.167 228 -33.5s129.334 -54 182.001 -95s97.167 -90.667 133.5 -149s64.5 -123.5 84.5 -195.5l-150 -39c-15.333 56.667 -36.666 107.834 -63.999 153.501s-61 84.667 -101 117s-86 57.166 -138 74.499s-110.333 26 -175 26
c-83.333 0 -156.666 -14.833 -219.999 -44.5s-116.333 -71.334 -159 -125.001s-74.834 -117.834 -96.501 -192.501s-32.5 -157 -32.5 -247s10.667 -172.333 32 -247s53.166 -138.834 95.499 -192.501s95.166 -95.334 158.499 -125.001s137.333 -44.5 222 -44.5
c64.667 0 123 8.66699 175 26s98 42.166 138 74.499s73.667 71.333 101 117s48.666 96.834 63.999 153.501l150 -39c-20 -72 -48.167 -137.167 -84.5 -195.5s-80.833 -108 -133.5 -149s-113.334 -72.667 -182.001 -95s-144.667 -33.5 -228 -33.5z" />
    <glyph glyph-name="ccircumflex" unicode="&#x109;" horiz-adv-x="1107" 
d="M523 1520h136l229 -270h-150l-147 173l-148 -173h-150zM588 -30c-79.333 0 -150.331 13.498 -212.998 40.498s-115.834 65.333 -159.501 115s-77.167 109.667 -100.5 180s-35 148.5 -35 234.5c0 87.333 11.667 166 35 236s57 129.833 101 179.5
s97.5 87.834 160.5 114.501s133.833 40 212.5 40c54.667 0 106.167 -7 154.5 -21s92 -33.833 131 -59.5s72.833 -57 101.5 -94s50.334 -78.5 65.001 -124.5l-144 -46c-12.667 32 -29.334 60.667 -50.001 86s-44.334 46.833 -71.001 64.5s-55.834 31 -87.501 40
s-65.167 13.5 -100.5 13.5c-56.667 0 -107 -10 -151 -30s-80.833 -48.5 -110.5 -85.5s-52.167 -82 -67.5 -135s-23 -112.5 -23 -178.5c0 -66.667 7.83301 -126.5 23.5 -179.5s38.5 -98 68.5 -135s66.833 -65.333 110.5 -85s93.5 -29.5 149.5 -29.5
c74.667 0 137.334 16.833 188.001 50.5s89.667 82.834 117 147.501l148 -44c-40.667 -96.667 -99.5 -170 -176.5 -220s-169.167 -75 -276.5 -75z" />
    <glyph glyph-name="Cdotaccent" unicode="&#x10a;" horiz-adv-x="1431" 
d="M654 1840h171v-171h-171v171zM723 -30c-107.333 0 -202.331 18.3369 -284.998 55.0039s-152 88 -208 154s-98.333 145 -127 237s-43 193.333 -43 304s14.333 212 43 304s71 171 127 237s125.333 117.333 208 154s177.667 55 285 55c83.333 0 159.333 -11.167 228 -33.5
s129.334 -54 182.001 -95s97.167 -90.667 133.5 -149s64.5 -123.5 84.5 -195.5l-150 -39c-15.333 56.667 -36.666 107.834 -63.999 153.501s-61 84.667 -101 117s-86 57.166 -138 74.499s-110.333 26 -175 26c-83.333 0 -156.666 -14.833 -219.999 -44.5
s-116.333 -71.334 -159 -125.001s-74.834 -117.834 -96.501 -192.501s-32.5 -157 -32.5 -247s10.667 -172.333 32 -247s53.166 -138.834 95.499 -192.501s95.166 -95.334 158.499 -125.001s137.333 -44.5 222 -44.5c64.667 0 123 8.66699 175 26s98 42.166 138 74.499
s73.667 71.333 101 117s48.666 96.834 63.999 153.501l150 -39c-20 -72 -48.167 -137.167 -84.5 -195.5s-80.833 -108 -133.5 -149s-113.334 -72.667 -182.001 -95s-144.667 -33.5 -228 -33.5z" />
    <glyph glyph-name="cdotaccent" unicode="&#x10b;" horiz-adv-x="1107" 
d="M495 1480h170v-171h-170v171zM588 -30c-79.333 0 -150.333 13.5 -213 40.5s-115.834 65.333 -159.501 115s-77.167 109.667 -100.5 180s-35 148.5 -35 234.5c0 87.333 11.667 166 35 236s57 129.833 101 179.5s97.5 87.834 160.5 114.501s133.833 40 212.5 40
c54.667 0 106.167 -7 154.5 -21s92 -33.833 131 -59.5s72.833 -57 101.5 -94s50.334 -78.5 65.001 -124.5l-144 -46c-12.667 32 -29.334 60.667 -50.001 86s-44.167 46.666 -70.5 63.999s-55.5 30.666 -87.5 39.999s-65.667 14 -101 14c-56.667 0 -107 -10 -151 -30
s-80.833 -48.5 -110.5 -85.5s-52.167 -82 -67.5 -135s-23 -112.5 -23 -178.5c0 -66.667 7.83301 -126.5 23.5 -179.5s38.5 -98 68.5 -135s66.833 -65.333 110.5 -85s93.5 -29.5 149.5 -29.5c74.667 0 137.334 16.833 188.001 50.5s89.667 82.834 117 147.501l148 -44
c-40.667 -96.667 -99.5 -170 -176.5 -220s-169.167 -75 -276.5 -75z" />
    <glyph glyph-name="Ccaron" unicode="&#x10c;" horiz-adv-x="1431" 
d="M613 1880l148 -173l147 173h150l-229 -270h-136l-230 270h150zM723 -30c-107.333 0 -202.331 18.3369 -284.998 55.0039s-152 88 -208 154s-98.333 145 -127 237s-43 193.333 -43 304s14.333 212 43 304s71 171 127 237s125.333 117.333 208 154s177.667 55 285 55
c83.333 0 159.333 -11.167 228 -33.5s129.334 -54 182.001 -95s97.167 -90.667 133.5 -149s64.5 -123.5 84.5 -195.5l-150 -39c-15.333 56.667 -36.666 107.834 -63.999 153.501s-61 84.667 -101 117s-86 57.166 -138 74.499s-110.333 26 -175 26
c-83.333 0 -156.666 -14.833 -219.999 -44.5s-116.333 -71.334 -159 -125.001s-74.834 -117.834 -96.501 -192.501s-32.5 -157 -32.5 -247s10.667 -172.333 32 -247s53.166 -138.834 95.499 -192.501s95.166 -95.334 158.499 -125.001s137.333 -44.5 222 -44.5
c64.667 0 123 8.66699 175 26s98 42.166 138 74.499s73.667 71.333 101 117s48.666 96.834 63.999 153.501l150 -39c-20 -72 -48.167 -137.167 -84.5 -195.5s-80.833 -108 -133.5 -149s-113.334 -72.667 -182.001 -95s-144.667 -33.5 -228 -33.5z" />
    <glyph glyph-name="ccaron" unicode="&#x10d;" horiz-adv-x="1107" 
d="M441 1520l147 -173l147 173h150l-229 -270h-136l-229 270h150zM588 -30c-79.333 0 -150.333 13.5 -213 40.5s-115.834 65.333 -159.501 115s-77.167 109.667 -100.5 180s-35 148.5 -35 234.5c0 87.333 11.667 166 35 236s57 129.833 101 179.5s97.5 87.834 160.5 114.501
s133.833 40 212.5 40c54.667 0 106.167 -7 154.5 -21s92 -33.833 131 -59.5s72.833 -57 101.5 -94s50.334 -78.5 65.001 -124.5l-144 -46c-12.667 32 -29.334 60.667 -50.001 86s-44.167 46.666 -70.5 63.999s-55.5 30.666 -87.5 39.999s-65.667 14 -101 14
c-56.667 0 -107 -10 -151 -30s-80.833 -48.5 -110.5 -85.5s-52.167 -82 -67.5 -135s-23 -112.5 -23 -178.5c0 -66.667 7.83301 -126.5 23.5 -179.5s38.5 -98 68.5 -135s66.833 -65.333 110.5 -85s93.5 -29.5 149.5 -29.5c74.667 0 137.334 16.833 188.001 50.5
s89.667 82.834 117 147.501l148 -44c-40.667 -96.667 -99.5 -170 -176.5 -220s-169.167 -75 -276.5 -75z" />
    <glyph glyph-name="Dcaron" unicode="&#x10e;" horiz-adv-x="1343" 
d="M443 1880l147 -173l147 173h150l-229 -270h-136l-229 270h150zM140 0v1440h417c229.333 0 403.333 -61.167 522 -183.5s178 -301.166 178 -536.499s-59.333 -414.166 -178 -536.499s-292.667 -183.5 -522 -183.5h-417zM291 140.998l250 -0.000976562
c190 0 330.833 47.333 422.5 142s137.5 240.334 137.5 437.001c0 196 -46 341.5 -138 436.5s-232.667 142.5 -422 142.5h-250v-1158z" />
    <glyph glyph-name="dcaron" unicode="&#x10f;" horiz-adv-x="1436" 
d="M1153 1440l-0.000976562 -1440h-146v181c-36 -66.667 -84.833 -118.5 -146.5 -155.5s-138.167 -55.5 -229.5 -55.5c-76.667 0 -145.334 14 -206.001 42s-112.167 67.167 -154.5 117.5s-74.833 110.333 -97.5 180s-34 146.167 -34 229.5c0 85.333 11.333 163 34 233
s55.334 130 98.001 180s94.334 88.833 155.001 116.5s129 41.5 205 41.5c92 0 168.667 -18.667 230 -56s110 -89 146 -155v541h146zM650.999 969c-60 0 -112.165 -10.502 -156.498 -31.502s-81.333 -50.333 -111 -88s-51.834 -82.834 -66.501 -135.501s-22 -111 -22 -175
c0 -64.667 7.5 -123.5 22.5 -176.5s37.333 -98 67 -135s66.667 -65.667 111 -86s96.166 -30.5 155.499 -30.5c60.667 0 113.334 10.5 158.001 31.5s81.667 50.333 111 88s51.166 82.834 65.499 135.501s21.5 110.334 21.5 173.001c0 65.333 -7.5 124.333 -22.5 177
s-37.5 97.834 -67.5 135.501s-67.167 66.667 -111.5 87s-95.833 30.5 -154.5 30.5zM1256 1107l7.99902 0.00195312c18 0 32.833 4.16699 44.5 12.5s19.667 20 24 35s6.5 33.167 6.5 54.5v9c-0.666992 4.66699 -1 9 -1 13v12h-91v211h171v-251
c0 -40.667 -7 -74.834 -21 -102.501s-31.667 -46.334 -53 -56.001s-41.666 -14.5 -60.999 -14.5c-11.333 0 -23.333 1.33301 -36 4z" />
    <glyph glyph-name="Dcroat" unicode="&#x110;" horiz-adv-x="1331" 
d="M20 783l119 -0.00195312v657h418c228.667 0 402.334 -61.167 521.001 -183.5s178 -301.166 178 -536.499s-59.333 -414.166 -178 -536.499s-292.334 -183.5 -521.001 -183.5h-418v657h-119v126zM291 782.998l359 -0.000976562v-126h-359v-516h249
c190 0 330.833 47.333 422.5 142s137.5 240.334 137.5 437.001c0 196 -46 341.5 -138 436.5s-232.667 142.5 -422 142.5h-249v-516z" />
    <glyph glyph-name="dcroat" unicode="&#x111;" 
d="M733 1187l-0.00292969 125h214v128h147v-128h140v-125h-140v-1187h-147v181c-35.333 -66 -84 -117.667 -146 -155s-138.333 -56 -229 -56c-76.667 0 -145.5 14 -206.5 42s-112.667 67.167 -155 117.5s-74.666 110.333 -96.999 180s-33.5 146.167 -33.5 229.5
c0 85.333 11.333 163 34 233s55.334 130 98.001 180s94.334 88.833 155.001 116.5s129 41.5 205 41.5c91.333 0 167.833 -18.5 229.5 -55.5s110.167 -88.833 145.5 -155.5v288h-214zM591.997 969c-60 0 -112.163 -10.502 -156.496 -31.502s-81.333 -50.333 -111 -88
s-51.834 -82.834 -66.501 -135.501s-22 -111 -22 -175c0 -64.667 7.5 -123.5 22.5 -176.5s37.333 -98 67 -135s66.667 -65.667 111 -86s96.166 -30.5 155.499 -30.5c60.667 0 113.167 10.5 157.5 31.5s81.166 50.333 110.499 88s51.166 82.834 65.499 135.501
s21.5 110.334 21.5 173.001c0 65.333 -7.5 124.333 -22.5 177s-37.333 97.834 -67 135.501s-66.667 66.667 -111 87s-95.833 30.5 -154.5 30.5z" />
    <glyph glyph-name="Emacron" unicode="&#x112;" horiz-adv-x="1141" 
d="M343 1680v125h502v-125h-502zM140 0v1440h901v-141h-754v-498h634v-141h-634v-519h754v-141h-901z" />
    <glyph glyph-name="emacron" unicode="&#x113;" horiz-adv-x="1169" 
d="M361 1445h501v-125h-501v125zM597 109c80.667 0 147.998 18 201.998 54s97 87.333 129 154l139 -51c-43.333 -95.333 -105.5 -168.5 -186.5 -219.5s-175.5 -76.5 -283.5 -76.5c-78 0 -148.833 13.5 -212.5 40.5s-118 65.167 -163 114.5s-79.833 109.166 -104.5 179.499
s-37 148.833 -37 235.5c0 87.333 12 166.166 36 236.499s58.333 130.166 103 179.499s98.334 87.333 161.001 114s133 40 211 40c81.333 0 153.333 -14 216 -42s115.334 -68.333 158.001 -121s74.5 -116.667 95.5 -192s30.167 -160.666 27.5 -255.999h-851
c3.33301 -61.333 14 -116.166 32 -164.499s42.5 -89.166 73.5 -122.499s68 -58.833 111 -76.5s90.833 -26.5 143.5 -26.5zM932.998 622c-9.33301 114 -43.332 201.167 -101.999 261.5s-138.667 90.5 -240 90.5c-100.667 0 -181.334 -30.667 -242.001 -92s-97 -148 -109 -260
h693z" />
    <glyph glyph-name="Edotaccent" unicode="&#x116;" horiz-adv-x="1141" 
d="M511 1669v171h171v-171h-171zM140 0v1440h901v-141h-754v-498h634v-141h-634v-519h754v-141h-901z" />
    <glyph glyph-name="edotaccent" unicode="&#x117;" horiz-adv-x="1169" 
d="M507 1480h170v-171h-170v171zM597 109c80.667 0 147.998 18 201.998 54s97 87.333 129 154l139 -51c-43.333 -95.333 -105.5 -168.5 -186.5 -219.5s-175.5 -76.5 -283.5 -76.5c-78 0 -148.833 13.5 -212.5 40.5s-118 65.167 -163 114.5s-79.833 109.166 -104.5 179.499
s-37 148.833 -37 235.5c0 87.333 12 166.166 36 236.499s58.333 130.166 103 179.499s98.334 87.333 161.001 114s133 40 211 40c81.333 0 153.333 -14 216 -42s115.334 -68.333 158.001 -121s74.5 -116.667 95.5 -192s30.167 -160.666 27.5 -255.999h-851
c3.33301 -61.333 14 -116.166 32 -164.499s42.5 -89.166 73.5 -122.499s68 -58.833 111 -76.5s90.833 -26.5 143.5 -26.5zM932.998 622c-9.33301 114 -43.332 201.167 -101.999 261.5s-138.667 90.5 -240 90.5c-100.667 0 -181.334 -30.667 -242.001 -92s-97 -148 -109 -260
h693z" />
    <glyph glyph-name="Eogonek" unicode="&#x118;" horiz-adv-x="1141" 
d="M877 -482c-34.667 0 -66.5 9.00098 -95.5 27.001s-52.167 42 -69.5 72s-26 62 -26 96c0 42 12.167 85.667 36.5 131s57.166 89 98.499 131l26 25h-707v1440h901v-141h-754v-498h634v-141h-634v-519h754v-141c-41.333 -24.667 -79.166 -53.5 -113.499 -86.5
s-61.833 -66.5 -82.5 -100.5s-31 -64.667 -31 -92c0 -24.667 7.5 -44.834 22.5 -60.501s32.833 -23.5 53.5 -23.5c14.667 0 30.167 4.33301 46.5 13s31.5 20.667 45.5 36l65 -79c-22.667 -28.667 -48.667 -50.667 -78 -66s-60 -23 -92 -23z" />
    <glyph glyph-name="eogonek" unicode="&#x119;" horiz-adv-x="1169" 
d="M894 -463c-24.667 -10.667 -49.6699 -16 -75.0029 -16c-1.33301 0 -9.16602 0.166992 -23.499 0.5s-33.666 6 -57.999 17s-45.166 25.833 -62.499 44.5c-24 27.333 -38.167 53.333 -42.5 78s-6.5 43 -6.5 55c0 26 4.66699 52.333 14 79c14 42.667 39.333 91 76 145
l8 11.5l8 11.5l19 25c1.33301 0.666992 2.33301 1.66699 3 3c-48.667 -14 -101 -21 -157 -21c-78 0 -148.833 13.5 -212.5 40.5s-118 65.167 -163 114.5s-79.833 109.166 -104.5 179.499s-37 148.833 -37 235.5c0 87.333 12 166.166 36 236.499s58.333 130.166 103 179.499
s98.334 87.333 161.001 114s133 40 211 40c81.333 0 153.333 -14 216 -42s115.334 -68.333 158.001 -121s74.5 -116.667 95.5 -192s30.167 -160.666 27.5 -255.999h-851c3.33301 -61.333 14 -116.166 32 -164.499s42.5 -89.166 73.5 -122.499s68 -58.833 111 -76.5
s90.833 -26.5 143.5 -26.5c80.667 0 148 18 202 54s97 87.333 129 154l139 -51c-4.66699 -10 -9.33398 -19.5 -14.001 -28.5s-9.66699 -18.167 -15 -27.5c-18 -33.333 -39.333 -67.666 -64 -102.999l-101 -140l-38 -54c-20 -30.667 -36.5 -58.834 -49.5 -84.501
s-22.833 -49.5 -29.5 -71.5c-4 -13.333 -6 -26 -6 -38c0 -4 0.5 -11 1.5 -21s6.83301 -20.667 17.5 -32c16 -16 34 -24 54 -24c6 0 17.5 2 34.5 6s37.833 17 62.5 39l66 -80c-24.667 -30 -55.334 -53.333 -92.001 -70zM932.997 622
c-9.33301 114 -43.332 201.167 -101.999 261.5s-138.667 90.5 -240 90.5c-100.667 0 -181.334 -30.667 -242.001 -92s-97 -148 -109 -260h693z" />
    <glyph glyph-name="Ecaron" unicode="&#x11a;" horiz-adv-x="1141" 
d="M299 1880h150l148 -173l147 173h150l-229 -270h-136zM140 0v1440h901v-141h-754v-498h634v-141h-634v-519h754v-141h-901z" />
    <glyph glyph-name="ecaron" unicode="&#x11b;" horiz-adv-x="1169" 
d="M443 1520l147 -173l147 173h150l-229 -270h-136l-229 270h150zM597 109c80.667 0 147.998 18 201.998 54s97 87.333 129 154l139 -51c-43.333 -95.333 -105.5 -168.5 -186.5 -219.5s-175.5 -76.5 -283.5 -76.5c-78 0 -148.833 13.5 -212.5 40.5s-118 65.167 -163 114.5
s-79.833 109.166 -104.5 179.499s-37 148.833 -37 235.5c0 87.333 12 166.166 36 236.499s58.333 130.166 103 179.499s98.334 87.333 161.001 114s133 40 211 40c81.333 0 153.333 -14 216 -42s115.334 -68.333 158.001 -121s74.5 -116.667 95.5 -192
s30.167 -160.666 27.5 -255.999h-851c3.33301 -61.333 14 -116.166 32 -164.499s42.5 -89.166 73.5 -122.499s68 -58.833 111 -76.5s90.833 -26.5 143.5 -26.5zM932.998 622c-9.33301 114 -43.332 201.167 -101.999 261.5s-138.667 90.5 -240 90.5
c-100.667 0 -181.334 -30.667 -242.001 -92s-97 -148 -109 -260h693z" />
    <glyph glyph-name="Gcircumflex" unicode="&#x11c;" horiz-adv-x="1421" 
d="M643 1880h136l229 -270h-150l-147 173l-148 -173h-150zM1193 242c-18.667 -42.667 -43.4941 -81.002 -74.4941 -115.002s-67.167 -62.5 -108.5 -85.5s-87.333 -40.667 -138 -53s-105 -18.5 -163 -18.5c-100 0 -190.167 17 -270.5 51s-148.5 83.167 -204.5 147.5
s-99 143 -129 236s-45 198.167 -45 315.5c0 115.333 15.333 219.166 46 311.499s74.667 170.833 132 235.5s126.666 114.5 207.999 149.5s172.333 52.5 273 52.5c69.333 0 134.166 -8.16699 194.499 -24.5s115 -41 164 -74s91.833 -74.333 128.5 -124
s66.334 -107.5 89.001 -173.5l-147 -36c-16 47.333 -37.833 89 -65.5 125s-59.834 66.333 -96.501 91s-77.334 43.167 -122.001 55.5s-92 18.5 -142 18.5c-80.667 0 -152.334 -13.667 -215.001 -41s-115.5 -67.166 -158.5 -119.499s-75.833 -116.666 -98.5 -192.999
s-34 -163.5 -34 -261.5c0 -94 11.167 -178.333 33.5 -253s54.833 -137.667 97.5 -189s95.167 -90.666 157.5 -117.999s133.5 -41 213.5 -41c77.333 0 144.833 11.667 202.5 35s105.667 56.5 144 99.5s67.166 95.167 86.499 156.5s29.666 130 30.999 206h-540v141h699v-749
h-148v242z" />
    <glyph glyph-name="gcircumflex" unicode="&#x11d;" 
d="M305 1250l229 270h136l230 -270h-150l-148 173l-147 -173h-150zM572 1110c89.333 0 165.164 -18.0039 227.497 -54.0039s111.5 -86.667 147.5 -152v176h147v-1021c0 -83.333 -10.833 -159.833 -32.5 -229.5s-53.667 -129.667 -96 -180s-95 -89.5 -158 -117.5
s-135.833 -42 -218.5 -42c-107.333 0 -200.666 25 -279.999 75s-139.333 123.333 -180 220l148 44c27.333 -65.333 67.833 -114.666 121.5 -147.999s117.167 -50 190.5 -50c58.667 0 110.334 10.167 155.001 30.5s82 49.333 112 87s52.667 82.834 68 135.501
s23 111.334 23 176.001v155c-36.667 -65.333 -86 -115.833 -148 -151.5s-137.667 -53.5 -227 -53.5c-73.333 0 -140.166 13 -200.499 39s-112.166 62.833 -155.499 110.5s-76.833 105.334 -100.5 173.001s-35.5 143.167 -35.5 226.5c0 85.333 12 162 36 230
s57.667 125.667 101 173s95.166 83.833 155.499 109.5s126.833 38.5 199.5 38.5zM591.998 150.996c56 0 106 9.49902 150 28.499s81.167 46.333 111.5 82s53.5 78.667 69.5 129s24 106.5 24 168.5c0 64 -8.33301 121.5 -25 172.5s-40.334 94 -71.001 129
s-68 61.833 -112 80.5s-93 28 -147 28c-56 0 -106 -9.5 -150 -28.5s-81.167 -46.333 -111.5 -82s-53.666 -78.667 -69.999 -129s-24.5 -107.166 -24.5 -170.499c0 -64 8.16699 -121.333 24.5 -172s39.833 -93.5 70.5 -128.5s68 -61.667 112 -80s93.667 -27.5 149 -27.5z" />
    <glyph glyph-name="Gbreve" unicode="&#x11e;" horiz-adv-x="1421" 
d="M723 1568c-47.333 0 -90.668 11.5 -130.001 34.5s-70.5 54.333 -93.5 94s-34.5 82.834 -34.5 129.501h122c0 -24.667 6.16699 -47.334 18.5 -68.001s28.833 -37.167 49.5 -49.5s43.334 -18.5 68.001 -18.5s47.334 6.16699 68.001 18.5s37.167 28.833 49.5 49.5
s18.5 43.334 18.5 68.001h122c0 -46.667 -11.5 -89.834 -34.5 -129.501s-54.333 -71 -94 -94s-82.834 -34.5 -129.501 -34.5zM1193 242c-18.667 -42.667 -43.4941 -81.002 -74.4941 -115.002s-67.167 -62.5 -108.5 -85.5s-87.333 -40.667 -138 -53s-105 -18.5 -163 -18.5
c-100 0 -190.167 17 -270.5 51s-148.5 83.167 -204.5 147.5s-99 143 -129 236s-45 198.167 -45 315.5c0 115.333 15.333 219.166 46 311.499s74.667 170.833 132 235.5s126.666 114.5 207.999 149.5s172.333 52.5 273 52.5c69.333 0 134.166 -8.16699 194.499 -24.5
s115 -41 164 -74s91.833 -74.333 128.5 -124s66.334 -107.5 89.001 -173.5l-147 -36c-16 47.333 -37.833 89 -65.5 125s-59.834 66.333 -96.501 91s-77.334 43.167 -122.001 55.5s-92 18.5 -142 18.5c-80.667 0 -152.334 -13.667 -215.001 -41
s-115.5 -67.166 -158.5 -119.499s-75.833 -116.666 -98.5 -192.999s-34 -163.5 -34 -261.5c0 -94 11.167 -178.333 33.5 -253s54.833 -137.667 97.5 -189s95.167 -90.666 157.5 -117.999s133.5 -41 213.5 -41c77.333 0 144.833 11.667 202.5 35s105.667 56.5 144 99.5
s67.166 95.167 86.499 156.5s29.666 130 30.999 206h-540v141h699v-749h-148v242z" />
    <glyph glyph-name="gbreve" unicode="&#x11f;" 
d="M603 1208c-47.333 0 -90.668 11.5 -130.001 34.5s-70.5 54.333 -93.5 94s-34.5 82.834 -34.5 129.501h122c0 -24.667 6.16699 -47.334 18.5 -68.001s28.833 -37.167 49.5 -49.5s43.334 -18.5 68.001 -18.5s47.334 6.16699 68.001 18.5s37.167 28.833 49.5 49.5
s18.5 43.334 18.5 68.001h122c0 -46.667 -11.5 -89.834 -34.5 -129.501s-54.333 -71 -94 -94s-82.834 -34.5 -129.501 -34.5zM571.998 1110c89.333 0 165.164 -18.0039 227.497 -54.0039s111.5 -86.667 147.5 -152v176h147v-1021c0 -83.333 -10.833 -159.833 -32.5 -229.5
s-53.667 -129.667 -96 -180s-95 -89.5 -158 -117.5s-135.833 -42 -218.5 -42c-107.333 0 -200.666 25 -279.999 75s-139.333 123.333 -180 220l148 44c27.333 -65.333 67.833 -114.666 121.5 -147.999s117.167 -50 190.5 -50c58.667 0 110.334 10.167 155.001 30.5
s82 49.333 112 87s52.667 82.834 68 135.501s23 111.334 23 176.001v155c-36.667 -65.333 -86 -115.833 -148 -151.5s-137.667 -53.5 -227 -53.5c-73.333 0 -140.166 13 -200.499 39s-112.166 62.833 -155.499 110.5s-76.833 105.334 -100.5 173.001
s-35.5 143.167 -35.5 226.5c0 85.333 12 162 36 230s57.667 125.667 101 173s95.166 83.833 155.499 109.5s126.833 38.5 199.5 38.5zM591.996 150.996c56 0 106 9.49902 150 28.499s81.167 46.333 111.5 82s53.5 78.667 69.5 129s24 106.5 24 168.5
c0 64 -8.33301 121.5 -25 172.5s-40.334 94 -71.001 129s-68 61.833 -112 80.5s-93 28 -147 28c-56 0 -106 -9.5 -150 -28.5s-81.167 -46.333 -111.5 -82s-53.666 -78.667 -69.999 -129s-24.5 -107.166 -24.5 -170.499c0 -64 8.16699 -121.333 24.5 -172
s39.833 -93.5 70.5 -128.5s68 -61.667 112 -80s93.667 -27.5 149 -27.5z" />
    <glyph glyph-name="Gdotaccent" unicode="&#x120;" horiz-adv-x="1421" 
d="M629 1840h171v-171h-171v171zM1193 242c-18.667 -42.667 -43.4941 -81.002 -74.4941 -115.002s-67.167 -62.5 -108.5 -85.5s-87.333 -40.667 -138 -53s-105 -18.5 -163 -18.5c-100 0 -190.167 17 -270.5 51s-148.5 83.167 -204.5 147.5s-99 143 -129 236
s-45 198.167 -45 315.5c0 115.333 15.333 219.166 46 311.499s74.667 170.833 132 235.5s126.666 114.5 207.999 149.5s172.333 52.5 273 52.5c69.333 0 134.166 -8.16699 194.499 -24.5s115 -41 164 -74s91.833 -74.333 128.5 -124s66.334 -107.5 89.001 -173.5l-147 -36
c-16 47.333 -37.833 89 -65.5 125s-59.834 66.333 -96.501 91s-77.334 43.167 -122.001 55.5s-92 18.5 -142 18.5c-80.667 0 -152.334 -13.667 -215.001 -41s-115.5 -67.166 -158.5 -119.499s-75.833 -116.666 -98.5 -192.999s-34 -163.5 -34 -261.5
c0 -94 11.167 -178.333 33.5 -253s54.833 -137.667 97.5 -189s95.167 -90.666 157.5 -117.999s133.5 -41 213.5 -41c77.333 0 144.833 11.667 202.5 35s105.667 56.5 144 99.5s67.166 95.167 86.499 156.5s29.666 130 30.999 206h-540v141h699v-749h-148v242z" />
    <glyph glyph-name="gdotaccent" unicode="&#x121;" horiz-adv-x="1199" 
d="M543 1309v171h170v-171h-170zM572 1110c89.333 0 165.164 -18.0039 227.497 -54.0039s111.5 -86.667 147.5 -152v176h147v-1021c0 -83.333 -10.833 -159.833 -32.5 -229.5s-53.667 -129.667 -96 -180s-95 -89.5 -158 -117.5s-135.833 -42 -218.5 -42
c-107.333 0 -200.666 25 -279.999 75s-139.333 123.333 -180 220l148 44c27.333 -65.333 67.833 -114.666 121.5 -147.999s117.167 -50 190.5 -50c58.667 0 110.334 10.167 155.001 30.5s82 49.333 112 87s52.667 82.834 68 135.501s23 111.334 23 176.001v155
c-36.667 -65.333 -86 -115.833 -148 -151.5s-137.667 -53.5 -227 -53.5c-73.333 0 -140.166 13 -200.499 39s-112.166 62.833 -155.499 110.5s-76.833 105.334 -100.5 173.001s-35.5 143.167 -35.5 226.5c0 85.333 12 162 36 230s57.667 125.667 101 173
s95.166 83.833 155.499 109.5s126.833 38.5 199.5 38.5zM591.998 150.996c56 0 106 9.49902 150 28.499s81.167 46.333 111.5 82s53.5 78.667 69.5 129s24 106.5 24 168.5c0 64 -8.33301 121.5 -25 172.5s-40.334 94 -71.001 129s-68 61.833 -112 80.5s-93 28 -147 28
c-56 0 -106 -9.5 -150 -28.5s-81.167 -46.333 -111.5 -82s-53.666 -78.667 -69.999 -129s-24.5 -107.166 -24.5 -170.499c0 -64 8.16699 -121.333 24.5 -172s39.833 -93.5 70.5 -128.5s68 -61.667 112 -80s93.667 -27.5 149 -27.5z" />
    <glyph glyph-name="uni0122" unicode="&#x122;" horiz-adv-x="1421" 
d="M1193 242c-18.667 -42.667 -43.4941 -81.002 -74.4941 -115.002s-67.167 -62.5 -108.5 -85.5s-87.333 -40.667 -138 -53s-105 -18.5 -163 -18.5c-100 0 -190.167 17 -270.5 51s-148.5 83.167 -204.5 147.5s-99 143 -129 236s-45 198.167 -45 315.5
c0 115.333 15.333 219.166 46 311.499s74.667 170.833 132 235.5s126.666 114.5 207.999 149.5s172.333 52.5 273 52.5c69.333 0 134.166 -8.16699 194.499 -24.5s115 -41 164 -74s91.833 -74.333 128.5 -124s66.334 -107.5 89.001 -173.5l-147 -36
c-16 47.333 -37.833 89 -65.5 125s-59.834 66.333 -96.501 91s-77.334 43.167 -122.001 55.5s-92 18.5 -142 18.5c-80.667 0 -152.334 -13.667 -215.001 -41s-115.5 -67.166 -158.5 -119.499s-75.833 -116.666 -98.5 -192.999s-34 -163.5 -34 -261.5
c0 -94 11.167 -178.333 33.5 -253s54.833 -137.667 97.5 -189s95.167 -90.666 157.5 -117.999s133.5 -41 213.5 -41c77.333 0 144.833 11.667 202.5 35s105.667 56.5 144 99.5s67.166 95.167 86.499 156.5s29.666 130 30.999 206h-540v141h699v-749h-148v242z
M656.006 -472.002c10.667 0 23.167 2.66602 37.5 7.99902s26.5 14.333 36.5 27s15 28.334 15 47.001v7h-89v165h165v-165c0 -36 -7.83301 -66.5 -23.5 -91.5s-36 -43.833 -61 -56.5s-51.833 -19 -80.5 -19v78z" />
    <glyph glyph-name="uni0123" unicode="&#x123;" 
d="M689 1563c-11.333 0 -24 -2.66602 -38 -7.99902s-26 -14.166 -36 -26.499s-15 -27.833 -15 -46.5v-7h89v-166h-166v166c0 35.333 7.83301 65.666 23.5 90.999s36.167 44.166 61.5 56.499s52.333 18.5 81 18.5v-78zM572 1110c89.333 0 165.164 -18.0039 227.497 -54.0039
s111.5 -86.667 147.5 -152v176h147v-1021c0 -83.333 -10.833 -159.833 -32.5 -229.5s-53.667 -129.667 -96 -180s-95 -89.5 -158 -117.5s-135.833 -42 -218.5 -42c-107.333 0 -200.666 25 -279.999 75s-139.333 123.333 -180 220l148 44
c27.333 -65.333 67.833 -114.666 121.5 -147.999s117.167 -50 190.5 -50c58.667 0 110.334 10.167 155.001 30.5s82 49.333 112 87s52.667 82.834 68 135.501s23 111.334 23 176.001v155c-36.667 -65.333 -86 -115.833 -148 -151.5s-137.667 -53.5 -227 -53.5
c-73.333 0 -140.166 13 -200.499 39s-112.166 62.833 -155.499 110.5s-76.833 105.334 -100.5 173.001s-35.5 143.167 -35.5 226.5c0 85.333 12 162 36 230s57.667 125.667 101 173s95.166 83.833 155.499 109.5s126.833 38.5 199.5 38.5zM591.998 150.997
c56 0 106 9.49902 150 28.499s81.167 46.333 111.5 82s53.5 78.667 69.5 129s24 106.5 24 168.5c0 64 -8.33301 121.5 -25 172.5s-40.334 94 -71.001 129s-68 61.833 -112 80.5s-93 28 -147 28c-56 0 -106 -9.5 -150 -28.5s-81.167 -46.333 -111.5 -82
s-53.666 -78.667 -69.999 -129s-24.5 -107.166 -24.5 -170.499c0 -64 8.16699 -121.333 24.5 -172s39.833 -93.5 70.5 -128.5s68 -61.667 112 -80s93.667 -27.5 149 -27.5z" />
    <glyph glyph-name="Hcircumflex" unicode="&#x124;" horiz-adv-x="1370" 
d="M386 1610l229 270h136l230 -270h-150l-148 173l-147 -173h-150zM140 0v1440h147v-649h796v649h147v-1440h-147v650h-796v-650h-147z" />
    <glyph glyph-name="hcircumflex" unicode="&#x125;" horiz-adv-x="1186" 
d="M337 1610l229 270h136l230 -270h-150l-148 173l-147 -173h-150zM919 593c0 67.333 -7.49902 124.67 -22.499 172.003s-36.333 86.166 -64 116.499s-60.667 52.5 -99 66.5s-80.833 21 -127.5 21c-46 0 -88.667 -7 -128 -21s-73.166 -36 -101.499 -66
s-50.5 -68.833 -66.5 -116.5s-24 -105.167 -24 -172.5v-593h-147v1440h147v-521c12.667 24 28.5 47.5 47.5 70.5s42.333 43.333 70 61s60.167 32 97.5 43s80.666 16.5 129.999 16.5c65.333 0 124.666 -9.83301 177.999 -29.5s99 -49.834 137 -90.501
s67.5 -92.334 88.5 -155.001s31.5 -136.667 31.5 -222v-613h-147v593z" />
    <glyph glyph-name="Hbar" unicode="&#x126;" horiz-adv-x="1410" 
d="M160 0v993h-140v141h140v306h147v-306h796v306h147v-306h140v-141h-140v-993h-147v650h-796v-650h-147zM307 791h796v202h-796v-202z" />
    <glyph glyph-name="hbar" unicode="&#x127;" horiz-adv-x="1186" 
d="M12 1187l0.000976562 125.004h127v128h147v-128h227v-125h-227v-268c12.667 24 28.5 47.5 47.5 70.5s42.333 43.333 70 61s60.167 32 97.5 43s80.666 16.5 129.999 16.5c65.333 0 124.666 -9.83301 177.999 -29.5s99 -49.834 137 -90.501s67.5 -92.334 88.5 -155.001
s31.5 -136.667 31.5 -222v-613h-147v593c0 67.333 -7.5 124.666 -22.5 171.999s-36.333 86.166 -64 116.499s-60.667 52.5 -99 66.5s-80.833 21 -127.5 21c-46 0 -88.667 -7 -128 -21s-73.166 -36 -101.499 -66s-50.5 -68.833 -66.5 -116.5s-24 -105.167 -24 -172.5v-593
h-147v1187h-127z" />
    <glyph glyph-name="Itilde" unicode="&#x128;" horiz-adv-x="467" 
d="M383 1612c-26.667 0 -53.165 5.49902 -79.498 16.499s-57.166 27.167 -92.499 48.5c-29.333 16.667 -52.833 28.834 -70.5 36.501s-34.834 11.5 -51.501 11.5c-16 0 -28.667 -4.66699 -38 -14s-14.5 -18.666 -15.5 -27.999s-1.5 -15.666 -1.5 -18.999
c0 -11.333 2 -23 6 -35h-104c-5.33301 21.333 -8 41.333 -8 60c0 16.667 3.16699 37 9.5 61s22.5 45.5 48.5 64.5s58 28.5 96 28.5c27.333 0 54.166 -5.5 80.499 -16.5s57.5 -26.833 93.5 -47.5c29.333 -16.667 52.833 -29 70.5 -37s34.5 -12 50.5 -12
c22.667 0 37.667 7.5 45 22.5s11 28.833 11 41.5c0 10.667 -2 22.334 -6 35.001h104c5.33301 -20.667 8 -40.334 8 -59.001c0 -16.667 -3.33301 -37.334 -10 -62.001s-22.834 -46.834 -48.501 -66.501s-58.167 -29.5 -97.5 -29.5zM160.002 -0.000976562v1440h147v-1440h-147
z" />
    <glyph glyph-name="itilde" unicode="&#x129;" horiz-adv-x="467" 
d="M383 1252c-26.667 0 -53.165 5.49902 -79.498 16.499s-57.166 27.167 -92.499 48.5c-29.333 16.667 -52.833 28.834 -70.5 36.501s-34.834 11.5 -51.501 11.5c-16 0 -28.667 -4.66699 -38 -14s-14.5 -18.666 -15.5 -27.999s-1.5 -15.666 -1.5 -18.999
c0 -11.333 2 -23 6 -35h-104c-5.33301 21.333 -8 41.333 -8 60c0 16.667 3.16699 37 9.5 61s22.5 45.5 48.5 64.5s58 28.5 96 28.5c27.333 0 54.166 -5.5 80.499 -16.5s57.5 -26.833 93.5 -47.5c29.333 -16.667 52.833 -29 70.5 -37s34.5 -12 50.5 -12
c22.667 0 37.667 7.5 45 22.5s11 28.833 11 41.5c0 10.667 -2 22.334 -6 35.001h104c5.33301 -20.667 8 -40.334 8 -59.001c0 -16.667 -3.33301 -37.334 -10 -62.001s-22.834 -46.834 -48.501 -66.501s-58.167 -29.5 -97.5 -29.5zM160.002 -0.000976562v1080h147v-1080h-147
z" />
    <glyph glyph-name="Imacron" unicode="&#x12a;" horiz-adv-x="467" 
d="M-17 1680v125h501v-125h-501zM160 0v1440h147v-1440h-147z" />
    <glyph glyph-name="imacron" unicode="&#x12b;" horiz-adv-x="467" 
d="M-17 1320v125h501v-125h-501zM160 0v1080h147v-1080h-147z" />
    <glyph glyph-name="Iogonek" unicode="&#x12e;" horiz-adv-x="467" 
d="M144 -482c-34.667 0 -66.665 9.00098 -95.998 27.001s-52.666 42 -69.999 72s-26 62 -26 96c0 42 12.167 85.667 36.5 131s57.166 89 98.499 131c22.667 22.667 47 44 73 64v1401h147v-1440c-40.667 -24.667 -78.334 -53.5 -113.001 -86.5s-62.334 -66.5 -83.001 -100.5
s-31 -64.667 -31 -92c0 -24.667 7.5 -44.834 22.5 -60.501s32.833 -23.5 53.5 -23.5c15.333 0 31 4.33301 47 13s31 20.667 45 36l65 -79c-22 -28.667 -47.833 -50.667 -77.5 -66s-60.167 -23 -91.5 -23z" />
    <glyph glyph-name="iogonek" unicode="&#x12f;" horiz-adv-x="467" 
d="M160 1285v165h147v-165h-147zM143 -482c-34.667 0 -66.5 9 -95.5 27s-52.167 42 -69.5 72s-26 62 -26 96c0 42 12.167 85.667 36.5 131s57.166 89 98.499 131c22.667 22.667 47 44.334 73 65.001v1040h147v-1080c-41.333 -24.667 -79.166 -53.5 -113.499 -86.5
s-61.833 -66.5 -82.5 -100.5s-31 -64.667 -31 -92c0 -24.667 7.5 -44.834 22.5 -60.501s32.833 -23.5 53.5 -23.5c14.667 0 30.167 4.33301 46.5 13s31.5 20.667 45.5 36l65 -79c-22.667 -28.667 -48.667 -50.667 -78 -66s-60 -23 -92 -23z" />
    <glyph glyph-name="Idotaccent" unicode="&#x130;" horiz-adv-x="467" 
d="M148 1669v171h171v-171h-171zM160 0v1440h147v-1440h-147z" />
    <glyph glyph-name="dotlessi" unicode="&#x131;" horiz-adv-x="467" 
d="M160 0v1080h147v-1080h-147z" />
    <glyph glyph-name="Jcircumflex" unicode="&#x134;" horiz-adv-x="927" 
d="M623 1880h136l229 -270h-150l-147 173l-148 -173h-150zM386 -29c-48 0 -93.001 7.00098 -135.001 21.001s-79.667 33.833 -113 59.5s-61.666 56.5 -84.999 92.5s-41 76.333 -53 121l147 35c6 -26.667 16.167 -51.334 30.5 -74.001s32 -42.5 53 -59.5
s44.667 -30.333 71 -40s54.166 -14.5 83.499 -14.5c18.667 0 37.667 2.16699 57 6.5s38 11.166 56 20.499s35 21.333 51 36s29.333 32.334 40 53.001c14.667 28.667 23.167 59.834 25.5 93.501s3.5 74.167 3.5 121.5v997h147v-997c0 -28.667 -0.333008 -55.834 -1 -81.501
s-2.5 -50.334 -5.5 -74.001s-7.66699 -46.5 -14 -68.5s-15.166 -43.667 -26.499 -65c-32 -61.333 -76.333 -107.166 -133 -137.499s-123 -45.5 -199 -45.5z" />
    <glyph glyph-name="jcircumflex" unicode="&#x135;" horiz-adv-x="501" 
d="M-25 1250l229 270h136l230 -270h-150l-148 173l-147 -173h-150zM-20 -479l0.00195312 140.001h52c31.333 0 57.666 3 78.999 9s38.666 15.667 51.999 29s23 30.666 29 51.999s9 47.666 9 78.999v1250h146v-1292c0 -83.333 -22.667 -148.666 -68 -195.999
s-111.333 -71 -198 -71h-101z" />
    <glyph glyph-name="uni0136" unicode="&#x136;" horiz-adv-x="1188" 
d="M140 1440h147v-683l658 683h188l-672 -695l727 -745h-192l-709 722v-722h-147v1440zM545 -472c11.333 0 24 2.66602 38 7.99902s26 14.333 36 27s15 28.334 15 47.001v7h-89v165h166v-165c0 -36 -7.83301 -66.5 -23.5 -91.5s-36.167 -43.833 -61.5 -56.5
s-52.333 -19 -81 -19v78z" />
    <glyph glyph-name="uni0137" unicode="&#x137;" horiz-adv-x="990" 
d="M139 1440h147v-880l482 520h196l-506 -540l572 -540h-214l-530 520v-520h-147v1440zM475 -472c10.667 0 23.167 2.66602 37.5 7.99902s26.333 14.333 36 27s14.5 28.334 14.5 47.001v7h-88v165h165v-165c0 -36 -7.83301 -66.5 -23.5 -91.5s-36 -43.833 -61 -56.5
s-51.833 -19 -80.5 -19v78z" />
    <glyph glyph-name="Lacute" unicode="&#x139;" horiz-adv-x="1021" 
d="M300 1610h-126l119 310h126zM160 0v1440h147v-1299h684v-141h-831z" />
    <glyph glyph-name="lacute" unicode="&#x13a;" horiz-adv-x="467" 
d="M299 1610h-126l119 310h126zM160 0v1470h147v-1470h-147z" />
    <glyph glyph-name="uni013B" unicode="&#x13b;" horiz-adv-x="1021" 
d="M160 0v1440h147v-1299h684v-141h-831zM493 -472c11.333 0 24 2.66602 38 7.99902s26 14.333 36 27s15 28.334 15 47.001v7h-89v165h166v-165c0 -36 -7.83301 -66.5 -23.5 -91.5s-36.167 -43.833 -61.5 -56.5s-52.333 -19 -81 -19v78z" />
    <glyph glyph-name="uni013C" unicode="&#x13c;" horiz-adv-x="467" 
d="M160 0v1470h147v-1470h-147zM151 -472c10.667 0 23.167 2.66602 37.5 7.99902s26.333 14.333 36 27s14.5 28.334 14.5 47.001v7h-88v165h165v-165c0 -36 -7.83301 -66.5 -23.5 -91.5s-36 -43.833 -61 -56.5s-51.833 -19 -80.5 -19v78z" />
    <glyph glyph-name="Lcaron" unicode="&#x13d;" horiz-adv-x="1021" 
d="M163 0v1440h147v-1299h684v-141h-831zM650 1107l7.99902 0.00195312c18 0 32.833 4.16699 44.5 12.5s19.667 20 24 35s6.5 33.167 6.5 54.5v9c-0.666992 4.66699 -1 9 -1 13v12h-91v211h171v-251c0 -40.667 -7 -74.834 -21 -102.501s-31.667 -46.334 -53 -56.001
s-41.666 -14.5 -60.999 -14.5c-11.333 0 -23.333 1.33301 -36 4z" />
    <glyph glyph-name="lcaron" unicode="&#x13e;" horiz-adv-x="663" 
d="M160 0v1470h147v-1470h-147zM482 1107l7.99902 0.00195312c18 0 32.833 4.16699 44.5 12.5s19.667 20 24 35s6.5 33.167 6.5 54.5v9c-0.666992 4.66699 -1 9 -1 13v12h-91v211h171v-251c0 -40.667 -7 -74.834 -21 -102.501s-31.667 -46.334 -53 -56.001
s-41.666 -14.5 -60.999 -14.5c-11.333 0 -23.333 1.33301 -36 4z" />
    <glyph glyph-name="Lslash" unicode="&#x141;" horiz-adv-x="1034" 
d="M84 407v165l89 51v817h147v-733l355 204v-164l-355 -204v-402h684v-141h-831v458z" />
    <glyph glyph-name="lslash" unicode="&#x142;" horiz-adv-x="752" 
d="M81 483v165l222 127v695h147v-610l221 127v-164l-221 -127v-696h-147v611z" />
    <glyph glyph-name="Nacute" unicode="&#x143;" horiz-adv-x="1369" 
d="M766 1610h-126l120 310h126zM140 0v1440h147l794 -1181v1181h148v-1440h-148l-794 1181v-1181h-147z" />
    <glyph glyph-name="nacute" unicode="&#x144;" horiz-adv-x="1186" 
d="M680 1250h-126l119 310h126zM919 593c0 67.333 -7.49902 124.67 -22.499 172.003s-36.333 86.166 -64 116.499s-60.667 52.5 -99 66.5s-80.833 21 -127.5 21c-46 0 -88.667 -7 -128 -21s-73.166 -36 -101.499 -66s-50.5 -68.833 -66.5 -116.5s-24 -105.167 -24 -172.5
v-593h-147v1080h147v-161c12 24 27.5 47.5 46.5 70.5s42.5 43.333 70.5 61s60.667 32 98 43s80.666 16.5 129.999 16.5c65.333 0 124.666 -9.83301 177.999 -29.5s99 -49.834 137 -90.501s67.5 -92.334 88.5 -155.001s31.5 -136.667 31.5 -222v-613h-147v593z" />
    <glyph glyph-name="uni0145" unicode="&#x145;" horiz-adv-x="1369" 
d="M140 0v1440h147l794 -1181v1181h148v-1440h-148l-794 1181v-1181h-147zM622 -472c10.667 0 23.167 2.66602 37.5 7.99902s26.5 14.333 36.5 27s15 28.334 15 47.001v7h-89v165h165v-165c0 -36 -7.83301 -66.5 -23.5 -91.5s-36 -43.833 -61 -56.5s-51.833 -19 -80.5 -19
v78z" />
    <glyph glyph-name="uni0146" unicode="&#x146;" horiz-adv-x="1186" 
d="M919 593c0 67.333 -7.49902 124.67 -22.499 172.003s-36.333 86.166 -64 116.499s-60.667 52.5 -99 66.5s-80.833 21 -127.5 21c-46 0 -88.667 -7 -128 -21s-73.166 -36 -101.499 -66s-50.5 -68.833 -66.5 -116.5s-24 -105.167 -24 -172.5v-593h-147v1080h147v-161
c12.667 24 28.5 47.5 47.5 70.5s42.333 43.333 70 61s60.167 32 97.5 43s80.666 16.5 129.999 16.5c65.333 0 124.666 -9.83301 177.999 -29.5s99 -49.834 137 -90.501s67.5 -92.334 88.5 -155.001s31.5 -136.667 31.5 -222v-613h-147v593zM523.001 -471.996
c11.333 0 24 2.66602 38 7.99902s26 14.333 36 27s15 28.334 15 47.001v7h-89v165h166v-165c0 -36 -7.83301 -66.5 -23.5 -91.5s-36.167 -43.833 -61.5 -56.5s-52.333 -19 -81 -19v78z" />
    <glyph glyph-name="Ncaron" unicode="&#x147;" horiz-adv-x="1369" 
d="M411 1880h150l148 -173l147 173h150l-229 -270h-136zM140 0v1440h147l794 -1181v1181h148v-1440h-148l-794 1181v-1181h-147z" />
    <glyph glyph-name="ncaron" unicode="&#x148;" horiz-adv-x="1186" 
d="M299 1520h150l148 -173l147 173h150l-229 -270h-136zM919 593c0 67.333 -7.49902 124.67 -22.499 172.003s-36.333 86.166 -64 116.499s-60.667 52.5 -99 66.5s-80.833 21 -127.5 21c-46 0 -88.667 -7 -128 -21s-73.166 -36 -101.499 -66s-50.5 -68.833 -66.5 -116.5
s-24 -105.167 -24 -172.5v-593h-147v1080h147v-161c12.667 24 28.5 47.5 47.5 70.5s42.333 43.333 70 61s60.167 32 97.5 43s80.666 16.5 129.999 16.5c65.333 0 124.666 -9.83301 177.999 -29.5s99 -49.834 137 -90.501s67.5 -92.334 88.5 -155.001
s31.5 -136.667 31.5 -222v-613h-147v593z" />
    <glyph glyph-name="Eng" unicode="&#x14a;" horiz-adv-x="1369" 
d="M1081 1440h148.001v-1625c0 -72.667 -16.5 -126.334 -49.5 -161.001s-83.833 -52 -152.5 -52c-36.667 0 -72.667 4.33301 -108 13v122l26 -3c16.667 -2 30.334 -3 41.001 -3c27.333 0 49.166 4.33301 65.499 13s28.166 23.334 35.499 44.001s11 49.334 11 86.001
c0 33.333 -5 65.666 -15 96.999s-27.333 66 -52 104l-744 1106v-1181h-147v1440h148l793 -1181v1181z" />
    <glyph glyph-name="eng" unicode="&#x14b;" horiz-adv-x="1186" 
d="M919 593c0 67.333 -7.49707 124.671 -22.4971 172.004s-36.333 86.166 -64 116.499s-60.667 52.5 -99 66.5s-80.833 21 -127.5 21c-46 0 -88.667 -7 -128 -21s-73.166 -36 -101.499 -66s-50.5 -68.833 -66.5 -116.5s-24 -105.167 -24 -172.5v-593h-147v1080h147v-161
c12.667 24 28.5 47.5 47.5 70.5s42.333 43.333 70 61s60.167 32 97.5 43s80.666 16.5 129.999 16.5c65.333 0 124.666 -9.83301 177.999 -29.5s99 -49.834 137 -90.501s67.5 -92.334 88.5 -155.001s31.5 -136.667 31.5 -222v-825c0 -83.333 -22.833 -148.666 -68.5 -195.999
s-111.834 -71 -198.501 -71h-100v140h52c31.333 0 57.666 3 78.999 9s38.5 15.667 51.5 29s22.5 30.666 28.5 51.999s9 47.666 9 78.999v763z" />
    <glyph glyph-name="Omacron" unicode="&#x14c;" horiz-adv-x="1447" 
d="M473 1805h501v-125h-501v125zM723 -30c-107.333 0 -202.333 18.333 -285 55s-152 88 -208 154s-98.333 145 -127 237s-43 193.333 -43 304s14.333 212 43 304s71 171 127 237s125.333 117.333 208 154s177.667 55 285 55c108 0 203.333 -18.333 286 -55s152 -88 208 -154
s98.333 -145 127 -237s43 -193.333 43 -304s-14.333 -212 -43 -304s-71 -171 -127 -237s-125.333 -117.333 -208 -154s-178 -55 -286 -55zM723 111c84.667 0 158.666 14.833 221.999 44.5s116.166 71.334 158.499 125.001s74.166 117.834 95.499 192.501s32 157 32 247
s-10.667 172.333 -32 247s-53.166 138.834 -95.499 192.501s-95.166 95.334 -158.499 125.001s-137.333 44.5 -222 44.5s-158.5 -14.833 -221.5 -44.5s-115.5 -71.334 -157.5 -125.001s-73.667 -117.834 -95 -192.501s-32.333 -157 -33 -247s9.5 -172.333 30.5 -247
s52.667 -138.834 95 -192.501s95.333 -95.334 159 -125.001s137.834 -44.5 222.501 -44.5z" />
    <glyph glyph-name="omacron" unicode="&#x14d;" horiz-adv-x="1183" 
d="M341 1445h502v-125h-502v125zM591 -30c-80 0 -151.667 14 -215 42s-117 67.167 -161 117.5s-77.5 110.5 -100.5 180.5s-34.5 147 -34.5 231c0 84.667 11.833 162 35.5 232s57.5 130 101.5 180s97.667 88.667 161 116s134.333 41 213 41c80.667 0 152.667 -14 216 -42
s117 -67 161 -117s77.5 -109.833 100.5 -179.5s34.5 -146.5 34.5 -230.5c0 -84.667 -11.667 -162.167 -35 -232.5s-57 -130.5 -101 -180.5s-97.667 -88.833 -161 -116.5s-135 -41.5 -215 -41.5zM591 111c59.333 0 111.167 10.334 155.5 31.001s81.333 49.667 111 87
s52 82.5 67 135.5s22.5 111.833 22.5 176.5c0 66 -7.5 125.333 -22.5 178s-37.5 97.5 -67.5 134.5s-67.167 65.5 -111.5 85.5s-95.833 30 -154.5 30c-59.333 0 -111.166 -10.167 -155.499 -30.5s-81.333 -49.333 -111 -87s-51.834 -82.834 -66.501 -135.501
s-22 -111 -22 -175c0 -66 7.66699 -125.5 23 -178.5s37.833 -98.167 67.5 -135.5s66.667 -66 111 -86s95.5 -30 153.5 -30z" />
    <glyph glyph-name="Ohungarumlaut" unicode="&#x150;" horiz-adv-x="1447" 
d="M843 1610l119 310h126l-119 -310h-126zM468 1610l119 310h126l-119 -310h-126zM723 -30c-107.333 0 -202.333 18.333 -285 55s-152 88 -208 154s-98.333 145 -127 237s-43 193.333 -43 304s14.333 212 43 304s71 171 127 237s125.333 117.333 208 154s177.667 55 285 55
c108 0 203.333 -18.333 286 -55s152 -88 208 -154s98.333 -145 127 -237s43 -193.333 43 -304s-14.333 -212 -43 -304s-71 -171 -127 -237s-125.333 -117.333 -208 -154s-178 -55 -286 -55zM723 111c84.667 0 158.666 14.833 221.999 44.5s116.166 71.334 158.499 125.001
s74.166 117.834 95.499 192.501s32 157 32 247s-10.667 172.333 -32 247s-53.166 138.834 -95.499 192.501s-95.166 95.334 -158.499 125.001s-137.333 44.5 -222 44.5s-158.5 -14.833 -221.5 -44.5s-115.5 -71.334 -157.5 -125.001s-73.667 -117.834 -95 -192.501
s-32.333 -157 -33 -247s9.5 -172.333 30.5 -247s52.667 -138.834 95 -192.501s95.333 -95.334 159 -125.001s137.834 -44.5 222.501 -44.5z" />
    <glyph glyph-name="ohungarumlaut" unicode="&#x151;" horiz-adv-x="1183" 
d="M712 1250l119 310h126l-119 -310h-126zM337 1250l120 310h126l-120 -310h-126zM591 -30c-80 0 -151.667 14 -215 42s-117 67.167 -161 117.5s-77.5 110.5 -100.5 180.5s-34.5 147 -34.5 231c0 84.667 11.833 162 35.5 232s57.5 130 101.5 180s97.667 88.667 161 116
s134.333 41 213 41c80.667 0 152.667 -14 216 -42s117 -67 161 -117s77.5 -109.833 100.5 -179.5s34.5 -146.5 34.5 -230.5c0 -84.667 -11.667 -162.167 -35 -232.5s-57 -130.5 -101 -180.5s-97.667 -88.833 -161 -116.5s-135 -41.5 -215 -41.5zM591 111
c59.333 0 111.167 10.334 155.5 31.001s81.333 49.667 111 87s52 82.5 67 135.5s22.5 111.833 22.5 176.5c0 66 -7.5 125.333 -22.5 178s-37.5 97.5 -67.5 134.5s-67.167 65.5 -111.5 85.5s-95.833 30 -154.5 30c-59.333 0 -111.166 -10.167 -155.499 -30.5
s-81.333 -49.333 -111 -87s-51.834 -82.834 -66.501 -135.501s-22 -111 -22 -175c0 -66 7.66699 -125.5 23 -178.5s37.833 -98.167 67.5 -135.5s66.667 -66 111 -86s95.5 -30 153.5 -30z" />
    <glyph glyph-name="OE" unicode="&#x152;" horiz-adv-x="2239" 
d="M723 -30c-107.333 0 -202.333 18.335 -285 55.002s-152 88 -208 154s-98.333 145 -127 237s-43 193.333 -43 304s14.333 212 43 304s71 171 127 237s125.333 117.333 208 154s177.667 55 285 55c116 0 216.833 -20.833 302.5 -62.5s156.834 -99.834 213.501 -174.501v207
h900v-141h-753v-498h633v-141h-633v-519h753v-141h-900v207c-56.667 -74.667 -127.834 -132.834 -213.501 -174.501s-186.5 -62.5 -302.5 -62.5zM723 111.002c84.667 0 158.666 14.833 221.999 44.5s116.166 71.334 158.499 125.001s74.166 117.834 95.499 192.501
s32 157 32 247s-10.667 172.333 -32 247s-53.166 138.834 -95.499 192.501s-95.166 95.334 -158.499 125.001s-137.333 44.5 -222 44.5s-158.5 -14.833 -221.5 -44.5s-115.5 -71.334 -157.5 -125.001s-73.667 -117.834 -95 -192.501s-32.333 -157 -33 -247
s9.5 -172.333 30.5 -247s52.667 -138.834 95 -192.501s95.333 -95.334 159 -125.001s137.834 -44.5 222.501 -44.5z" />
    <glyph glyph-name="oe" unicode="&#x153;" horiz-adv-x="2038" 
d="M591 -30c-80 0 -151.667 14 -215 42s-117 67.167 -161 117.5s-77.5 110.5 -100.5 180.5s-34.5 147 -34.5 231c0 84.667 11.833 162 35.5 232s57.5 130 101.5 180s97.667 88.667 161 116s134.333 41 213 41c100.667 0 187.5 -20.833 260.5 -62.5
s130.5 -99.834 172.5 -174.501c43.333 75.333 101.666 133.666 174.999 174.999s159 62 257 62c81.333 0 153.333 -14 216 -42s115.167 -68.333 157.5 -121s74 -116.667 95 -192s30.167 -160.666 27.5 -255.999h-850v-3c4 -60.667 15 -115 33 -163s42.333 -88.667 73 -122
s67.334 -58.666 110.001 -75.999s90.334 -26 143.001 -26c81.333 0 149 18 203 54s97 87.333 129 154l139 -51c-44 -95.333 -106.333 -168.5 -187 -219.5s-175.334 -76.5 -284.001 -76.5c-98.667 0 -185 20.833 -259 62.5s-133 100.5 -177 176.5
c-42.667 -74.667 -100.5 -133.167 -173.5 -175.5s-159.833 -63.5 -260.5 -63.5zM1798 622c-9.33301 114 -43.333 201.167 -102 261.5s-138.667 90.5 -240 90.5c-50 0 -95.333 -7.83301 -136 -23.5s-76 -38.5 -106 -68.5s-54.167 -66.833 -72.5 -110.5
s-30.5 -93.5 -36.5 -149.5h693zM591 111c55.333 0 104.333 9.00098 147 27.001s78.834 43.667 108.501 77s52.834 73.666 69.501 120.999s26.667 100 30 158c-0.666992 7.33301 -1 15 -1 23v23v24c0 8 0.333008 16 1 24c-3.33301 59.333 -13.333 112.5 -30 159.5
s-39.834 86.833 -69.501 119.5s-65.834 57.834 -108.501 75.501s-91.667 26.5 -147 26.5c-59.333 0 -111.166 -10.167 -155.499 -30.5s-81.333 -49.333 -111 -87s-51.834 -82.834 -66.501 -135.501s-22 -111 -22 -175c0 -66 7.66699 -125.5 23 -178.5
s37.833 -98.167 67.5 -135.5s66.667 -66 111 -86s95.5 -30 153.5 -30z" />
    <glyph glyph-name="Racute" unicode="&#x154;" horiz-adv-x="1262" 
d="M518 1610l120 310h126l-120 -310h-126zM649 547l-362 0.000976562v-547h-147v1440h533c75.333 0 142.5 -10.333 201.5 -31s108.833 -50.334 149.5 -89.001s71.667 -85.667 93 -141s32 -117.333 32 -186c0 -114.667 -29.167 -209.5 -87.5 -284.5
s-141.5 -124.167 -249.5 -147.5l370 -561h-172zM287 687.001h386c51.333 0 97 7 137 21s73.833 34.167 101.5 60.5s48.834 58.333 63.501 96s22 80.5 22 128.5s-7.33301 91 -22 129s-35.834 70 -63.501 96s-61.5 46 -101.5 60s-85.667 21 -137 21h-386v-612z" />
    <glyph glyph-name="racute" unicode="&#x155;" horiz-adv-x="721" 
d="M398 1250h-126l120 310h126zM671 965c-9.33301 2 -19.332 3.16699 -29.999 3.5s-22.334 0.5 -35.001 0.5c-46 0 -88.667 -7 -128 -21s-73.166 -36 -101.499 -66s-50.5 -68.833 -66.5 -116.5s-24 -105.167 -24 -172.5v-593h-147v1080h147v-161
c12.667 24 28.5 47.5 47.5 70.5s42.333 43.333 70 61s60.167 32 97.5 43s80.666 16.5 129.999 16.5h20c6 0 12.667 -0.333008 20 -1v-144z" />
    <glyph glyph-name="uni0156" unicode="&#x156;" horiz-adv-x="1262" 
d="M649 547l-362 0.000976562v-547h-147v1440h533c75.333 0 142.5 -10.333 201.5 -31s108.833 -50.334 149.5 -89.001s71.667 -85.667 93 -141s32 -117.333 32 -186c0 -114.667 -29.167 -209.5 -87.5 -284.5s-141.5 -124.167 -249.5 -147.5l370 -561h-172zM287 687.001h386
c51.333 0 97 7 137 21s73.833 34.167 101.5 60.5s48.834 58.333 63.501 96s22 80.5 22 128.5s-7.33301 91 -22 129s-35.834 70 -63.501 96s-61.5 46 -101.5 60s-85.667 21 -137 21h-386v-612zM535 -471.999c10.667 0 23.167 2.66602 37.5 7.99902s26.333 14.333 36 27
s14.5 28.334 14.5 47.001v7h-88v165h165v-165c0 -36 -7.83301 -66.5 -23.5 -91.5s-36 -43.833 -61 -56.5s-51.833 -19 -80.5 -19v78z" />
    <glyph glyph-name="uni0157" unicode="&#x157;" horiz-adv-x="721" 
d="M671 965c-9.33301 2 -19.333 3.16699 -30 3.5s-22 0.5 -34 0.5c-46 0 -88.667 -7 -128 -21s-73.166 -36 -101.499 -66s-50.5 -68.833 -66.5 -116.5s-24 -105.167 -24 -172.5v-593h-147v1080h147v-161c12 24 27.5 47.5 46.5 70.5s42.5 43.333 70.5 61s60.667 32 98 43
s80.666 16.5 129.999 16.5h19.5c6.33301 0 12.833 -0.333008 19.5 -1v-144zM131 -472c11.333 0 24 2.66602 38 7.99902s26 14.333 36 27s15 28.334 15 47.001v7h-89v165h166v-165c0 -36 -7.83301 -66.5 -23.5 -91.5s-36.167 -43.833 -61.5 -56.5s-52.333 -19 -81 -19v78z
" />
    <glyph glyph-name="Rcaron" unicode="&#x158;" horiz-adv-x="1262" 
d="M429 1880l147 -173l147 173h150l-229 -270h-136l-229 270h150zM649 547l-362 0.000976562v-547h-147v1440h533c75.333 0 142.5 -10.333 201.5 -31s108.833 -50.334 149.5 -89.001s71.667 -85.667 93 -141s32 -117.333 32 -186c0 -114.667 -29.167 -209.5 -87.5 -284.5
s-141.5 -124.167 -249.5 -147.5l370 -561h-172zM287 687.001h386c51.333 0 97 7 137 21s73.833 34.167 101.5 60.5s48.834 58.333 63.501 96s22 80.5 22 128.5s-7.33301 91 -22 129s-35.834 70 -63.501 96s-61.5 46 -101.5 60s-85.667 21 -137 21h-386v-612z" />
    <glyph glyph-name="rcaron" unicode="&#x159;" horiz-adv-x="721" 
d="M107 1520h150l148 -173l147 173h150l-229 -270h-136zM671 965c-9.33301 2 -19.333 3.16699 -30 3.5s-22 0.5 -34 0.5c-46 0 -88.667 -7 -128 -21s-73.166 -36 -101.499 -66s-50.5 -68.833 -66.5 -116.5s-24 -105.167 -24 -172.5v-593h-147v1080h147v-161
c12 24 27.5 47.5 46.5 70.5s42.5 43.333 70.5 61s60.667 32 98 43s80.666 16.5 129.999 16.5h19.5c6.33301 0 12.833 -0.333008 19.5 -1v-144z" />
    <glyph glyph-name="Sacute" unicode="&#x15a;" horiz-adv-x="1233" 
d="M562 1610l120 310h126l-120 -310h-126zM640 -30c-76 0 -146.164 9.66406 -210.497 28.9971s-121.333 47 -171 83s-91 79.5 -124 130.5s-55.5 108.5 -67.5 172.5l150 25c12 -47.333 30.667 -89.5 56 -126.5s56.333 -68.333 93 -94s78.5 -45.167 125.5 -58.5
s98.5 -20 154.5 -20c55.333 0 105.666 6.66699 150.999 20s84.166 32.166 116.499 56.499s57.5 53.5 75.5 87.5s27 71.667 27 113c0 110.667 -73.667 188 -221 232l-365 109c-204.667 60 -307 175.333 -307 346c0 58 12 111.167 36 159.5s57.5 89.833 100.5 124.5
s94.667 61.667 155 81s126.5 29 198.5 29s138.833 -9.66699 200.5 -29s116 -47.166 163 -83.499s86 -80.5 117 -132.5s52.5 -110.333 64.5 -175l-154 -28c-7.33301 46.667 -22 89 -44 127s-50.167 70.333 -84.5 97s-73.833 47.334 -118.5 62.001s-93.334 22 -146.001 22
c-50 0 -95.5 -6.33301 -136.5 -19s-76 -30.167 -105 -52.5s-51.5 -48.666 -67.5 -78.999s-24 -63.166 -24 -98.499c0 -28 4.66699 -53 14 -75s24.333 -42 45 -60s47.167 -34.5 79.5 -49.5s71.833 -29.5 118.5 -43.5l281 -82c116 -34 203.333 -82.333 262 -145
s88 -140 88 -232c0 -64 -12.5 -122 -37.5 -174s-60.5 -96.5 -106.5 -133.5s-101.333 -65.5 -166 -85.5s-136.667 -30 -216 -30z" />
    <glyph glyph-name="sacute" unicode="&#x15b;" horiz-adv-x="1050" 
d="M466 1250l119 310h126l-119 -310h-126zM544 -29c-126 0 -228.332 25.8301 -306.999 77.4971s-131 129.167 -157 232.5l152 27c19.333 -68.667 55.333 -119.667 108 -153s121.334 -50 206.001 -50c85.333 0 151.833 16.5 199.5 49.5s71.5 79.833 71.5 140.5
c0 16 -1.83301 30.667 -5.5 44s-10 25.833 -19 37.5s-20.833 22.667 -35.5 33s-33.334 19.833 -56.001 28.5c-20 8 -46.5 17 -79.5 27s-70.5 20.667 -112.5 32c-51.333 14 -100.833 28.833 -148.5 44.5s-89.834 35 -126.501 58s-66 51.333 -88 85s-33 74.834 -33 123.501
c0 44 10.167 84.5 30.5 121.5s48.833 68.833 85.5 95.5s80.5 47.5 131.5 62.5s106.833 22.5 167.5 22.5c59.333 0 114.333 -7.5 165 -22.5s95.167 -36.167 133.5 -63.5s69.666 -60.5 93.999 -99.5s39.833 -82.167 46.5 -129.5l-150 -27
c-4.66699 32.667 -15.167 61.834 -31.5 87.501s-37.166 47.5 -62.499 65.5s-55 31.667 -89 41s-71.667 14 -113 14c-36.667 0 -70.667 -4.16699 -102 -12.5s-58.666 -19.666 -81.999 -33.999s-41.666 -31.666 -54.999 -51.999s-20 -42.5 -20 -66.5
c0 -28 8.66699 -51.667 26 -71s39 -35.5 65 -48.5s54.5 -24 85.5 -33s60.5 -17.167 88.5 -24.5c37.333 -10 74.666 -21 111.999 -33s72 -23.667 104 -35c80.667 -28.667 138.5 -64.334 173.5 -107.001s52.5 -96.334 52.5 -161.001c0 -50.667 -9.83301 -96.167 -29.5 -136.5
s-47.834 -74.666 -84.501 -102.999s-81.167 -50 -133.5 -65s-111.5 -22.5 -177.5 -22.5z" />
    <glyph glyph-name="Scircumflex" unicode="&#x15c;" horiz-adv-x="1233" 
d="M564 1880h136l229 -270h-150l-147 173l-148 -173h-150zM640 -30c-76 0 -146.164 9.66406 -210.497 28.9971s-121.333 47 -171 83s-91 79.5 -124 130.5s-55.5 108.5 -67.5 172.5l150 25c12 -47.333 30.667 -89.5 56 -126.5s56.333 -68.333 93 -94
s78.5 -45.167 125.5 -58.5s98.5 -20 154.5 -20c55.333 0 105.666 6.66699 150.999 20s84.166 32.166 116.499 56.499s57.5 53.5 75.5 87.5s27 71.667 27 113c0 110.667 -73.667 188 -221 232l-365 109c-204.667 60 -307 175.333 -307 346c0 58 12 111.167 36 159.5
s57.5 89.833 100.5 124.5s94.667 61.667 155 81s126.5 29 198.5 29s138.833 -9.66699 200.5 -29s116 -47.166 163 -83.499s86 -80.5 117 -132.5s52.5 -110.333 64.5 -175l-154 -28c-7.33301 46.667 -22 89 -44 127s-50.167 70.333 -84.5 97s-73.833 47.334 -118.5 62.001
s-93.334 22 -146.001 22c-50 0 -95.5 -6.33301 -136.5 -19s-76 -30.167 -105 -52.5s-51.5 -48.666 -67.5 -78.999s-24 -63.166 -24 -98.499c0 -28 4.66699 -53 14 -75s24.333 -42 45 -60s47.167 -34.5 79.5 -49.5s71.833 -29.5 118.5 -43.5l281 -82
c116 -34 203.333 -82.333 262 -145s88 -140 88 -232c0 -64 -12.5 -122 -37.5 -174s-60.5 -96.5 -106.5 -133.5s-101.333 -65.5 -166 -85.5s-136.667 -30 -216 -30z" />
    <glyph glyph-name="scircumflex" unicode="&#x15d;" horiz-adv-x="1050" 
d="M476 1520h136l229 -270h-150l-147 173l-148 -173h-150zM544 -29c-126 0 -228.332 25.8301 -306.999 77.4971s-131 129.167 -157 232.5l152 27c19.333 -68.667 55.333 -119.667 108 -153s121.334 -50 206.001 -50c85.333 0 151.833 16.5 199.5 49.5
s71.5 79.833 71.5 140.5c0 16 -1.83301 30.667 -5.5 44s-10 25.833 -19 37.5s-20.833 22.667 -35.5 33s-33.334 19.833 -56.001 28.5c-20 8 -46.5 17 -79.5 27s-70.5 20.667 -112.5 32c-51.333 14 -100.833 28.833 -148.5 44.5s-89.834 35 -126.501 58s-66 51.333 -88 85
s-33 74.834 -33 123.501c0 44 10.167 84.5 30.5 121.5s48.833 68.833 85.5 95.5s80.5 47.5 131.5 62.5s106.833 22.5 167.5 22.5c59.333 0 114.333 -7.5 165 -22.5s95.167 -36.167 133.5 -63.5s69.666 -60.5 93.999 -99.5s39.833 -82.167 46.5 -129.5l-150 -27
c-4.66699 32.667 -15.167 61.834 -31.5 87.501s-37.166 47.5 -62.499 65.5s-55 31.667 -89 41s-71.667 14 -113 14c-36.667 0 -70.667 -4.16699 -102 -12.5s-58.666 -19.666 -81.999 -33.999s-41.666 -31.666 -54.999 -51.999s-20 -42.5 -20 -66.5
c0 -28 8.66699 -51.667 26 -71s39 -35.5 65 -48.5s54.5 -24 85.5 -33s60.5 -17.167 88.5 -24.5c37.333 -10 74.666 -21 111.999 -33s72 -23.667 104 -35c80.667 -28.667 138.5 -64.334 173.5 -107.001s52.5 -96.334 52.5 -161.001c0 -50.667 -9.83301 -96.167 -29.5 -136.5
s-47.834 -74.666 -84.501 -102.999s-81.167 -50 -133.5 -65s-111.5 -22.5 -177.5 -22.5z" />
    <glyph glyph-name="Scedilla" unicode="&#x15e;" horiz-adv-x="1233" 
d="M595 -480c-41.333 0 -83.665 10.3301 -126.998 30.9971l38 102c30.667 -12 56.334 -18 77.001 -18c24.667 0 44.5 7.83301 59.5 23.5s22.5 33.834 22.5 54.501c0 18.667 -5.66699 34 -17 46s-25.166 21.667 -41.499 29s-38.833 15.666 -67.5 24.999
c-1.33301 0.666992 -2.5 1 -3.5 1s-2.16699 0.333008 -3.5 1l56 157c-68.667 4 -132.334 16.667 -191.001 38s-110.5 49.666 -155.5 84.999s-82.5 77.5 -112.5 126.5s-50.667 103.5 -62 163.5l150 25c12 -47.333 30.667 -89.5 56 -126.5s56.333 -68.333 93 -94
s78.5 -45.167 125.5 -58.5s98.5 -20 154.5 -20c55.333 0 105.666 6.66699 150.999 20s84.166 32.166 116.499 56.499s57.5 53.5 75.5 87.5s27 71.667 27 113c0 110.667 -73.667 188 -221 232l-365 109c-204.667 60 -307 175.333 -307 346c0 58 12 111.167 36 159.5
s57.5 89.833 100.5 124.5s94.667 61.667 155 81s126.5 29 198.5 29s138.833 -9.66699 200.5 -29s116 -47.166 163 -83.499s86 -80.5 117 -132.5s52.5 -110.333 64.5 -175l-154 -28c-7.33301 46.667 -22 89 -44 127s-50.167 70.333 -84.5 97s-73.833 47.334 -118.5 62.001
s-93.334 22 -146.001 22c-50 0 -95.5 -6.33301 -136.5 -19s-76 -30.167 -105 -52.5s-51.5 -48.666 -67.5 -78.999s-24 -63.166 -24 -98.499c0 -28 4.66699 -53 14 -75s24.333 -42 45 -60s47.167 -34.5 79.5 -49.5s71.833 -29.5 118.5 -43.5l281 -82
c116 -34 203.333 -82.333 262 -145s88 -140 88 -232c0 -60 -11 -114.833 -33 -164.5s-53.5 -92.667 -94.5 -129s-90.333 -65.5 -148 -87.5s-122.167 -35.333 -193.5 -40l-33 -91c37.333 -16.667 66.833 -39.167 88.5 -67.5s32.5 -63.166 32.5 -104.499
c0 -35.333 -8.66699 -67.5 -26 -96.5s-40.5 -51.667 -69.5 -68s-60.5 -24.5 -94.5 -24.5z" />
    <glyph glyph-name="scedilla" unicode="&#x15f;" horiz-adv-x="1050" 
d="M495 -480c-42 0 -84.6699 10.332 -128.003 30.999l38 102c31.333 -12 57.333 -18 78 -18c24.667 0 44.334 7.83301 59.001 23.5s22 33.834 22 54.501c0 18.667 -5.5 34 -16.5 46s-24.833 21.667 -41.5 29s-39 15.666 -67 24.999c-1.33301 0.666992 -2.66602 1 -3.99902 1
s-2.66602 0.333008 -3.99902 1l57 158c-110 7.33301 -199.5 36.666 -268.5 87.999s-115.5 124.666 -139.5 219.999l152 27c19.333 -68.667 55.333 -119.667 108 -153s121.334 -50 206.001 -50c85.333 0 151.833 16.5 199.5 49.5s71.5 79.833 71.5 140.5
c0 16 -1.83301 30.667 -5.5 44s-10 25.833 -19 37.5s-20.833 22.667 -35.5 33s-33.334 19.833 -56.001 28.5c-20 8 -46.5 17 -79.5 27s-70.5 20.667 -112.5 32c-51.333 14 -100.833 28.833 -148.5 44.5s-89.834 35 -126.501 58s-66 51.333 -88 85s-33 74.834 -33 123.501
c0 44 10.167 84.5 30.5 121.5s48.833 68.833 85.5 95.5s80.5 47.5 131.5 62.5s106.833 22.5 167.5 22.5c59.333 0 114.333 -7.5 165 -22.5s95.167 -36.167 133.5 -63.5s69.666 -60.5 93.999 -99.5s39.833 -82.167 46.5 -129.5l-150 -27
c-4.66699 32.667 -15.167 61.834 -31.5 87.501s-37.166 47.5 -62.499 65.5s-55 31.667 -89 41s-71.667 14 -113 14c-36.667 0 -70.667 -4.16699 -102 -12.5s-58.666 -19.666 -81.999 -33.999s-41.666 -31.666 -54.999 -51.999s-20 -42.5 -20 -66.5
c0 -28 8.66699 -51.667 26 -71s39 -35.5 65 -48.5s54.5 -24 85.5 -33s60.5 -17.167 88.5 -24.5c37.333 -10 74.666 -21 111.999 -33s72 -23.667 104 -35c80.667 -28.667 138.5 -64.334 173.5 -107.001s52.5 -96.334 52.5 -161.001c0 -47.333 -8.5 -90.166 -25.5 -128.499
s-41.5 -71.333 -73.5 -99s-71 -49.834 -117 -66.501s-98 -27 -156 -31l-34 -92c38 -16.667 67.667 -39.167 89 -67.5s32 -63.166 32 -104.499c0 -35.333 -8.66699 -67.5 -26 -96.5s-40.5 -51.667 -69.5 -68s-60.167 -24.5 -93.5 -24.5z" />
    <glyph glyph-name="Scaron" unicode="&#x160;" horiz-adv-x="1233" 
d="M495 1880l147 -173l147 173h150l-229 -270h-136l-229 270h150zM640 -30c-76 0 -146.164 9.66406 -210.497 28.9971s-121.333 47 -171 83s-91 79.5 -124 130.5s-55.5 108.5 -67.5 172.5l150 25c12 -47.333 30.667 -89.5 56 -126.5s56.333 -68.333 93 -94
s78.5 -45.167 125.5 -58.5s98.5 -20 154.5 -20c55.333 0 105.666 6.66699 150.999 20s84.166 32.166 116.499 56.499s57.5 53.5 75.5 87.5s27 71.667 27 113c0 110.667 -73.667 188 -221 232l-365 109c-204.667 60 -307 175.333 -307 346c0 58 12 111.167 36 159.5
s57.5 89.833 100.5 124.5s94.667 61.667 155 81s126.5 29 198.5 29s138.833 -9.66699 200.5 -29s116 -47.166 163 -83.499s86 -80.5 117 -132.5s52.5 -110.333 64.5 -175l-154 -28c-7.33301 46.667 -22 89 -44 127s-50.167 70.333 -84.5 97s-73.833 47.334 -118.5 62.001
s-93.334 22 -146.001 22c-50 0 -95.5 -6.33301 -136.5 -19s-76 -30.167 -105 -52.5s-51.5 -48.666 -67.5 -78.999s-24 -63.166 -24 -98.499c0 -28 4.66699 -53 14 -75s24.333 -42 45 -60s47.167 -34.5 79.5 -49.5s71.833 -29.5 118.5 -43.5l281 -82
c116 -34 203.333 -82.333 262 -145s88 -140 88 -232c0 -64 -12.5 -122 -37.5 -174s-60.5 -96.5 -106.5 -133.5s-101.333 -65.5 -166 -85.5s-136.667 -30 -216 -30z" />
    <glyph glyph-name="scaron" unicode="&#x161;" horiz-adv-x="1050" 
d="M399 1520l147 -173l147 173h150l-229 -270h-136l-229 270h150zM544 -29c-126 0 -228.332 25.8301 -306.999 77.4971s-131 129.167 -157 232.5l152 27c19.333 -68.667 55.333 -119.667 108 -153s121.334 -50 206.001 -50c85.333 0 151.833 16.5 199.5 49.5
s71.5 79.833 71.5 140.5c0 16 -1.83301 30.667 -5.5 44s-10 25.833 -19 37.5s-20.833 22.667 -35.5 33s-33.334 19.833 -56.001 28.5c-20 8 -46.5 17 -79.5 27s-70.5 20.667 -112.5 32c-51.333 14 -100.833 28.833 -148.5 44.5s-89.834 35 -126.501 58s-66 51.333 -88 85
s-33 74.834 -33 123.501c0 44 10.167 84.5 30.5 121.5s48.833 68.833 85.5 95.5s80.5 47.5 131.5 62.5s106.833 22.5 167.5 22.5c59.333 0 114.333 -7.5 165 -22.5s95.167 -36.167 133.5 -63.5s69.666 -60.5 93.999 -99.5s39.833 -82.167 46.5 -129.5l-150 -27
c-4.66699 32.667 -15.167 61.834 -31.5 87.501s-37.166 47.5 -62.499 65.5s-55 31.667 -89 41s-71.667 14 -113 14c-36.667 0 -70.667 -4.16699 -102 -12.5s-58.666 -19.666 -81.999 -33.999s-41.666 -31.666 -54.999 -51.999s-20 -42.5 -20 -66.5
c0 -28 8.66699 -51.667 26 -71s39 -35.5 65 -48.5s54.5 -24 85.5 -33s60.5 -17.167 88.5 -24.5c37.333 -10 74.666 -21 111.999 -33s72 -23.667 104 -35c80.667 -28.667 138.5 -64.334 173.5 -107.001s52.5 -96.334 52.5 -161.001c0 -50.667 -9.83301 -96.167 -29.5 -136.5
s-47.834 -74.666 -84.501 -102.999s-81.167 -50 -133.5 -65s-111.5 -22.5 -177.5 -22.5z" />
    <glyph glyph-name="uni0162" unicode="&#x162;" horiz-adv-x="1193" 
d="M502 0v1299h-447v141h1034v-141h-440v-1299h-147zM534 -489c-41.333 0 -83.6689 10.332 -127.002 30.999l38 102c30.667 -12 56.334 -18 77.001 -18c24.667 0 44.5 7.83301 59.5 23.5s22.5 33.834 22.5 54.501c0 18.667 -5.66699 34 -17 46s-25.166 21.667 -41.499 29
s-38.833 15.666 -67.5 24.999c-1.33301 0.666992 -2.5 1 -3.5 1s-2.16699 0.333008 -3.5 1l74 206h109l-51 -140c37.333 -16.667 66.833 -39.167 88.5 -67.5s32.5 -63.166 32.5 -104.499c0 -35.333 -8.66699 -67.5 -26 -96.5s-40.5 -51.667 -69.5 -68
s-60.5 -24.5 -94.5 -24.5z" />
    <glyph glyph-name="uni0163" unicode="&#x163;" horiz-adv-x="801" 
d="M428 -480c-41.333 0 -83.668 10.332 -127.001 30.999l38 102c30.667 -12 56.334 -18 77.001 -18c24.667 0 44.334 7.83301 59.001 23.5s22 33.834 22 54.501c0 18.667 -5.5 34 -16.5 46s-24.667 21.667 -41 29s-38.833 15.666 -67.5 24.999
c-1.33301 0.666992 -2.5 1 -3.5 1s-2.16699 0.333008 -3.5 1l70 196c-58.667 15.333 -104 45 -136 89s-48 99.667 -48 167v673h-231v140h231v300h146v-300h331v-140h-331v-633c0 -62 12.833 -106 38.5 -132s69.167 -39 130.5 -39h162v-136h-188l-43 -119
c37.333 -16.667 66.666 -39.167 87.999 -67.5s32 -63.166 32 -104.499c0 -35.333 -8.5 -67.5 -25.5 -96.5s-40 -51.667 -69 -68s-60.5 -24.5 -94.5 -24.5z" />
    <glyph glyph-name="Tcaron" unicode="&#x164;" horiz-adv-x="1193" 
d="M298 1880h150l147 -173l148 173h150l-230 -270h-136zM523 0v1299h-503v141h1153v-141h-503v-1299h-147z" />
    <glyph glyph-name="tcaron" unicode="&#x165;" horiz-adv-x="801" 
d="M20 1080h231.001v361h146v-361h331v-140h-331v-633c0 -62 12.833 -106 38.5 -132s69.167 -39 130.5 -39h162v-136h-201c-42.667 0 -81.167 6.16699 -115.5 18.5s-63.333 30 -87 53s-41.834 51 -54.501 84s-19 70.167 -19 111.5v673h-231v140zM628.001 1301
l7.99902 0.00195312c18 0 32.833 4.16699 44.5 12.5s19.667 20 24 35s6.5 33.167 6.5 54.5v9c-0.666992 4.66699 -1 9 -1 13v12h-91v211h171v-251c0 -40.667 -7 -74.834 -21 -102.501s-31.667 -46.334 -53 -56.001s-41.666 -14.5 -60.999 -14.5
c-11.333 0 -23.333 1.33301 -36 4z" />
    <glyph glyph-name="Tbar" unicode="&#x166;" horiz-adv-x="1193" 
d="M157 647v146h366v506h-503v141h1153v-141h-503v-506h367v-146h-367v-647h-147v647h-366z" />
    <glyph glyph-name="tbar" unicode="&#x167;" horiz-adv-x="841" 
d="M20 470l0.000976562 140h231v330h-231v140h231v300h146v-300h331v-140h-331v-330h344v-140h-344v-163c0 -62 12.833 -106 38.5 -132s69.167 -39 130.5 -39h162v-136h-201c-42.667 0 -81.167 6.16699 -115.5 18.5s-63.333 30 -87 53s-41.834 51 -54.501 84
s-19 70.167 -19 111.5v203h-231z" />
    <glyph glyph-name="Utilde" unicode="&#x168;" horiz-adv-x="1404" 
d="M702 -30c-85.333 0 -162.664 13.167 -231.997 39.5s-128.5 64.833 -177.5 115.5s-86.667 112.5 -113 185.5s-39.5 156.167 -39.5 249.5v880h147v-877c0 -72.667 9.16699 -137.167 27.5 -193.5s45.166 -103.833 80.499 -142.5s78.666 -68 129.999 -88s110.333 -30 177 -30
s125.667 10 177 30s94.666 49.333 129.999 88s62.166 86.167 80.499 142.5s27.5 120.833 27.5 193.5v877h147v-880c0 -93.333 -13.167 -176.5 -39.5 -249.5s-64 -134.833 -113 -185.5s-108.167 -89.167 -177.5 -115.5s-146.666 -39.5 -231.999 -39.5zM862.002 1612
c-27.333 0 -54.001 5.5 -80.001 16.5s-56.667 27.167 -92 48.5c-28.667 16.667 -52.167 28.834 -70.5 36.501s-35.5 11.5 -51.5 11.5c-16.667 0 -29.667 -4.66699 -39 -14s-14.333 -18.5 -15 -27.5s-1 -15.167 -1 -18.5c0 -12 2 -24 6 -36h-104
c-5.33301 21.333 -8 41.333 -8 60c0 16.667 3.16699 37 9.5 61s22.333 45.5 48 64.5s57.834 28.5 96.501 28.5c27.333 0 54 -5.5 80 -16.5s57.333 -26.833 94 -47.5c29.333 -16.667 52.833 -29 70.5 -37s34.5 -12 50.5 -12c22.667 0 37.5 7.33301 44.5 22s10.5 28 10.5 40
c0 11.333 -2 23.666 -6 36.999h104c5.33301 -20.667 8 -40.667 8 -60c0 -16.667 -3.16699 -37.167 -9.5 -61.5s-22.333 -46.333 -48 -66s-58.167 -29.5 -97.5 -29.5z" />
    <glyph glyph-name="utilde" unicode="&#x169;" horiz-adv-x="1187" 
d="M266 487c0 -66.667 7.66699 -123.835 23 -171.502s36.666 -86.667 63.999 -117s60.333 -52.5 99 -66.5s81.334 -21 128.001 -21c46 0 88.667 7 128 21s73.166 36 101.499 66s50.5 68.833 66.5 116.5s24 105.167 24 172.5v593h146v-1080h-146v161
c-12.667 -24 -28.5 -47.5 -47.5 -70.5s-42.5 -43.333 -70.5 -61s-60.667 -32 -98 -43s-80.666 -16.5 -129.999 -16.5c-64.667 0 -123.667 9.83301 -177 29.5s-99 49.834 -137 90.501s-67.5 92.334 -88.5 155.001s-31.5 136.667 -31.5 222v613h146v-593zM757 1252
c-27.333 0 -54.001 5.5 -80.001 16.5s-56.667 27.167 -92 48.5c-28.667 16.667 -52.167 28.834 -70.5 36.501s-35.5 11.5 -51.5 11.5c-16.667 0 -29.667 -4.66699 -39 -14s-14.333 -18.5 -15 -27.5s-1 -15.167 -1 -18.5c0 -12 2 -24 6 -36h-104
c-5.33301 21.333 -8 41.333 -8 60c0 16.667 3.16699 37 9.5 61s22.333 45.5 48 64.5s57.834 28.5 96.501 28.5c27.333 0 54 -5.5 80 -16.5s57.333 -26.833 94 -47.5c29.333 -16.667 52.833 -29 70.5 -37s34.5 -12 50.5 -12c22.667 0 37.5 7.33301 44.5 22s10.5 28 10.5 40
c0 11.333 -2 23.666 -6 36.999h104c5.33301 -20.667 8 -40.667 8 -60c0 -16.667 -3.16699 -37.167 -9.5 -61.5s-22.333 -46.333 -48 -66s-58.167 -29.5 -97.5 -29.5z" />
    <glyph glyph-name="Umacron" unicode="&#x16a;" horiz-adv-x="1404" 
d="M451 1805h502v-125h-502v125zM702 -30c-85.333 0 -162.664 13.167 -231.997 39.5s-128.5 64.833 -177.5 115.5s-86.667 112.5 -113 185.5s-39.5 156.167 -39.5 249.5v880h147v-877c0 -72.667 9.16699 -137.167 27.5 -193.5s45.166 -103.833 80.499 -142.5
s78.666 -68 129.999 -88s110.333 -30 177 -30s125.667 10 177 30s94.666 49.333 129.999 88s62.166 86.167 80.499 142.5s27.5 120.833 27.5 193.5v877h147v-880c0 -93.333 -13.167 -176.5 -39.5 -249.5s-64 -134.833 -113 -185.5s-108.167 -89.167 -177.5 -115.5
s-146.666 -39.5 -231.999 -39.5z" />
    <glyph glyph-name="umacron" unicode="&#x16b;" horiz-adv-x="1187" 
d="M332 1320v125h501v-125h-501zM267 487c0 -66.667 7.49902 -123.835 22.499 -171.502s36.333 -86.667 64 -117s60.667 -52.5 99 -66.5s80.833 -21 127.5 -21c46 0 88.667 7 128 21s73.166 36 101.499 66s50.5 68.833 66.5 116.5s24 105.167 24 172.5v593h147v-1080h-147
v161c-12.667 -24 -28.5 -47.5 -47.5 -70.5s-42.333 -43.333 -70 -61s-60.167 -32 -97.5 -43s-80.666 -16.5 -129.999 -16.5c-65.333 0 -124.666 9.83301 -177.999 29.5s-99 49.834 -137 90.501s-67.5 92.334 -88.5 155.001s-31.5 136.667 -31.5 222v613h147v-593z" />
    <glyph glyph-name="Ubreve" unicode="&#x16c;" horiz-adv-x="1404" 
d="M702 1568c-46.667 0 -89.833 11.5 -129.5 34.5s-71 54.333 -94 94s-34.5 82.834 -34.5 129.501h122c0 -24.667 6.16699 -47.334 18.5 -68.001s28.833 -37.167 49.5 -49.5s43.334 -18.5 68.001 -18.5s47.5 6.16699 68.5 18.5s37.5 28.833 49.5 49.5s18 43.334 18 68.001
h122c0 -46.667 -11.5 -89.834 -34.5 -129.501s-54.333 -71 -94 -94s-82.834 -34.5 -129.501 -34.5zM702.001 -30c-85.333 0 -162.664 13.167 -231.997 39.5s-128.5 64.833 -177.5 115.5s-86.667 112.5 -113 185.5s-39.5 156.167 -39.5 249.5v880h147v-877
c0 -72.667 9.16699 -137.167 27.5 -193.5s45.166 -103.833 80.499 -142.5s78.666 -68 129.999 -88s110.333 -30 177 -30s125.667 10 177 30s94.666 49.333 129.999 88s62.166 86.167 80.499 142.5s27.5 120.833 27.5 193.5v877h147v-880
c0 -93.333 -13.167 -176.5 -39.5 -249.5s-64 -134.833 -113 -185.5s-108.167 -89.167 -177.5 -115.5s-146.666 -39.5 -231.999 -39.5z" />
    <glyph glyph-name="ubreve" unicode="&#x16d;" horiz-adv-x="1187" 
d="M583 1208c-46.667 0 -89.834 11.5 -129.501 34.5s-71 54.333 -94 94s-34.5 82.834 -34.5 129.501h122c0 -24.667 6.16699 -47.334 18.5 -68.001s29 -37.167 50 -49.5s43.5 -18.5 67.5 -18.5c25.333 0 48.333 6.16699 69 18.5s37 28.833 49 49.5s18 43.334 18 68.001h122
c0 -46.667 -11.5 -89.834 -34.5 -129.501s-54.167 -71 -93.5 -94s-82.666 -34.5 -129.999 -34.5zM267 487c0 -66.667 7.49902 -123.835 22.499 -171.502s36.333 -86.667 64 -117s60.667 -52.5 99 -66.5s80.833 -21 127.5 -21c46 0 88.667 7 128 21s73.166 36 101.499 66
s50.5 68.833 66.5 116.5s24 105.167 24 172.5v593h147v-1080h-147v161c-12.667 -24 -28.5 -47.5 -47.5 -70.5s-42.333 -43.333 -70 -61s-60.167 -32 -97.5 -43s-80.666 -16.5 -129.999 -16.5c-65.333 0 -124.666 9.83301 -177.999 29.5s-99 49.834 -137 90.501
s-67.5 92.334 -88.5 155.001s-31.5 136.667 -31.5 222v613h147v-593z" />
    <glyph glyph-name="Uring" unicode="&#x16e;" horiz-adv-x="1404" 
d="M705 1557c-39.333 0 -75.833 9.83301 -109.5 29.5s-60.5 46.167 -80.5 79.5s-30 70 -30 110c0 39.333 10 75.833 30 109.5s46.833 60.334 80.5 80.001s70.167 29.5 109.5 29.5s75.833 -9.83301 109.5 -29.5s60.334 -46.334 80.001 -80.001s29.5 -70.167 29.5 -109.5
c0 -40 -9.83301 -76.667 -29.5 -110s-46.334 -59.833 -80.001 -79.5s-70.167 -29.5 -109.5 -29.5zM705 1666c30.667 0 56.667 10.833 78 32.5s32 47.5 32 77.5c0 30.667 -10.667 56.667 -32 78s-47.333 32 -78 32c-30 0 -55.833 -10.667 -77.5 -32s-32.5 -47.333 -32.5 -78
c0 -30 10.833 -55.833 32.5 -77.5s47.5 -32.5 77.5 -32.5zM702 -30c-85.333 0 -162.664 13.167 -231.997 39.5s-128.5 64.833 -177.5 115.5s-86.667 112.5 -113 185.5s-39.5 156.167 -39.5 249.5v880h147v-877c0 -72.667 9.16699 -137.167 27.5 -193.5
s45.166 -103.833 80.499 -142.5s78.666 -68 129.999 -88s110.333 -30 177 -30s125.667 10 177 30s94.666 49.333 129.999 88s62.166 86.167 80.499 142.5s27.5 120.833 27.5 193.5v877h147v-880c0 -93.333 -13.167 -176.5 -39.5 -249.5s-64 -134.833 -113 -185.5
s-108.167 -89.167 -177.5 -115.5s-146.666 -39.5 -231.999 -39.5z" />
    <glyph glyph-name="uring" unicode="&#x16f;" horiz-adv-x="1187" 
d="M584 1197c-39.333 0 -75.833 9.83301 -109.5 29.5s-60.334 46.167 -80.001 79.5s-29.5 70 -29.5 110c0 39.333 9.83301 75.833 29.5 109.5s46.334 60.334 80.001 80.001s70.167 29.5 109.5 29.5c40 0 76.667 -9.83301 110 -29.5s59.833 -46.334 79.5 -80.001
s29.5 -70.167 29.5 -109.5c0 -40 -9.83301 -76.667 -29.5 -110s-46.167 -59.833 -79.5 -79.5s-70 -29.5 -110 -29.5zM584 1306c30.667 0 56.667 10.833 78 32.5s32 47.5 32 77.5c0 30.667 -10.667 56.667 -32 78s-47.333 32 -78 32c-30 0 -55.833 -10.667 -77.5 -32
s-32.5 -47.333 -32.5 -78c0 -30 10.833 -55.833 32.5 -77.5s47.5 -32.5 77.5 -32.5zM267 487c0 -66.667 7.49902 -123.835 22.499 -171.502s36.333 -86.667 64 -117s60.667 -52.5 99 -66.5s80.833 -21 127.5 -21c46 0 88.667 7 128 21s73.166 36 101.499 66
s50.5 68.833 66.5 116.5s24 105.167 24 172.5v593h147v-1080h-147v161c-12.667 -24 -28.5 -47.5 -47.5 -70.5s-42.333 -43.333 -70 -61s-60.167 -32 -97.5 -43s-80.666 -16.5 -129.999 -16.5c-65.333 0 -124.666 9.83301 -177.999 29.5s-99 49.834 -137 90.501
s-67.5 92.334 -88.5 155.001s-31.5 136.667 -31.5 222v613h147v-593z" />
    <glyph glyph-name="Uhungarumlaut" unicode="&#x170;" horiz-adv-x="1404" 
d="M810 1610l119 310h126l-119 -310h-126zM435 1610l119 310h126l-119 -310h-126zM702 -30c-85.333 0 -162.664 13.167 -231.997 39.5s-128.5 64.833 -177.5 115.5s-86.667 112.5 -113 185.5s-39.5 156.167 -39.5 249.5v880h147v-877
c0 -72.667 9.16699 -137.167 27.5 -193.5s45.166 -103.833 80.499 -142.5s78.666 -68 129.999 -88s110.333 -30 177 -30s125.667 10 177 30s94.666 49.333 129.999 88s62.166 86.167 80.499 142.5s27.5 120.833 27.5 193.5v877h147v-880
c0 -93.333 -13.167 -176.5 -39.5 -249.5s-64 -134.833 -113 -185.5s-108.167 -89.167 -177.5 -115.5s-146.666 -39.5 -231.999 -39.5z" />
    <glyph glyph-name="uhungarumlaut" unicode="&#x171;" horiz-adv-x="1187" 
d="M824 1250h-126l120 310h126zM450 1250h-126l119 310h126zM267 487c0 -66.667 7.49902 -123.835 22.499 -171.502s36.333 -86.667 64 -117s60.667 -52.5 99 -66.5s80.833 -21 127.5 -21c46 0 88.667 7 128 21s73.166 36 101.499 66s50.5 68.833 66.5 116.5
s24 105.167 24 172.5v593h147v-1080h-147v161c-12.667 -24 -28.5 -47.5 -47.5 -70.5s-42.333 -43.333 -70 -61s-60.167 -32 -97.5 -43s-80.666 -16.5 -129.999 -16.5c-65.333 0 -124.666 9.83301 -177.999 29.5s-99 49.834 -137 90.501s-67.5 92.334 -88.5 155.001
s-31.5 136.667 -31.5 222v613h147v-593z" />
    <glyph glyph-name="Uogonek" unicode="&#x172;" horiz-adv-x="1404" 
d="M702 -30c-85.333 0 -162.662 13.1689 -231.995 39.502s-128.5 64.833 -177.5 115.5s-86.667 112.5 -113 185.5s-39.5 156.167 -39.5 249.5v880h147v-877c0 -72.667 9.16699 -137.167 27.5 -193.5s45.166 -103.833 80.499 -142.5s78.666 -68 129.999 -88
s110.333 -30 177 -30s125.667 10 177 30s94.666 49.333 129.999 88s62.166 86.167 80.499 142.5s27.5 120.833 27.5 193.5v877h147v-880c0 -120.667 -21.5 -223.834 -64.5 -309.501s-103.5 -152.167 -181.5 -199.5c-27.333 -20.667 -54 -43.334 -80 -68.001
c-34.667 -32.667 -62.334 -66 -83.001 -100s-31 -65 -31 -93c0 -24 7.5 -43.833 22.5 -59.5s32.833 -23.5 53.5 -23.5c14.667 0 30.167 4.16699 46.5 12.5s31.5 20.166 45.5 35.499l65 -78c-22.667 -29.333 -48.667 -51.666 -78 -66.999s-60 -23 -92 -23
c-34.667 0 -66.5 9.16699 -95.5 27.5s-52.167 42.5 -69.5 72.5s-26 62 -26 96c0 42 12 85.333 36 130c11.333 20.667 24 40.667 38 60c-22 -2 -44.667 -3 -68 -3z" />
    <glyph glyph-name="uogonek" unicode="&#x173;" horiz-adv-x="1187" 
d="M883 -482c-34.667 0 -66.501 8.99902 -95.501 26.999s-52.167 42 -69.5 72s-26 62 -26 96c0 42 12.167 85.667 36.5 131s57.166 89 98.499 131c22.667 22.667 47 44.334 73 65.001v121c-12.667 -24 -28.5 -47.5 -47.5 -70.5s-42.333 -43.333 -70 -61
s-60.167 -32 -97.5 -43s-80.666 -16.5 -129.999 -16.5c-65.333 0 -124.666 9.83301 -177.999 29.5s-99 49.834 -137 90.501s-67.5 92.334 -88.5 155.001s-31.5 136.667 -31.5 222v613h147v-593c0 -66.667 7.5 -123.834 22.5 -171.501s36.333 -86.667 64 -117
s60.667 -52.5 99 -66.5s80.833 -21 127.5 -21c46 0 88.667 7 128 21s73.166 36 101.499 66s50.5 68.833 66.5 116.5s24 105.167 24 172.5v593h147v-1080c-41.333 -24.667 -79.166 -53.5 -113.499 -86.5s-61.833 -66.5 -82.5 -100.5s-31 -64.667 -31 -92
c0 -24.667 7.5 -44.834 22.5 -60.501s32.833 -23.5 53.5 -23.5c14.667 0 30.167 4.33301 46.5 13s31.5 20.667 45.5 36l65 -79c-22.667 -28.667 -48.667 -50.667 -78 -66s-60 -23 -92 -23z" />
    <glyph glyph-name="Wcircumflex" unicode="&#x174;" horiz-adv-x="1871" 
d="M638 1610l229 270h136l230 -270h-150l-148 173l-147 -173h-150zM445 0l-412 1440h153l337 -1195l335 1195h154l337 -1195l335 1195h154l-412 -1440h-155l-336 1188l-335 -1188h-155z" />
    <glyph glyph-name="wcircumflex" unicode="&#x175;" horiz-adv-x="1539" 
d="M469 1250l229 270h136l229 -270h-150l-147 173l-147 -173h-150zM770 841l-247 -841h-152l-331 1080h149l258 -864l256 864h134l256 -864l257 864h149l-330 -1080h-152z" />
    <glyph glyph-name="Ycircumflex" unicode="&#x176;" horiz-adv-x="1112" 
d="M258 1610l229 270h136l230 -270h-150l-148 173l-147 -173h-150zM483 0v603l-483 837h170l387 -669l385 669h170l-482 -837v-603h-147z" />
    <glyph glyph-name="ycircumflex" unicode="&#x177;" horiz-adv-x="1055" 
d="M245 1250l229 270h136l229 -270h-150l-147 173l-147 -173h-150zM294 -480l178 482l-439 1078h156l354 -888l328 888h150l-580 -1560h-147z" />
    <glyph glyph-name="Ydieresis" unicode="&#x178;" horiz-adv-x="1112" 
d="M667 1651v160h160v-160h-160zM286 1651v160h160v-160h-160zM483 0v603l-483 837h170l387 -669l385 669h170l-482 -837v-603h-147z" />
    <glyph glyph-name="Zacute" unicode="&#x179;" horiz-adv-x="1261" 
d="M704 1610h-126l119 310h126zM100 0v141l876 1158h-876v141h1061v-141l-876 -1158h876v-141h-1061z" />
    <glyph glyph-name="zacute" unicode="&#x17a;" horiz-adv-x="1039" 
d="M563 1250h-133l119 310h133zM40 0v140l730 800h-730v140h919v-140l-729 -800h729v-140h-919z" />
    <glyph glyph-name="Zdotaccent" unicode="&#x17b;" horiz-adv-x="1261" 
d="M549 1669v171h170v-171h-170zM100 0v141l876 1158h-876v141h1061v-141l-876 -1158h876v-141h-1061z" />
    <glyph glyph-name="zdotaccent" unicode="&#x17c;" horiz-adv-x="1039" 
d="M414 1309v171h171v-171h-171zM40 0v140l730 800h-730v140h919v-140l-729 -800h729v-140h-919z" />
    <glyph glyph-name="Zcaron" unicode="&#x17d;" horiz-adv-x="1261" 
d="M337 1880h150l147 -173l147 173h150l-229 -270h-136zM100 0v141l876 1158h-876v141h1061v-141l-876 -1158h876v-141h-1061z" />
    <glyph glyph-name="zcaron" unicode="&#x17e;" horiz-adv-x="1039" 
d="M202 1520h150l148 -173l147 173h150l-229 -270h-136zM40 0v140l730 800h-730v140h919v-140l-729 -800h729v-140h-919z" />
    <glyph glyph-name="uni018F" unicode="&#x18f;" horiz-adv-x="1410" 
d="M689 -30c-96.667 0 -183.835 16.3311 -261.502 48.998s-143.667 79.334 -198 140.001s-96.166 134.167 -125.499 220.5s-44 183.5 -44 291.5c0 10 0.166992 23.833 0.5 41.5s1.83301 37.167 4.5 58.5h1127c-4.66699 89.333 -19.5 168.5 -44.5 237.5s-59.333 127 -103 174
s-96.5 82.833 -158.5 107.5s-132 37 -210 37c-50.667 0 -98.667 -6.5 -144 -19.5s-86.333 -32 -123 -57s-68.667 -55.333 -96 -91s-48.666 -76.5 -63.999 -122.5l-148 36c22 63.333 51.333 119.666 88 168.999s79.5 90.833 128.5 124.5s104 59.167 165 76.5
s126.5 26 196.5 26c102.667 0 195.334 -17.5 278.001 -52.5s153.167 -84.833 211.5 -149.5s103.166 -143.167 134.499 -235.5s47 -196.166 47 -311.499s-15.333 -219.166 -46 -311.499s-74.667 -171 -132 -236s-126.833 -115 -208.5 -150s-173.167 -52.5 -274.5 -52.5z
M217.999 630.998c1.33301 -82 12.833 -155.166 34.5 -219.499s52.5 -118.833 92.5 -163.5s88.667 -78.667 146 -102s122 -35 194 -35c74 0 140.667 11.833 200 35.5s110.666 57.667 153.999 102s77.833 98.666 103.5 162.999s41.834 137.5 48.501 219.5h-973z" />
    <glyph glyph-name="florin" unicode="&#x192;" horiz-adv-x="1436" 
d="M321 -30c-49.333 0 -97.1699 6.66504 -143.503 19.998s-83.166 26.333 -110.499 39l62 127c3.33301 -1.33301 7.33301 -3.33301 12 -6c26.667 -10 54.334 -19 83.001 -27s58.667 -12 90 -12c62 0 116.167 22.333 162.5 67s77.833 118.334 94.5 221.001l42 258h-352v126
h373l49 301c14 88 41.833 160 83.5 216s91.834 98.333 150.501 127s123.334 43 194.001 43c37.333 0 74.166 -3.66699 110.499 -11s68 -16 95 -26s44.5 -18 52.5 -24l-69 -123c-10.667 6 -25.667 12.333 -45 19s-41 12.334 -65 17.001s-48.333 7 -73 7
c-62 0 -120.667 -16.667 -176 -50s-90.333 -94.333 -105 -183l-51 -313h442v-126h-463l-46 -280c-24.667 -148 -74 -252.833 -148 -314.5s-157 -92.5 -249 -92.5z" />
    <glyph glyph-name="Ohorn" unicode="&#x1a0;" horiz-adv-x="1447" 
d="M1246 1623c4 -25.333 6.00195 -49 6.00195 -71c0 -29.333 -4.5 -60.333 -13.5 -93s-32.167 -60.667 -69.5 -84c-14.667 -9.33301 -31.334 -17 -50.001 -23c88 -64.667 154.667 -151.334 200 -260.001s68 -232.667 68 -372c0 -110.667 -14.333 -212 -43 -304
s-71 -171 -127 -237s-125.333 -117.333 -208 -154s-178 -55 -286 -55c-107.333 0 -202.333 18.333 -285 55s-152 88 -208 154s-98.333 145 -127 237s-43 193.333 -43 304s14.333 212 43 304s71 171 127 237s125.333 117.333 208 154s177.667 55 285 55
c73.333 0 141.666 -8.66699 204.999 -26c25.333 -6.66699 47 -10 65 -10h4c20 0 39.333 4.66699 58 14c22 10.667 38.167 24.334 48.5 41.001s16.5 33 18.5 49s3 32 3 48c0 8.66699 -0.333008 18 -1 28l-1 9h123zM723.002 111c84.667 0 158.666 14.833 221.999 44.5
s116.166 71.334 158.499 125.001s74.166 117.834 95.499 192.501s32 157 32 247s-10.667 172.333 -32 247s-53.166 138.834 -95.499 192.501s-95.166 95.334 -158.499 125.001s-137.333 44.5 -222 44.5s-158.5 -14.833 -221.5 -44.5s-115.5 -71.334 -157.5 -125.001
s-73.667 -117.834 -95 -192.501s-32.333 -157 -33 -247s9.5 -172.333 30.5 -247s52.667 -138.834 95 -192.501s95.333 -95.334 159 -125.001s137.834 -44.5 222.501 -44.5z" />
    <glyph glyph-name="ohorn" unicode="&#x1a1;" horiz-adv-x="1183" 
d="M1097 1260c4 -25.333 5.99805 -49.001 5.99805 -71.001c0 -29.333 -4.5 -60.333 -13.5 -93s-32.167 -60.667 -69.5 -84c-22 -14 -47.667 -24 -77 -30c-1.33301 0 -2.33301 -0.333008 -3 -1c53.333 -50.667 93.833 -113.334 121.5 -188.001s41.5 -158.667 41.5 -252
c0 -84.667 -11.667 -162.167 -35 -232.5s-57 -130.5 -101 -180.5s-97.667 -88.833 -161 -116.5s-135 -41.5 -215 -41.5s-151.667 14 -215 42s-117 67.167 -161 117.5s-77.5 110.5 -100.5 180.5s-34.5 147 -34.5 231c0 84.667 11.833 162 35.5 232s57.5 130 101.5 180
s97.667 88.667 161 116s134.333 41 213 41c62.667 0 121 -8.66699 175 -26c31.333 -8.66699 57 -13 77 -13h4c20.667 0 40.334 4.66699 59.001 14c21.333 10.667 37.333 24.334 48 41.001s16.834 32.5 18.501 47.5s2.5 29.167 2.5 42.5c0 10.667 -0.333008 22.334 -1 35.001
v9h123zM590.998 110.999c59.333 0 111.167 10.334 155.5 31.001s81.333 49.667 111 87s52 82.5 67 135.5s22.5 111.833 22.5 176.5c0 66 -7.5 125.333 -22.5 178s-37.5 97.5 -67.5 134.5s-67.167 65.5 -111.5 85.5s-95.833 30 -154.5 30
c-59.333 0 -111.166 -10.167 -155.499 -30.5s-81.333 -49.333 -111 -87s-51.834 -82.834 -66.501 -135.501s-22 -111 -22 -175c0 -66 7.66699 -125.5 23 -178.5s37.833 -98.167 67.5 -135.5s66.667 -66 111 -86s95.5 -30 153.5 -30z" />
    <glyph glyph-name="Uhorn" unicode="&#x1af;" horiz-adv-x="1404" 
d="M1460 1620c4 -25.333 6.00195 -49 6.00195 -71c0 -28.667 -4.5 -59 -13.5 -91s-31.833 -60.333 -68.5 -85c-28.667 -19.333 -61 -30.333 -97 -33c-7.33301 -0.666992 -15 -1 -23 -1v-779c0 -93.333 -13.167 -176.5 -39.5 -249.5s-64 -134.833 -113 -185.5
s-108.167 -89.167 -177.5 -115.5s-146.666 -39.5 -231.999 -39.5s-162.666 13.167 -231.999 39.5s-128.5 64.833 -177.5 115.5s-86.667 112.5 -113 185.5s-39.5 156.167 -39.5 249.5v880h147v-877c0 -72.667 9.16699 -137.167 27.5 -193.5s45.166 -103.833 80.499 -142.5
s78.666 -68 129.999 -88s110.333 -30 177 -30s125.667 10 177 30s94.666 49.333 129.999 88s62.166 86.167 80.499 142.5s27.5 120.833 27.5 193.5v877h64l36.5 2c12.333 0.666992 23.5 2 33.5 4c28.667 6 49.5 17.5 62.5 34.5s20.5 33.833 22.5 50.5s3 31.667 3 45
c0 14 -0.666992 28.667 -2 44h123z" />
    <glyph glyph-name="uhorn" unicode="&#x1b0;" horiz-adv-x="1187" 
d="M1223 1260c4 -25.333 5.99902 -49.001 5.99902 -71.001c0 -28.667 -4.5 -59 -13.5 -91s-31.833 -60.333 -68.5 -85c-28 -19.333 -60.333 -30.333 -97 -33h-3v-980h-147v161c-12.667 -24 -28.5 -47.5 -47.5 -70.5s-42.333 -43.333 -70 -61s-60.167 -32 -97.5 -43
s-80.666 -16.5 -129.999 -16.5c-65.333 0 -124.666 9.83301 -177.999 29.5s-99 49.834 -137 90.501s-67.5 92.334 -88.5 155.001s-31.5 136.667 -31.5 222v613h147v-593c0 -66.667 7.5 -123.834 22.5 -171.501s36.333 -86.667 64 -117s60.667 -52.5 99 -66.5
s80.833 -21 127.5 -21c46 0 88.667 7 128 21s73.166 36 101.499 66s50.5 68.833 66.5 116.5s24 105.167 24 172.5v593h45l35.5 2c12.333 0.666992 23.833 2 34.5 4c28 6 48.5 17.5 61.5 34.5s20.5 33.833 22.5 50.5s3 31.667 3 45c0 14 -0.666992 28.667 -2 44h123z" />
    <glyph glyph-name="uni0218" unicode="&#x218;" horiz-adv-x="1233" 
d="M640 -30c-76 0 -146.164 9.66406 -210.497 28.9971s-121.333 47 -171 83s-91 79.5 -124 130.5s-55.5 108.5 -67.5 172.5l150 25c12 -47.333 30.667 -89.5 56 -126.5s56.333 -68.333 93 -94s78.5 -45.167 125.5 -58.5s98.5 -20 154.5 -20
c55.333 0 105.666 6.66699 150.999 20s84.166 32.166 116.499 56.499s57.5 53.5 75.5 87.5s27 71.667 27 113c0 110.667 -73.667 188 -221 232l-365 109c-204.667 60 -307 175.333 -307 346c0 58 12 111.167 36 159.5s57.5 89.833 100.5 124.5s94.667 61.667 155 81
s126.5 29 198.5 29s138.833 -9.66699 200.5 -29s116 -47.166 163 -83.499s86 -80.5 117 -132.5s52.5 -110.333 64.5 -175l-154 -28c-7.33301 46.667 -22 89 -44 127s-50.167 70.333 -84.5 97s-73.833 47.334 -118.5 62.001s-93.334 22 -146.001 22
c-50 0 -95.5 -6.33301 -136.5 -19s-76 -30.167 -105 -52.5s-51.5 -48.666 -67.5 -78.999s-24 -63.166 -24 -98.499c0 -28 4.66699 -53 14 -75s24.333 -42 45 -60s47.167 -34.5 79.5 -49.5s71.833 -29.5 118.5 -43.5l281 -82c116 -34 203.333 -82.333 262 -145
s88 -140 88 -232c0 -64 -12.5 -122 -37.5 -174s-60.5 -96.5 -106.5 -133.5s-101.333 -65.5 -166 -85.5s-136.667 -30 -216 -30zM583.003 -472.003c11.333 0 24 2.66602 38 7.99902s26 14.333 36 27s15 28.334 15 47.001v7h-89v165h166v-165
c0 -36 -7.83301 -66.5 -23.5 -91.5s-36.167 -43.833 -61.5 -56.5s-52.333 -19 -81 -19v78z" />
    </font>
</defs>
</svg>
