<svg width="48" height="48" viewBox="0 0 48 48" fill="none" xmlns="http://www.w3.org/2000/svg">
<path d="M8.49937 21C8.22339 20.9997 7.99988 20.7758 8 20.4998C8.00012 20.2238 8.22381 20.0001 8.49979 20C8.77577 19.9999 8.99965 20.2234 9 20.4994C9.00017 20.6322 8.94748 20.7596 8.85355 20.8536C8.75963 20.9475 8.6322 21.0002 8.49937 21" stroke="#606C70" stroke-width="2" stroke-linecap="round" stroke-linejoin="round"/>
<circle cx="14.5" cy="5.5" r="2.5" stroke="#606C70" stroke-width="2" stroke-linecap="round" stroke-linejoin="round"/>
<path d="M8.75381 2C-0.214821 17.3125 15.8826 15.7373 12.5605 23C20.7275 13.0349 5.49758 13.375 8.75381 2Z" stroke="#606C70" stroke-width="2" stroke-linecap="round" stroke-linejoin="round"/>
<path d="M2 43.0079V34.9292H10.378V38.0237H14.5669V34.9292H32.8189V38.0237H37.3071V34.9292H45.685V43.0079H2Z" stroke="#606C70" stroke-width="2" stroke-linecap="round" stroke-linejoin="round"/>
<path d="M43.2912 44.0083V47.0004H4.39355V44.0083" stroke="#606C70" stroke-width="2" stroke-linecap="round" stroke-linejoin="round"/>
<path d="M44.4852 12.3685L16.5952 28.5428L16 27.5C16.2886 26.4432 16.1843 25.5861 15.5912 24.5589L42.5403 8.99982L44.4852 12.3685Z" stroke="#606C70" stroke-width="2" stroke-linecap="round" stroke-linejoin="round"/>
<path d="M19.4614 26.8492C19.3848 26.3176 18.9922 24.8398 18.0347 23.1814" stroke="#606C70" stroke-width="2" stroke-linecap="round" stroke-linejoin="round"/>
<path d="M33.73 14.0869L35.6749 17.4555" stroke="#606C70" stroke-width="2" stroke-linecap="round" stroke-linejoin="round"/>
</svg>
