<svg width="48" height="50" viewBox="0 0 48 50" fill="none" xmlns="http://www.w3.org/2000/svg">
<mask id="path-1-inside-1_1331_1215" fill="white">
<path d="M10.5 25C17.5416 25 23.25 30.7084 23.25 37.75V41.5C16.2084 41.5 10.5 35.7916 10.5 28.75V25Z"/>
</mask>
<path d="M21.25 37.75V41.5H25.25V37.75H21.25ZM12.5 28.75V25H8.5V28.75H12.5ZM23.25 39.5C17.3129 39.5 12.5 34.6871 12.5 28.75H8.5C8.5 36.8962 15.1038 43.5 23.25 43.5V39.5ZM10.5 27C16.4371 27 21.25 31.8129 21.25 37.75H25.25C25.25 29.6038 18.6462 23 10.5 23V27Z" fill="#606C70" mask="url(#path-1-inside-1_1331_1215)"/>
<mask id="path-3-inside-2_1331_1215" fill="white">
<path d="M34.5 25C27.4584 25 21.75 30.7084 21.75 37.75V41.5C28.7916 41.5 34.5 35.7916 34.5 28.75V25Z"/>
</mask>
<path d="M23.75 37.75V41.5H19.75V37.75H23.75ZM32.5 28.75V25H36.5V28.75H32.5ZM21.75 39.5C27.6871 39.5 32.5 34.6871 32.5 28.75H36.5C36.5 36.8962 29.8962 43.5 21.75 43.5V39.5ZM34.5 27C28.5629 27 23.75 31.8129 23.75 37.75H19.75C19.75 29.6038 26.3538 23 34.5 23V27Z" fill="#606C70" mask="url(#path-3-inside-2_1331_1215)"/>
<path d="M31.5 21.25V20.25H32.5V21.25H31.5ZM32.5 25.9545C32.5 26.5068 32.0523 26.9545 31.5 26.9545C30.9477 26.9545 30.5 26.5068 30.5 25.9545H32.5ZM23.5 39.25C23.5 39.8023 23.0523 40.25 22.5 40.25C21.9477 40.25 21.5 39.8023 21.5 39.25H23.5ZM23.5 30.25V33.25H21.5V30.25H23.5ZM32.5 21.25V25.9545H30.5V21.25H32.5ZM23.5 33.25V39.25H21.5V33.25H23.5ZM31.5 22.25C27.0817 22.25 23.5 25.8317 23.5 30.25H21.5C21.5 24.7272 25.9772 20.25 31.5 20.25V22.25Z" fill="#606C70"/>
<path d="M14.25 19.75V18.75H13.25V19.75H14.25ZM13.25 26.5C13.25 27.0523 13.6977 27.5 14.25 27.5C14.8023 27.5 15.25 27.0523 15.25 26.5H13.25ZM23.1431 25.4218C23.4279 25.895 24.0423 26.0478 24.5155 25.7631C24.9888 25.4784 25.1416 24.8639 24.8569 24.3907L23.1431 25.4218ZM14.25 20.75H14.8802V18.75H14.25V20.75ZM13.25 19.75V26.5H15.25V19.75H13.25ZM14.8802 20.75C18.2633 20.75 21.399 22.5229 23.1431 25.4218L24.8569 24.3907C22.751 20.8906 18.965 18.75 14.8802 18.75V20.75Z" fill="#606C70"/>
<path d="M21.027 21.0112L20.1018 20.6315V20.6315L21.027 21.0112ZM21.9251 21.4566C21.7155 21.9675 21.1313 22.2117 20.6204 22.0021C20.1094 21.7924 19.8652 21.2082 20.0749 20.6973L21.9251 21.4566ZM28.5 16V15H29.5V16H28.5ZM29.5 21.25C29.5 21.8023 29.0523 22.25 28.5 22.25C27.9477 22.25 27.5 21.8023 27.5 21.25H29.5ZM21.9521 21.3908L21.9251 21.4566L20.0749 20.6973L20.1018 20.6315L21.9521 21.3908ZM29.5 16V21.25H27.5V16H29.5ZM28.5 17C25.6288 17 23.0421 18.7346 21.9521 21.3908L20.1018 20.6315C21.4999 17.2247 24.8175 15 28.5 15V17Z" fill="#606C70"/>
<path d="M22.5 39.25V48.25" stroke="#606C70" stroke-width="2" stroke-linecap="round" stroke-linejoin="round"/>
<circle cx="40.5" cy="7.75" r="6" stroke="#606C70" stroke-width="2" stroke-linecap="round" stroke-linejoin="round"/>
<path d="M39.5008 20.0017C39.5001 20.5539 39.0522 21.0011 38.5 21.0008C37.9478 21.0006 37.5002 20.553 37.5 20.0008C37.4998 19.4486 37.947 19.0007 38.4992 19C38.7649 18.9997 39.0199 19.1051 39.2078 19.293C39.3957 19.481 39.5012 19.7359 39.5008 20.0017" stroke="#606C70" stroke-width="2" stroke-linecap="round" stroke-linejoin="round"/>
<path d="M42.5008 29.7517C42.5001 30.3039 42.0522 30.7511 41.5 30.7508C40.9478 30.7506 40.5002 30.303 40.5 29.7508C40.4998 29.1986 40.947 28.7507 41.4992 28.75C41.7649 28.7497 42.0199 28.8551 42.2078 29.043C42.3957 29.231 42.5012 29.4859 42.5008 29.7517" stroke="#606C70" stroke-width="2" stroke-linecap="round" stroke-linejoin="round"/>
<path d="M24.5008 7.25168C24.5001 7.80387 24.0522 8.25107 23.5 8.25084C22.9478 8.2506 22.5002 7.80303 22.5 7.25084C22.4998 6.69865 22.947 6.2507 23.4992 6.25C23.7649 6.24967 24.0199 6.35509 24.2078 6.54302C24.3957 6.73094 24.5012 6.98592 24.5008 7.25168" stroke="#606C70" stroke-width="2" stroke-linecap="round" stroke-linejoin="round"/>
<path d="M5.75083 23.0017C5.75014 23.5539 5.30218 24.0011 4.75 24.0008C4.19781 24.0006 3.75023 23.553 3.75 23.0008C3.74977 22.4487 4.19697 22.0007 4.74916 22C5.01492 21.9997 5.26989 22.1051 5.45782 22.293C5.64574 22.4809 5.75117 22.7359 5.75083 23.0017" stroke="#606C70" stroke-width="2" stroke-linecap="round" stroke-linejoin="round"/>
<circle cx="9.18792" cy="9.43734" r="3.64583" stroke="#606C70" stroke-width="2" stroke-linecap="round" stroke-linejoin="round"/>
<path d="M9.1875 5.79167V4.75" stroke="#606C70" stroke-width="2" stroke-linecap="round" stroke-linejoin="round"/>
<path d="M12.8333 9.4375L13.875 9.4375" stroke="#606C70" stroke-width="2" stroke-linecap="round" stroke-linejoin="round"/>
<path d="M6.48408 6.73299L5.58264 5.83154" stroke="#606C70" stroke-width="2" stroke-linecap="round" stroke-linejoin="round"/>
<path d="M11.7124 12.3222L12.6139 13.2236" stroke="#606C70" stroke-width="2" stroke-linecap="round" stroke-linejoin="round"/>
<path d="M11.7124 6.73299L12.6139 5.83154" stroke="#606C70" stroke-width="2" stroke-linecap="round" stroke-linejoin="round"/>
<path d="M6.48408 12.3222L5.58264 13.2236" stroke="#606C70" stroke-width="2" stroke-linecap="round" stroke-linejoin="round"/>
<path d="M9.1875 14.1252V13.0835" stroke="#606C70" stroke-width="2" stroke-linecap="round" stroke-linejoin="round"/>
<path d="M4.50022 9.4375L5.02106 9.4375" stroke="#606C70" stroke-width="2" stroke-linecap="round" stroke-linejoin="round"/>
</svg>
