<svg width="48" height="48" viewBox="0 0 48 48" fill="none" xmlns="http://www.w3.org/2000/svg">
<circle cx="35.2519" cy="16.5019" r="4.50187" stroke="#606C70" stroke-width="2" stroke-linecap="round" stroke-linejoin="round"/>
<path d="M42.7506 4.50126C42.7501 4.9154 42.4141 5.2508 42 5.25063C41.5859 5.25045 41.2502 4.91477 41.25 4.50063C41.2498 4.08649 41.5852 3.75052 41.9994 3.75C42.1987 3.74975 42.3899 3.82882 42.5309 3.96976C42.6718 4.1107 42.7509 4.30194 42.7506 4.50126" stroke="#606C70" stroke-width="2" stroke-linecap="round" stroke-linejoin="round"/>
<circle cx="39" cy="35.25" r="5.25" stroke="#606C70" stroke-width="2" stroke-linecap="round" stroke-linejoin="round"/>
<path d="M39 30V28.5" stroke="#606C70" stroke-width="2" stroke-linecap="round" stroke-linejoin="round"/>
<path d="M44.25 35.25L45.75 35.25" stroke="#606C70" stroke-width="2" stroke-linecap="round" stroke-linejoin="round"/>
<path d="M35.1059 31.3557L33.8079 30.0576" stroke="#606C70" stroke-width="2" stroke-linecap="round" stroke-linejoin="round"/>
<path d="M42.6348 39.4041L43.9329 40.7021" stroke="#606C70" stroke-width="2" stroke-linecap="round" stroke-linejoin="round"/>
<path d="M42.6348 31.3557L43.9329 30.0576" stroke="#606C70" stroke-width="2" stroke-linecap="round" stroke-linejoin="round"/>
<path d="M35.1059 39.4041L33.8079 40.7021" stroke="#606C70" stroke-width="2" stroke-linecap="round" stroke-linejoin="round"/>
<path d="M39 42V40.5" stroke="#606C70" stroke-width="2" stroke-linecap="round" stroke-linejoin="round"/>
<path d="M32.25 35.25L33 35.25" stroke="#606C70" stroke-width="2" stroke-linecap="round" stroke-linejoin="round"/>
<path d="M24.0006 39.0013C24.0001 39.4154 23.6641 39.7508 23.25 39.7506C22.8359 39.7504 22.5002 39.4148 22.5 39.0006C22.4998 38.5865 22.8352 38.2505 23.2494 38.25C23.4487 38.2497 23.6399 38.3288 23.7809 38.4698C23.9218 38.6107 24.0009 38.8019 24.0006 39.0013" stroke="#606C70" stroke-width="2" stroke-linecap="round" stroke-linejoin="round"/>
<rect x="15.2344" y="4.42285" width="12.9057" height="23.1226" rx="6.45283" transform="rotate(30 15.2344 4.42285)" stroke="#606C70" stroke-width="2" stroke-linecap="round" stroke-linejoin="round"/>
<path d="M20.8224 7.64927L22.1667 5.3208" stroke="#606C70" stroke-width="2" stroke-linecap="round" stroke-linejoin="round"/>
<path d="M8.99222 28.1397L7.91675 30.0024" stroke="#606C70" stroke-width="2" stroke-linecap="round" stroke-linejoin="round"/>
<path d="M24.1933 11.5769L26.3372 11.0024" stroke="#606C70" stroke-width="2" stroke-linecap="round" stroke-linejoin="round"/>
<path d="M14.2137 28.8626L14.8418 31.2065" stroke="#606C70" stroke-width="2" stroke-linecap="round" stroke-linejoin="round"/>
<path d="M16.1467 6.60708L15.5229 4.2793" stroke="#606C70" stroke-width="2" stroke-linecap="round" stroke-linejoin="round"/>
<path d="M6.26902 24.2757L3.92505 24.9038" stroke="#606C70" stroke-width="2" stroke-linecap="round" stroke-linejoin="round"/>
<path d="M12.0074 10.0113L9.67896 8.66699" stroke="#606C70" stroke-width="2" stroke-linecap="round" stroke-linejoin="round"/>
<path d="M25.5127 17.8084L23.6499 16.7329" stroke="#606C70" stroke-width="2" stroke-linecap="round" stroke-linejoin="round"/>
<path d="M9.3187 14.6681L6.99023 13.3237" stroke="#606C70" stroke-width="2" stroke-linecap="round" stroke-linejoin="round"/>
<path d="M22.824 22.4651L20.9612 21.3896" stroke="#606C70" stroke-width="2" stroke-linecap="round" stroke-linejoin="round"/>
<path d="M6.63071 19.3253L4.30225 17.981" stroke="#606C70" stroke-width="2" stroke-linecap="round" stroke-linejoin="round"/>
<path d="M20.404 26.6565L18.5413 25.5811" stroke="#606C70" stroke-width="2" stroke-linecap="round" stroke-linejoin="round"/>
<circle cx="12.4207" cy="22.845" r="1.8718" transform="rotate(30 12.4207 22.845)" stroke="#606C70" stroke-width="2" stroke-linecap="round" stroke-linejoin="round"/>
<path d="M14.3672 16.9371C13.9812 17.3322 13.9886 17.9653 14.3836 18.3513C14.7787 18.7372 15.4118 18.7299 15.7977 18.3348L14.3672 16.9371ZM16.7595 15.3283L15.799 15.05L16.7595 15.3283ZM19.0689 13.0621C19.5467 12.7851 19.7095 12.1733 19.4326 11.6955C19.1556 11.2176 18.5438 11.0548 18.0659 11.3317L19.0689 13.0621ZM15.7977 18.3348C15.8937 18.2366 15.9962 18.1522 16.1559 18.0202C16.3051 17.8969 16.4992 17.7356 16.6934 17.5287C17.1077 17.0872 17.4584 16.5094 17.72 15.6066L15.799 15.05C15.6141 15.688 15.4072 15.9765 15.235 16.16C15.136 16.2656 15.0297 16.3563 14.8815 16.4788C14.7438 16.5926 14.5521 16.7479 14.3672 16.9371L15.7977 18.3348ZM17.72 15.6066C17.9881 14.6812 18.1539 14.157 18.3527 13.7839C18.5178 13.474 18.7035 13.2738 19.0689 13.0621L18.0659 11.3317C17.3949 11.7207 16.9371 12.1874 16.5875 12.8436C16.2716 13.4366 16.0517 14.1778 15.799 15.05L17.72 15.6066Z" fill="#606C70"/>
</svg>
