<svg width="48" height="48" viewBox="0 0 48 48" fill="none" xmlns="http://www.w3.org/2000/svg">
<ellipse cx="36.0054" cy="19.9986" rx="6.0025" ry="6.0025" stroke="#606C70" stroke-width="2" stroke-linecap="round" stroke-linejoin="round"/>
<circle cx="22.9997" cy="35.0044" r="7.00292" stroke="#606C70" stroke-width="2" stroke-linecap="round" stroke-linejoin="round"/>
<circle cx="13.996" cy="13.996" r="8.00333" stroke="#606C70" stroke-width="2" stroke-linecap="round" stroke-linejoin="round"/>
<path d="M40.0069 35.0061C40.0062 35.5583 39.5583 36.0055 39.0061 36.0052C38.4539 36.005 38.0063 35.5574 38.0061 35.0052C38.0059 34.453 38.4531 34.0051 39.0053 34.0044C39.271 34.0041 39.526 34.1095 39.7139 34.2974C39.9019 34.4853 40.0073 34.7403 40.0069 35.0061" stroke="#606C70" stroke-width="2" stroke-linecap="round" stroke-linejoin="round"/>
<path d="M30.0028 6.99484C30.0021 7.54703 29.5541 7.99423 29.0019 7.994C28.4498 7.99377 28.0022 7.54619 28.002 6.994C28.0017 6.44182 28.4489 5.99386 29.0011 5.99316C29.2669 5.99283 29.5218 6.09826 29.7098 6.28618C29.8977 6.4741 30.0031 6.72908 30.0028 6.99484" stroke="#606C70" stroke-width="2" stroke-linecap="round" stroke-linejoin="round"/>
<path d="M8.99546 30.0036C8.99477 30.5558 8.54681 31.003 7.99463 31.0028C7.44244 31.0026 6.99486 30.555 6.99463 30.0028C6.9944 29.4506 7.4416 29.0027 7.99379 29.002C8.25955 29.0016 8.51453 29.107 8.70246 29.295C8.89039 29.4829 8.99582 29.7379 8.99548 30.0036" stroke="#606C70" stroke-width="2" stroke-linecap="round" stroke-linejoin="round"/>
</svg>
