<svg width="187" height="42" viewBox="0 0 187 42" fill="none" xmlns="http://www.w3.org/2000/svg">
<path d="M16.7468 11.1528C17.5443 10.2827 18.3417 9.49177 19.0594 9.0172C21.6112 10.6782 25.0402 15.5822 27.3528 20.1697C27.6718 19.4579 27.911 18.8251 28.1503 18.1132C25.12 13.4466 22.6479 7.75166 23.2859 5.45787C23.6846 4.03414 23.2859 2.45222 22.1694 1.26578C20.4948 -0.395235 17.7038 -0.395235 15.9494 1.26578C14.833 2.37313 14.4343 3.95505 14.833 5.45787C15.152 6.64431 14.6735 8.62172 13.7963 10.9155C14.6735 10.9946 15.7102 11.0737 16.7468 11.1528ZM3.27008 16.7686C4.46624 17.085 5.98138 18.5087 7.57627 20.407C8.13447 19.6952 8.69268 18.9042 9.25089 18.0341C8.85217 16.8477 8.61294 15.8195 8.53319 14.9494C11.3242 13.6048 17.3051 13.1302 22.4087 13.4466C22.2492 13.2884 22.1694 13.1302 22.01 12.972C21.691 12.5765 21.372 12.181 21.053 11.7856C15.4709 12.0228 9.25089 11.2319 7.49652 9.57087C5.82189 7.90985 3.03085 7.90985 1.27648 9.57087C-0.398149 11.2319 -0.398149 14.0002 1.27648 15.6613C1.83469 16.2149 2.55238 16.6104 3.27008 16.7686ZM29.5856 14.9494C29.3464 18.0341 26.7946 23.4127 23.9238 27.6048C24.7213 27.5257 25.439 27.4466 26.0769 27.2884C28.7085 22.3844 32.4564 17.4014 34.8488 16.7686C35.5665 16.6104 36.2044 16.2149 36.8424 15.6613C38.517 14.0002 38.517 11.2319 36.8424 9.57087C35.1677 7.90985 32.3767 7.90985 30.6223 9.57087C29.7451 10.4409 27.7515 11.0737 25.2795 11.4692C25.5984 12.2601 26.0769 13.2093 26.4756 14.0793C27.7515 14.2375 28.7882 14.5539 29.5856 14.9494ZM8.53319 26.972C8.77243 23.9663 11.3242 18.5087 14.195 14.3166C13.3976 14.3957 12.6799 14.4748 12.0419 14.633C9.41038 19.537 5.66241 24.52 3.27008 25.1528C2.55238 25.3901 1.91443 25.7065 1.35622 26.2601C-0.318405 27.9212 -0.318405 30.6895 1.35622 32.3505C3.03085 34.0115 5.82189 34.0115 7.57627 32.3505C8.45345 31.4805 10.4471 30.8477 12.9191 30.4522C12.5204 29.6613 12.1217 28.7121 11.723 27.8421C10.3673 27.6839 9.33064 27.3675 8.53319 26.972ZM15.9494 17.9551C14.2748 19.6161 14.2748 22.3844 15.9494 24.0454C17.624 25.7065 20.4151 25.7065 22.1694 24.0454C23.8441 22.3844 23.8441 19.6161 22.1694 17.9551C20.4151 16.2149 17.624 16.2149 15.9494 17.9551ZM34.8488 25.1528C33.6526 24.8364 32.1375 23.4127 30.5426 21.5144C29.9844 22.2262 29.4262 23.0172 28.868 23.8873C29.2667 25.0737 29.5059 26.1019 29.5856 26.972C26.7946 28.3166 20.8138 28.7912 15.6304 28.4748C15.7899 28.633 15.8697 28.8703 16.0291 29.0285C16.3481 29.424 16.6671 29.8195 16.9861 30.2149C22.5682 29.9776 28.868 30.7686 30.6223 32.4296C32.2969 34.0906 35.088 34.0906 36.8424 32.4296C38.517 30.7686 38.517 28.0002 36.8424 26.3392C36.2044 25.7065 35.5665 25.311 34.8488 25.1528ZM21.372 30.7686C20.5746 31.6387 19.7771 32.4296 18.9797 32.9042C16.4279 31.2432 12.9989 26.3392 10.6863 21.7517C10.6065 21.9889 10.5268 22.1471 10.4471 22.3844C10.2078 22.859 10.0483 23.3336 9.88885 23.8082C12.9191 28.4748 15.3912 34.1697 14.7532 36.5426C14.3545 37.9664 14.7532 39.6274 15.8697 40.7347C17.5443 42.3957 20.3353 42.3957 22.0897 40.7347C23.2061 39.6274 23.6048 37.9664 23.2061 36.5426C22.8871 35.3562 23.3656 33.3788 24.2428 31.085C23.3656 30.9268 22.4087 30.8477 21.372 30.7686Z" fill="#CE1821"/>
<path d="M74.8797 25.2318H71.7697V18.4296C71.7697 17.4013 71.5305 16.6104 70.9723 16.2149C70.4141 15.7403 69.6964 15.503 68.6597 15.503H65.7889V25.3109H62.6789V9.96631H65.7889V13.842H68.6597C70.733 13.842 72.3279 14.2375 73.3646 14.9494C74.3215 15.6612 74.8797 16.8477 74.8797 18.2714V25.2318Z" fill="#323032"/>
<path d="M84.5288 19.5367H83.0136C81.339 19.5367 80.4618 20.2486 80.4618 21.5932C80.4618 22.9378 81.339 23.6497 83.0136 23.6497H86.1236V19.5367V18.0339C86.1236 17.0056 85.8844 16.2147 85.2465 15.7401C84.6882 15.2655 83.9705 15.0282 83.0934 15.0282C82.4554 15.0282 81.8175 15.1073 81.1795 15.3446C80.5416 15.5819 79.9833 15.8192 79.5049 16.1356L78.7074 14.87C79.0264 14.6327 79.4251 14.4745 79.7441 14.3164C80.1428 14.1582 80.5415 14 80.9403 13.9209C81.339 13.8418 81.7377 13.7627 82.1364 13.6836C82.5352 13.6045 82.9339 13.6045 83.2528 13.6045C84.2098 13.6045 85.0072 13.6836 85.7249 13.9209C86.4426 14.1582 87.0806 14.4745 87.559 14.87C88.0375 15.2655 88.4362 15.7401 88.6754 16.2938C88.9147 16.8474 89.0742 17.4802 89.0742 18.1921V25.3898H82.9339C80.9403 25.3898 79.5049 25.0734 78.5479 24.5197C77.591 23.9661 77.1125 23.0169 77.1125 21.8305C77.1125 20.644 77.591 19.774 78.5479 19.1412C79.5049 18.5084 80.9403 18.2712 82.9339 18.2712H84.449L84.5288 19.5367Z" fill="#323032"/>
<path d="M129.823 19.5367H128.308C126.634 19.5367 125.756 20.2486 125.756 21.5932C125.756 22.9378 126.634 23.6497 128.308 23.6497H131.418V19.5367V18.0339C131.418 17.0056 131.179 16.2147 130.541 15.7401C129.983 15.2655 129.265 15.0282 128.388 15.0282C127.75 15.0282 127.112 15.1073 126.474 15.3446C125.836 15.5819 125.278 15.8192 124.8 16.1356L124.002 14.87C124.321 14.6327 124.72 14.4745 125.039 14.3164C125.438 14.1582 125.836 14 126.235 13.9209C126.634 13.8418 127.032 13.7627 127.431 13.6836C127.83 13.6045 128.229 13.6045 128.548 13.6045C129.504 13.6045 130.302 13.6836 131.02 13.9209C131.737 14.1582 132.375 14.4745 132.854 14.87C133.332 15.2655 133.731 15.7401 133.97 16.2938C134.209 16.8474 134.369 17.4802 134.369 18.1921V25.3898H128.229C126.235 25.3898 124.8 25.0734 123.843 24.5197C122.886 23.9661 122.407 23.0169 122.407 21.8305C122.407 20.644 122.886 19.774 123.843 19.1412C124.8 18.5084 126.235 18.2712 128.229 18.2712H129.744L129.823 19.5367Z" fill="#323032"/>
<path d="M100.797 15.4237H98.165C97.1284 15.4237 96.4107 15.661 95.8525 16.2147C95.2943 16.7684 95.055 17.5593 95.055 18.5876V25.2316H91.945V18.5876C91.945 17.0847 92.4235 15.9774 93.3804 15.1864C94.3373 14.3955 95.693 14 97.4473 14H100.717V15.4237H100.797Z" fill="#323032"/>
<path d="M102.631 13.9209H114.114C116.187 13.9209 117.782 14.3164 118.819 15.0282C119.776 15.7401 120.334 16.9265 120.334 18.3503V25.2316H117.224V18.4294C117.224 17.4011 116.985 16.6102 116.426 16.2147C115.868 15.7401 115.151 15.5028 114.114 15.5028H112.997V25.3107H109.887V15.4237H105.661V25.2316H102.551V13.9209H102.631Z" fill="#323032"/>
<path d="M137.399 13.9209H148.882C150.956 13.9209 152.55 14.3164 153.587 15.0282C154.624 15.7401 155.102 16.9265 155.102 18.3503V25.2316H151.992V18.4294C151.992 17.4011 151.753 16.6102 151.195 16.2147C150.637 15.7401 149.919 15.5028 148.882 15.5028H147.766V25.3107H144.656V15.4237H140.429V25.2316H137.319L137.399 13.9209Z" fill="#323032"/>
<path d="M161.322 11.1527C161.322 11.6273 161.163 11.9437 160.844 12.2601C160.525 12.5765 160.126 12.7346 159.648 12.7346C159.169 12.7346 158.771 12.5765 158.452 12.2601C158.133 11.9437 157.973 11.5482 157.973 11.1527C157.973 10.6781 158.133 10.3618 158.452 10.0454C158.771 9.72899 159.169 9.5708 159.648 9.5708C160.126 9.5708 160.525 9.72899 160.844 10.0454C161.163 10.3618 161.322 10.7572 161.322 11.1527ZM161.243 25.2318H158.133V14.1584H161.243V25.2318Z" fill="#323032"/>
<path d="M171.29 19.4576L176.075 25.2316H172.566L169.536 21.5932L166.426 25.2316H162.917L167.702 19.4576L162.997 13.9209H166.506L169.456 17.4011L172.407 13.9209H175.916L171.29 19.4576Z" fill="#323032"/>
<path d="M178.627 15.424H176.554V13.9211H178.627V10.4409H181.737V13.9211H185.166V15.424H181.737V21.0398C181.737 21.5935 181.817 22.068 181.896 22.4635C182.056 22.859 182.215 23.1754 182.375 23.4127C182.614 23.65 182.853 23.8081 183.093 23.9663C183.412 24.0454 183.651 24.1245 183.97 24.1245C184.448 24.1245 184.847 24.0454 185.246 23.8872C185.644 23.7291 186.043 23.5709 186.282 23.4127L186.92 24.8364C186.442 25.0737 185.963 25.2319 185.405 25.3901C184.847 25.5483 184.289 25.6274 183.731 25.6274C182.056 25.6274 180.78 25.2319 179.903 24.4409C179.026 23.65 178.547 22.5426 178.547 21.1189V15.424H178.627Z" fill="#323032"/>
<path d="M59.8081 17.1638C59.4891 16.452 59.0106 15.8983 58.4524 15.3446C57.8942 14.8701 57.1765 14.5537 56.2993 14.2373C55.4221 14 54.5449 13.9209 53.5083 13.9209H47.5275V29.2655H50.7172V15.5819H53.5083C53.9867 15.5819 54.4652 15.5819 54.8639 15.7401C55.2626 15.8983 55.6614 16.1356 55.9803 16.452C56.2993 16.7684 56.5386 17.1638 56.698 17.7175C56.8575 18.2712 56.9373 18.8249 56.9373 19.6158C56.9373 20.4068 56.8575 20.9604 56.698 21.5141C56.5386 22.0678 56.2993 22.4633 55.9803 22.7797C55.6614 23.096 55.3424 23.4124 54.8639 23.5706C54.4652 23.7288 53.9867 23.887 53.5083 23.887H52.3121V25.4689H53.5083C54.5449 25.4689 55.4221 25.2316 56.2993 24.9943C57.1765 24.7571 57.8145 24.2825 58.4524 23.8079C59.0106 23.3333 59.4891 22.7006 59.8081 21.9887C60.127 21.2768 60.2865 20.4859 60.2865 19.6158C60.2865 18.7458 60.127 17.8757 59.8081 17.1638Z" fill="#323032"/>
</svg>
