<svg width="48" height="48" viewBox="0 0 48 48" fill="none" xmlns="http://www.w3.org/2000/svg">
<path d="M30.5 43.5H9.1C7.60011 43.5 6.85016 43.5 6.32443 43.118C6.15464 42.9947 6.00533 42.8454 5.88197 42.6756C5.5 42.1498 5.5 41.3999 5.5 39.9V8.1C5.5 6.60011 5.5 5.85016 5.88197 5.32443C6.00533 5.15464 6.15464 5.00533 6.32443 4.88197C6.85016 4.5 7.60011 4.5 9.1 4.5H21.0088C21.6618 4.5 21.9883 4.5 22.2896 4.59789C22.3893 4.63026 22.4862 4.67042 22.5796 4.71799C22.8618 4.8618 23.0927 5.09267 23.5544 5.55442L31.9456 13.9456C32.4073 14.4073 32.6382 14.6382 32.782 14.9204C32.8296 15.0138 32.8697 15.1107 32.9021 15.2104C33 15.5117 33 15.8382 33 16.4912V21" stroke="#2D953C" stroke-width="2"/>
<path d="M20.5 4.5V12.9C20.5 14.3999 20.5 15.1498 20.882 15.6756C21.0053 15.8454 21.1546 15.9947 21.3244 16.118C21.8502 16.5 22.6001 16.5 24.1 16.5H33" stroke="#2D953C" stroke-width="2"/>
<path d="M11 39V25H16.0879C17.1984 25 18.1184 25.1982 18.8479 25.5947C19.5774 25.9912 20.1234 26.5335 20.4858 27.2217C20.8483 27.9053 21.0295 28.6755 21.0295 29.5322C21.0295 30.3936 20.8459 31.1683 20.4789 31.8564C20.1164 32.54 19.5682 33.0824 18.834 33.4834C18.1045 33.8799 17.1868 34.0781 16.081 34.0781H12.5821V32.2871H15.8858C16.5874 32.2871 17.1566 32.1686 17.5934 31.9316C18.0302 31.6901 18.3508 31.362 18.5552 30.9473C18.7597 30.5326 18.8619 30.0609 18.8619 29.5322C18.8619 29.0036 18.7597 28.5342 18.5552 28.124C18.3508 27.7139 18.0278 27.3926 17.5864 27.1602C17.1496 26.9277 16.5735 26.8115 15.8579 26.8115H13.1537V39H11Z" fill="#2D953C"/>
<path d="M27.3901 39H22.7692V25H27.5365C28.9351 25 30.1362 25.2803 31.1399 25.8408C32.1435 26.3968 32.9125 27.1966 33.4469 28.2402C33.9859 29.2793 34.2554 30.5257 34.2554 31.9795C34.2554 33.4378 33.9835 34.6911 33.4399 35.7393C32.9009 36.7874 32.1203 37.5941 31.0981 38.1592C30.0758 38.7197 28.8399 39 27.3901 39ZM24.9229 37.1543H27.2717C28.3589 37.1543 29.2627 36.9538 29.9829 36.5527C30.7031 36.1471 31.2421 35.5615 31.5999 34.7959C31.9577 34.0257 32.1366 33.0869 32.1366 31.9795C32.1366 30.8812 31.9577 29.9492 31.5999 29.1836C31.2467 28.418 30.7194 27.8369 30.0177 27.4404C29.3161 27.0439 28.4449 26.8457 27.4041 26.8457H24.9229V37.1543Z" fill="#2D953C"/>
<path d="M36.1484 39V25H45V26.8184H38.3021V31.084H44.3658V32.8955H38.3021V39H36.1484Z" fill="#2D953C"/>
</svg>
